<svg width="110" height="130" viewBox="0 0 110 130" fill="none" xmlns="http://www.w3.org/2000/svg">
<g filter="url(#filter0_i_3613_2298)">
<path fill-rule="evenodd" clip-rule="evenodd" d="M2.92469 127.585C2.92469 125.076 0.5 125.076 0.5 122.568C0.5 120.06 2.92469 120.06 2.92469 117.551C2.92469 115.043 0.5 115.043 0.5 112.534C0.5 110.026 2.92469 110.026 2.92469 107.517C2.92469 105.009 0.5 105.009 0.5 102.5C0.5 99.992 2.92469 99.992 2.92469 97.4836C2.92469 94.9751 0.5 94.9751 0.5 92.4667C0.5 89.9582 2.92469 89.9582 2.92469 87.4498C2.92469 84.9413 0.5 84.9413 0.5 82.4329C0.5 79.9244 2.92469 79.9244 2.92469 77.416C2.92469 74.9076 0.5 74.9076 0.5 72.3991C0.5 69.8907 2.92469 69.8907 2.92469 67.3822C2.92469 64.8738 0.5 64.8738 0.5 62.3653C0.5 59.8569 2.92469 59.8569 2.92469 57.3484C2.92469 54.84 0.5 54.84 0.5 52.3315C0.5 49.8231 2.92469 49.8231 2.92469 47.3146C2.92469 44.8062 0.5 44.8062 0.5 42.2977C0.5 39.7893 2.92469 39.7893 2.92469 37.2809C2.92469 34.7724 0.5 34.7724 0.5 32.264C0.5 29.7555 2.92469 29.7555 2.92469 27.2471C2.92469 24.7386 0.5 24.7386 0.5 22.2302C0.5 19.7217 2.92469 19.7217 2.92469 17.2133C2.92469 14.7048 0.5 14.7048 0.5 12.1964C0.5 9.68794 2.92469 9.68793 2.92469 7.17949C2.92469 4.67104 -0.407931 0.728302 1.71234 0.728302C3.83262 0.728302 3.83262 3.59689 5.95289 3.59689C8.07316 3.59689 8.07316 0.728302 10.1934 0.728302C12.3137 0.728302 12.3137 3.59689 14.434 3.59689C16.5543 3.59689 16.5543 0.728302 18.6745 0.728302C20.7948 0.728302 20.7948 3.59689 22.9151 3.59689C25.0354 3.59689 25.0354 0.728302 27.1556 0.728302C29.2759 0.728302 29.2759 3.59689 31.3962 3.59689C33.5164 3.59689 33.5164 0.728302 35.6367 0.728302C37.757 0.728302 37.757 3.59689 39.8773 3.59689C41.9975 3.59689 41.9975 0.728302 44.1178 0.728302C46.2381 0.728302 46.2381 3.59689 48.3584 3.59689C50.4786 3.59689 50.4786 0.728302 52.5989 0.728302C54.7192 0.728302 54.7192 3.59689 56.8395 3.59689C58.9597 3.59689 58.9597 0.728302 61.08 0.728302C63.2003 0.728302 63.2003 3.59689 65.3206 3.59689C67.4408 3.59689 67.4408 0.728302 69.5611 0.728302C71.6814 0.728302 71.6814 3.59689 73.8017 3.59689C75.9219 3.59689 75.9219 0.728302 78.0422 0.728302C80.1625 0.728302 80.1625 3.59689 82.2827 3.59689C84.403 3.59689 84.403 0.728302 86.5233 0.728302C88.6436 0.728302 88.6436 3.59689 90.7638 3.59689C92.8841 3.59689 92.8841 0.728302 95.0044 0.728302C97.1247 0.728302 97.1247 3.59689 99.2449 3.59689C101.365 3.59689 101.365 0.728302 103.485 0.728302C105.606 0.728302 106.514 -0.345856 106.514 2.1626C106.514 4.67104 108.938 4.67104 108.938 7.17949C108.938 9.68793 106.514 9.68794 106.514 12.1964C106.514 14.7048 108.938 14.7048 108.938 17.2133C108.938 19.7217 106.514 19.7217 106.514 22.2302C106.514 24.7386 108.938 24.7386 108.938 27.2471C108.938 29.7555 106.514 29.7555 106.514 32.264C106.514 34.7724 108.938 34.7724 108.938 37.2809C108.938 39.7893 106.514 39.7893 106.514 42.2977C106.514 44.8062 108.938 44.8062 108.938 47.3146C108.938 49.8231 106.514 49.8231 106.514 52.3315C106.514 54.84 108.938 54.84 108.938 57.3484C108.938 59.8569 106.514 59.8569 106.514 62.3653C106.514 64.8738 108.938 64.8738 108.938 67.3822C108.938 69.8907 106.514 69.8907 106.514 72.3991C106.514 74.9076 108.938 74.9076 108.938 77.416C108.938 79.9244 106.514 79.9244 106.514 82.4329C106.514 84.9413 108.938 84.9413 108.938 87.4498C108.938 89.9582 106.514 89.9582 106.514 92.4667C106.514 94.9751 108.938 94.9751 108.938 97.4836C108.938 99.992 106.514 99.992 106.514 102.5C106.514 105.009 108.938 105.009 108.938 107.517C108.938 110.026 106.514 110.026 106.514 112.534C106.514 115.043 108.938 115.043 108.938 117.551C108.938 120.06 106.514 120.06 106.514 122.568C106.514 125.076 109.846 129.019 107.726 129.019C105.606 129.019 105.606 126.151 103.485 126.151C101.365 126.151 101.365 129.019 99.2449 129.019C97.1247 129.019 97.1247 126.151 95.0044 126.151C92.8841 126.151 92.8841 129.019 90.7638 129.019C88.6436 129.019 88.6436 126.151 86.5233 126.151C84.403 126.151 84.403 129.019 82.2827 129.019C80.1625 129.019 80.1625 126.151 78.0422 126.151C75.9219 126.151 75.9219 129.019 73.8017 129.019C71.6814 129.019 71.6814 126.151 69.5611 126.151C67.4408 126.151 67.4408 129.019 65.3206 129.019C63.2003 129.019 63.2003 126.151 61.08 126.151C58.9597 126.151 58.9597 129.019 56.8395 129.019C54.7192 129.019 54.7192 126.151 52.5989 126.151C50.4786 126.151 50.4786 129.019 48.3584 129.019C46.2381 129.019 46.2381 126.151 44.1178 126.151C41.9975 126.151 41.9975 129.019 39.8773 129.019C37.757 129.019 37.757 126.151 35.6367 126.151C33.5164 126.151 33.5164 129.019 31.3962 129.019C29.2759 129.019 29.2759 126.151 27.1556 126.151C25.0354 126.151 25.0354 129.019 22.9151 129.019C20.7948 129.019 20.7948 126.151 18.6745 126.151C16.5543 126.151 16.5543 129.019 14.434 129.019C12.3137 129.019 12.3137 126.151 10.1934 126.151C8.07316 126.151 8.07316 129.019 5.95289 129.019C3.83262 129.019 3.83262 126.151 1.71234 126.151" fill="#EDECDD"/>
</g>
<path d="M2.92469 127.585C2.92469 125.076 0.5 125.076 0.5 122.568C0.5 120.06 2.92469 120.06 2.92469 117.551C2.92469 115.043 0.5 115.043 0.5 112.534C0.5 110.026 2.92469 110.026 2.92469 107.517C2.92469 105.009 0.5 105.009 0.5 102.5C0.5 99.992 2.92469 99.992 2.92469 97.4836C2.92469 94.9751 0.5 94.9751 0.5 92.4667C0.5 89.9582 2.92469 89.9582 2.92469 87.4498C2.92469 84.9413 0.5 84.9413 0.5 82.4329C0.5 79.9244 2.92469 79.9244 2.92469 77.416C2.92469 74.9076 0.5 74.9076 0.5 72.3991C0.5 69.8907 2.92469 69.8907 2.92469 67.3822C2.92469 64.8738 0.5 64.8738 0.5 62.3653C0.5 59.8569 2.92469 59.8569 2.92469 57.3484C2.92469 54.84 0.5 54.84 0.5 52.3315C0.5 49.8231 2.92469 49.8231 2.92469 47.3146C2.92469 44.8062 0.5 44.8062 0.5 42.2977C0.5 39.7893 2.92469 39.7893 2.92469 37.2808C2.92469 34.7724 0.5 34.7724 0.5 32.264C0.5 29.7555 2.92469 29.7555 2.92469 27.2471C2.92469 24.7386 0.5 24.7386 0.5 22.2302C0.5 19.7217 2.92469 19.7217 2.92469 17.2133C2.92469 14.7048 0.5 14.7048 0.5 12.1964C0.5 9.68794 2.92469 9.68794 2.92469 7.17949C2.92469 4.67105 -0.407931 0.728301 1.71234 0.728301C3.83262 0.728301 3.83262 3.59689 5.95289 3.59689C8.07316 3.59689 8.07316 0.728301 10.1934 0.728301C12.3137 0.728301 12.3137 3.59689 14.434 3.59689C16.5543 3.59689 16.5543 0.728301 18.6745 0.728301C20.7948 0.728301 20.7948 3.59689 22.9151 3.59689C25.0354 3.59689 25.0354 0.728301 27.1556 0.728301C29.2759 0.728301 29.2759 3.59689 31.3962 3.59689C33.5164 3.59689 33.5164 0.728301 35.6367 0.728301C37.757 0.728301 37.757 3.59689 39.8773 3.59689C41.9975 3.59689 41.9975 0.728301 44.1178 0.728301C46.2381 0.728301 46.2381 3.59689 48.3584 3.59689C50.4786 3.59689 50.4786 0.728301 52.5989 0.728301C54.7192 0.728301 54.7192 3.59689 56.8395 3.59689C58.9597 3.59689 58.9597 0.728301 61.08 0.728301C63.2003 0.728301 63.2003 3.59689 65.3206 3.59689C67.4408 3.59689 67.4408 0.728301 69.5611 0.728301C71.6814 0.728301 71.6814 3.59689 73.8017 3.59689C75.9219 3.59689 75.9219 0.728301 78.0422 0.728301C80.1625 0.728301 80.1625 3.59689 82.2827 3.59689C84.403 3.59689 84.403 0.728301 86.5233 0.728301C88.6436 0.728301 88.6436 3.59689 90.7638 3.59689C92.8841 3.59689 92.8841 0.728301 95.0044 0.728301C97.1247 0.728301 97.1247 3.59689 99.2449 3.59689C101.365 3.59689 101.365 0.728301 103.485 0.728301C105.606 0.728301 106.514 -0.345849 106.514 2.1626C106.514 4.67104 108.938 4.67105 108.938 7.17949C108.938 9.68794 106.514 9.68794 106.514 12.1964C106.514 14.7048 108.938 14.7048 108.938 17.2133C108.938 19.7217 106.514 19.7217 106.514 22.2302C106.514 24.7386 108.938 24.7386 108.938 27.2471C108.938 29.7555 106.514 29.7555 106.514 32.264C106.514 34.7724 108.938 34.7724 108.938 37.2808C108.938 39.7893 106.514 39.7893 106.514 42.2977C106.514 44.8062 108.938 44.8062 108.938 47.3146C108.938 49.8231 106.514 49.8231 106.514 52.3315C106.514 54.84 108.938 54.84 108.938 57.3484C108.938 59.8569 106.514 59.8569 106.514 62.3653C106.514 64.8738 108.938 64.8738 108.938 67.3822C108.938 69.8907 106.514 69.8907 106.514 72.3991C106.514 74.9076 108.938 74.9076 108.938 77.416C108.938 79.9244 106.514 79.9244 106.514 82.4329C106.514 84.9413 108.938 84.9413 108.938 87.4498C108.938 89.9582 106.514 89.9582 106.514 92.4667C106.514 94.9751 108.938 94.9751 108.938 97.4836C108.938 99.992 106.514 99.992 106.514 102.5C106.514 105.009 108.938 105.009 108.938 107.517C108.938 110.026 106.514 110.026 106.514 112.534C106.514 115.043 108.938 115.043 108.938 117.551C108.938 120.06 106.514 120.06 106.514 122.568C106.514 125.076 109.846 129.019 107.726 129.019C105.606 129.019 105.606 126.151 103.485 126.151C101.365 126.151 101.365 129.019 99.2449 129.019C97.1247 129.019 97.1247 126.151 95.0044 126.151C92.8841 126.151 92.8841 129.019 90.7638 129.019C88.6436 129.019 88.6436 126.151 86.5233 126.151C84.403 126.151 84.403 129.019 82.2827 129.019C80.1625 129.019 80.1625 126.151 78.0422 126.151C75.9219 126.151 75.9219 129.019 73.8017 129.019C71.6814 129.019 71.6814 126.151 69.5611 126.151C67.4408 126.151 67.4408 129.019 65.3206 129.019C63.2003 129.019 63.2003 126.151 61.08 126.151C58.9597 126.151 58.9597 129.019 56.8395 129.019C54.7192 129.019 54.7192 126.151 52.5989 126.151C50.4786 126.151 50.4786 129.019 48.3584 129.019C46.2381 129.019 46.2381 126.151 44.1178 126.151C41.9975 126.151 41.9975 129.019 39.8773 129.019C37.757 129.019 37.757 126.151 35.6367 126.151C33.5164 126.151 33.5164 129.019 31.3962 129.019C29.2759 129.019 29.2759 126.151 27.1556 126.151C25.0354 126.151 25.0354 129.019 22.9151 129.019C20.7948 129.019 20.7948 126.151 18.6745 126.151C16.5543 126.151 16.5543 129.019 14.434 129.019C12.3137 129.019 12.3137 126.151 10.1934 126.151C8.07316 126.151 8.07316 129.019 5.95289 129.019C3.83262 129.019 3.83262 126.151 1.71234 126.151" stroke="url(#paint0_linear_3613_2298)"/>
<g filter="url(#filter1_i_3613_2298)">
<rect x="10.5" y="119.5" width="109" height="88" rx="4" transform="rotate(-90 10.5 119.5)" fill="#EDECDD"/>
</g>
<rect x="10" y="120" width="110" height="89" rx="4.5" transform="rotate(-90 10 120)" stroke="url(#paint1_linear_3613_2298)"/>
<defs>
<filter id="filter0_i_3613_2298" x="0" y="0" width="109.438" height="130.519" filterUnits="userSpaceOnUse" color-interpolation-filters="sRGB">
<feFlood flood-opacity="0" result="BackgroundImageFix"/>
<feBlend mode="normal" in="SourceGraphic" in2="BackgroundImageFix" result="shape"/>
<feColorMatrix in="SourceAlpha" type="matrix" values="0 0 0 0 0 0 0 0 0 0 0 0 0 0 0 0 0 0 127 0" result="hardAlpha"/>
<feOffset dy="1"/>
<feGaussianBlur stdDeviation="2"/>
<feComposite in2="hardAlpha" operator="arithmetic" k2="-1" k3="1"/>
<feColorMatrix type="matrix" values="0 0 0 0 0 0 0 0 0 0 0 0 0 0 0 0 0 0 0.25 0"/>
<feBlend mode="normal" in2="shape" result="effect1_innerShadow_3613_2298"/>
</filter>
<filter id="filter1_i_3613_2298" x="9.5" y="9.49969" width="90" height="112" filterUnits="userSpaceOnUse" color-interpolation-filters="sRGB">
<feFlood flood-opacity="0" result="BackgroundImageFix"/>
<feBlend mode="normal" in="SourceGraphic" in2="BackgroundImageFix" result="shape"/>
<feColorMatrix in="SourceAlpha" type="matrix" values="0 0 0 0 0 0 0 0 0 0 0 0 0 0 0 0 0 0 127 0" result="hardAlpha"/>
<feOffset dy="1"/>
<feGaussianBlur stdDeviation="2"/>
<feComposite in2="hardAlpha" operator="arithmetic" k2="-1" k3="1"/>
<feColorMatrix type="matrix" values="0 0 0 0 0 0 0 0 0 0 0 0 0 0 0 0 0 0 0.25 0"/>
<feBlend mode="normal" in2="shape" result="effect1_innerShadow_3613_2298"/>
</filter>
<linearGradient id="paint0_linear_3613_2298" x1="0.5" y1="124.338" x2="136.474" y2="77.8058" gradientUnits="userSpaceOnUse">
<stop stop-color="#CCC6AF"/>
<stop offset="0.144052" stop-color="#D0B185"/>
<stop offset="0.36115" stop-color="#D8C99D"/>
<stop offset="0.494366" stop-color="#EBDFC1"/>
<stop offset="0.598666" stop-color="#D3CBBA"/>
<stop offset="0.828212" stop-color="#D7C49C"/>
<stop offset="1" stop-color="#9D886A"/>
</linearGradient>
<linearGradient id="paint1_linear_3613_2298" x1="14.4702" y1="119.5" x2="50.9252" y2="230.831" gradientUnits="userSpaceOnUse">
<stop stop-color="#CCC6AF"/>
<stop offset="0.144052" stop-color="#D0B185"/>
<stop offset="0.36115" stop-color="#D8C99D"/>
<stop offset="0.494366" stop-color="#EBDFC1"/>
<stop offset="0.598666" stop-color="#D3CBBA"/>
<stop offset="0.828212" stop-color="#D7C49C"/>
<stop offset="1" stop-color="#9D886A"/>
</linearGradient>
</defs>
</svg>
