<svg width="175" height="83" viewBox="0 0 175 83" fill="none" xmlns="http://www.w3.org/2000/svg">
<path fill-rule="evenodd" clip-rule="evenodd" d="M3.58341 3.5836C5.07659 2.09042 4.87898 1.19452 7.14878 1.19452C9.41859 1.19452 9.41859 4.03425 11.6884 4.03425C13.9582 4.03425 13.9582 1.19452 16.228 1.19452C18.4978 1.19452 18.4978 4.03425 20.7676 4.03425C23.0374 4.03425 23.0374 1.19452 25.3072 1.19452C27.577 1.19452 27.577 4.03425 29.8468 4.03425C32.1166 4.03425 32.1166 1.19452 34.3864 1.19452C36.6562 1.19452 36.6562 4.03425 38.926 4.03425C41.1958 4.03425 41.1958 1.19452 43.4656 1.19452C45.7354 1.19452 45.7354 4.03425 48.0052 4.03425C50.275 4.03425 50.275 1.19452 52.5448 1.19452C54.8146 1.19452 54.8146 4.03425 57.0844 4.03425C59.3542 4.03425 59.3542 1.19452 61.624 1.19452C63.8938 1.19452 63.8938 4.03425 66.1636 4.03425C68.4334 4.03425 68.4334 1.19452 70.7032 1.19452C72.9731 1.19452 72.9731 4.03425 75.2429 4.03425C77.5127 4.03425 77.5127 1.19452 79.7825 1.19452C82.0523 1.19452 82.0523 4.03425 84.3221 4.03425C86.5919 4.03425 86.5919 1.19452 88.8617 1.19452C91.1315 1.19452 91.1315 4.03425 93.4013 4.03425C95.6711 4.03425 95.6711 1.19452 97.9409 1.19452C100.211 1.19452 100.211 4.03425 102.48 4.03425C104.75 4.03425 104.75 1.19452 107.02 1.19452C109.29 1.19452 109.29 4.03425 111.56 4.03425C113.829 4.03425 113.829 1.19452 116.099 1.19452C118.369 1.19452 118.369 4.03425 120.639 4.03425C122.909 4.03425 122.909 1.19452 125.179 1.19452C127.448 1.19452 127.448 4.03425 129.718 4.03425C131.988 4.03425 131.988 1.19452 134.258 1.19452C136.528 1.19452 136.528 4.03425 138.797 4.03425C141.067 4.03425 141.067 1.19452 143.337 1.19452C145.607 1.19452 145.607 4.03425 147.877 4.03425C150.146 4.03425 150.146 1.19452 152.416 1.19452C154.686 1.19452 154.686 4.03425 156.956 4.03425C159.226 4.03425 159.226 1.19452 161.495 1.19452C163.765 1.19452 163.765 4.03425 166.035 4.03425C168.305 4.03425 168.305 1.19452 170.575 1.19452C174.403 1.19452 172.013 2.79891 172.013 5.07677C172.013 7.35463 173.805 7.62568 173.805 9.90354C173.805 12.1814 170.976 11.5841 170.976 13.862C170.976 16.1399 173.805 16.1399 173.805 18.4177C173.805 20.6956 170.976 20.6956 170.976 22.9734C170.976 25.2513 173.805 25.2513 173.805 27.5292C173.805 29.807 170.976 29.2098 170.976 31.4876C170.976 33.7655 173.805 33.7655 173.805 36.0433C173.805 38.3212 170.976 38.3212 170.976 40.5991C170.976 42.8769 173.805 42.8769 173.805 45.1548C173.805 46.8354 170.976 46.8354 170.976 49.1132C170.976 51.3911 173.805 51.3911 173.805 53.669C173.805 55.9468 170.976 55.9468 170.976 58.2247C170.976 60.5026 173.805 60.5026 173.805 62.7804C173.805 65.0583 170.976 65.0583 170.976 67.3361C170.976 69.614 173.805 69.614 173.805 71.8919C173.805 74.1697 170.976 74.1697 170.976 76.4476C170.976 78.7254 175.817 79.2848 172.312 82.1245C168.352 83.0205 169.505 79.5835 167.235 79.5835C164.965 79.5835 165.581 82.4232 163.311 82.4232C161.041 82.4232 161.041 79.5835 158.772 79.5835C156.502 79.5835 156.502 82.4232 154.232 82.4232C151.962 82.4232 151.962 79.5835 149.692 79.5835C147.423 79.5835 147.423 82.4232 145.153 82.4232C142.883 82.4232 142.883 79.5835 140.613 79.5835C138.343 79.5835 138.343 82.4232 136.074 82.4232C133.804 82.4232 133.804 79.5835 131.534 79.5835C129.264 79.5835 129.264 82.4232 126.994 82.4232C124.725 82.4232 124.725 79.5835 122.455 79.5835C120.185 79.5835 120.185 82.4232 117.915 82.4232C115.645 82.4232 115.645 79.5835 113.376 79.5835C111.106 79.5835 111.106 82.4232 108.836 82.4232C106.566 82.4232 106.566 79.5835 104.296 79.5835C102.027 79.5835 102.027 82.4232 99.7567 82.4232C97.4869 82.4232 97.4869 79.5835 95.2171 79.5835C92.9473 79.5835 92.9473 82.4232 90.6775 82.4232C88.4077 82.4232 88.4077 79.5835 86.1379 79.5835C83.8681 79.5835 83.8681 82.4232 81.5983 82.4232C79.3285 82.4232 79.3285 79.5835 77.0587 79.5835C74.7889 79.5835 74.7889 82.4232 72.5191 82.4232C70.2493 82.4232 70.2493 79.5835 67.9795 79.5835C65.7097 79.5835 65.7097 82.4232 63.4399 82.4232C61.1701 82.4232 61.1701 79.5835 58.9003 79.5835C56.6305 79.5835 56.6305 82.4232 54.3607 82.4232C52.0909 82.4232 52.0909 79.5835 49.8211 79.5835C47.5513 79.5835 47.5513 82.4232 45.2815 82.4232C43.0117 82.4232 43.0117 79.5835 40.7419 79.5835C38.4721 79.5835 38.4721 82.4232 36.2023 82.4232C33.9325 82.4232 33.9325 79.5835 31.6626 79.5835C29.3928 79.5835 29.3928 82.4232 27.123 82.4232C24.8532 82.4232 24.8532 79.5835 22.5834 79.5835C20.3136 79.5835 20.3136 82.4232 18.0438 82.4232C15.774 82.4232 15.774 79.5835 13.5042 79.5835C11.2344 79.5835 11.2344 82.4232 8.96463 82.4232C6.69482 82.4232 6.74912 80.6314 4.47932 80.6314C2.20952 80.6314 1.19434 80.5477 1.19434 78.2699C1.19434 75.992 4.02402 75.992 4.02402 73.7142C4.02402 71.4363 1.19434 71.4363 1.19434 69.1584C1.19434 66.8806 4.02402 66.8806 4.02402 64.6027C4.02402 62.3248 1.19434 62.3248 1.19434 60.047C1.19434 57.7691 4.02402 57.7691 4.02402 55.4913C4.02402 53.2134 1.19434 53.2134 1.19434 50.9355C1.19434 48.6577 4.02402 48.6577 4.02402 46.3798C4.02402 44.102 1.19434 44.6992 1.19434 42.4214C1.19434 40.1435 4.02402 40.1435 4.02402 37.8656C4.02402 35.5878 1.19434 35.5878 1.19434 33.3099C1.19434 31.0321 4.02402 31.0321 4.02402 28.7542C4.02402 26.4763 1.19434 27.0736 1.19434 24.7957C1.19434 22.5179 4.02402 22.5179 4.02402 20.24C4.02402 17.9622 1.19434 17.9621 1.19434 15.6843C1.19434 13.4064 4.02402 13.4064 4.02402 11.1286C4.02402 8.8507 1.19434 9.44797 1.19434 7.17011C1.19434 4.89225 2.09024 5.37541 3.58341 3.5836Z" fill="#EDECDD" stroke="url(#paint0_linear_4141_2652)"/>
<g filter="url(#filter0_i_4141_2652)">
<rect x="10" y="73" width="63" height="155" rx="4" transform="rotate(-90 10 73)" fill="#EDECDD"/>
</g>
<rect x="9.5" y="73.5" width="64" height="156" rx="4.5" transform="rotate(-90 9.5 73.5)" stroke="url(#paint1_linear_4141_2652)"/>
<defs>
<filter id="filter0_i_4141_2652" x="9" y="9" width="157" height="66" filterUnits="userSpaceOnUse" color-interpolation-filters="sRGB">
<feFlood flood-opacity="0" result="BackgroundImageFix"/>
<feBlend mode="normal" in="SourceGraphic" in2="BackgroundImageFix" result="shape"/>
<feColorMatrix in="SourceAlpha" type="matrix" values="0 0 0 0 0 0 0 0 0 0 0 0 0 0 0 0 0 0 127 0" result="hardAlpha"/>
<feOffset dy="1"/>
<feGaussianBlur stdDeviation="2"/>
<feComposite in2="hardAlpha" operator="arithmetic" k2="-1" k3="1"/>
<feColorMatrix type="matrix" values="0 0 0 0 0 0 0 0 0 0 0 0 0 0 0 0 0 0 0.25 0"/>
<feBlend mode="normal" in2="shape" result="effect1_innerShadow_4141_2652"/>
</filter>
<linearGradient id="paint0_linear_4141_2652" x1="7.48151" y1="0.597249" x2="29.3357" y2="112.627" gradientUnits="userSpaceOnUse">
<stop stop-color="#CCC6AF"/>
<stop offset="0.144052" stop-color="#D0B185"/>
<stop offset="0.36115" stop-color="#D8C99D"/>
<stop offset="0.494366" stop-color="#EBDFC1"/>
<stop offset="0.598666" stop-color="#D3CBBA"/>
<stop offset="0.828212" stop-color="#D7C49C"/>
<stop offset="1" stop-color="#9D886A"/>
</linearGradient>
<linearGradient id="paint1_linear_4141_2652" x1="12.2947" y1="73" x2="120.855" y2="181.792" gradientUnits="userSpaceOnUse">
<stop stop-color="#CCC6AF"/>
<stop offset="0.144052" stop-color="#D0B185"/>
<stop offset="0.36115" stop-color="#D8C99D"/>
<stop offset="0.494366" stop-color="#EBDFC1"/>
<stop offset="0.598666" stop-color="#D3CBBA"/>
<stop offset="0.828212" stop-color="#D7C49C"/>
<stop offset="1" stop-color="#9D886A"/>
</linearGradient>
</defs>
</svg>
