<svg width="175" height="115" viewBox="0 0 175 115" fill="none" xmlns="http://www.w3.org/2000/svg">
<g filter="url(#filter0_i_3924_2613)">
<path fill-rule="evenodd" clip-rule="evenodd" d="M24.5229 110.758C21.7746 110.758 21.7508 114.016 19.0028 113.976C16.2548 113.935 16.4321 110.756 13.6973 110.484C10.9625 110.211 10.0166 113.468 7.52802 112.3C5.03944 111.131 7.01738 108.793 5.75635 106.346C4.49533 103.899 1.62923 104.706 1.32797 101.968C1.02671 99.2309 4.31195 99.0181 4.26511 96.2644C4.21826 93.5107 1.00012 93.5381 1 90.784C0.99989 88.0299 4.23563 88.0298 4.23563 85.2757C4.23563 82.5215 1 82.5215 1 79.7674C1 77.0133 4.23563 77.0133 4.23563 74.2592C4.23563 71.505 1 71.505 1 68.7509C1 65.9968 4.23563 65.9968 4.23563 63.2426C4.23563 60.4885 1 60.4885 1 57.7344C1 54.9803 4.23563 54.9803 4.23563 52.2261C4.23563 49.472 1 49.472 1 46.7179C1 43.9638 4.23563 43.9638 4.23563 41.2096C4.23563 38.4555 1 38.4555 1 35.7014C1 32.9472 4.23563 32.9473 4.23563 30.1931C4.23563 27.439 1 27.439 1 24.6849C1 21.9307 4.21982 21.9531 4.25797 19.1992C4.29612 16.4454 1.01481 16.262 1.27771 13.5205C1.5406 10.779 4.45058 11.5098 5.58775 9.00248C6.72492 6.49518 4.61 4.24104 7.03599 2.9469C9.46198 1.65275 10.5248 4.87525 13.2554 4.56345C15.9861 4.25165 15.7819 1.0812 18.5298 1.03198C21.2777 0.982765 21.307 4.24269 24.0553 4.24249C26.8036 4.24229 26.8035 1 29.5518 1C32.3001 1 32.3001 4.24248 35.0484 4.24248C37.7967 4.24248 37.7967 1 40.545 1C43.2933 1 43.2933 4.24248 46.0416 4.24248C48.7899 4.24248 48.7899 1 51.5382 1C54.2865 1 54.2865 4.24248 57.0348 4.24248C59.7831 4.24248 59.7831 1 62.5314 1C65.2797 1 65.2797 4.24248 68.028 4.24248C70.7763 4.24248 70.7763 1 73.5246 1C76.2729 1 76.2729 4.24248 79.0212 4.24248C81.7695 4.24248 81.7695 1 84.5178 1C87.2661 1 87.2661 4.24248 90.0144 4.24248C92.7627 4.24248 92.7627 1 95.511 1C98.2593 1 98.2593 4.24248 101.008 4.24248C103.756 4.24248 103.756 1 106.504 1C109.253 1 109.253 4.24248 112.001 4.24248C114.749 4.24248 114.749 1 117.497 1C120.246 1 120.246 4.24248 122.994 4.24248C125.742 4.24248 125.742 1 128.491 1C131.239 1 131.239 4.24248 133.987 4.24248C136.736 4.24248 136.736 1 139.484 1C142.232 1 142.232 4.24248 144.98 4.24248C147.729 4.24248 147.729 1 150.477 1C153.225 1 153.202 4.22624 155.95 4.26644C158.698 4.30665 158.888 1.01746 161.622 1.2897C164.357 1.56194 163.61 4.46779 166.099 5.63654C168.587 6.80529 170.857 4.71892 172.118 7.166C173.38 9.61308 170.155 10.6495 170.456 13.387C170.757 16.1245 173.923 15.9267 173.97 18.6804C174.017 21.4341 170.764 21.4621 170.764 24.2162C170.764 26.9703 174 26.9703 174 29.7244C174 32.4785 170.764 32.4785 170.764 35.2326C170.764 37.9868 174 37.9868 174 40.7409C174 43.495 170.764 43.495 170.764 46.2491C170.764 49.0033 174 49.0033 174 51.7574C174 54.5115 170.764 54.5115 170.764 57.2657C170.764 60.0198 174 60.0198 174 62.7739C174 65.528 170.764 65.528 170.764 68.2822C170.764 71.0363 174 71.0363 174 73.7904C174 76.5445 170.764 76.5445 170.764 79.2987C170.764 82.0528 174 82.0528 174 84.8069C174 87.561 170.764 87.561 170.764 90.3152C170.764 93.0693 174.016 93.092 173.977 95.8458C173.939 98.5997 170.764 98.4279 170.502 101.169C170.239 103.911 173.495 104.832 172.358 107.339C171.221 109.847 168.87 107.897 166.444 109.191C164.018 110.485 164.841 113.346 162.111 113.658C159.38 113.97 159.16 110.677 156.412 110.726C153.664 110.775 153.693 114 150.945 114C148.197 114 148.197 110.758 145.448 110.758C142.7 110.758 142.7 114 139.952 114C137.203 114 137.203 110.758 134.455 110.758C131.707 110.758 131.707 114 128.958 114C126.21 114 126.21 110.758 123.462 110.758C120.713 110.758 120.713 114 117.965 114C115.217 114 115.217 110.758 112.469 110.758C109.72 110.758 109.72 114 106.972 114C104.224 114 104.224 110.758 101.475 110.758C98.7271 110.758 98.7271 114 95.9788 114C93.2305 114 93.2305 110.758 90.4821 110.758C87.7338 110.758 87.7339 114 84.9855 114C82.2373 114 82.2372 110.758 79.4889 110.758C76.7406 110.758 76.7406 114 73.9923 114C71.244 114 71.244 110.758 68.4957 110.758C65.7474 110.758 65.7474 114 62.9991 114C60.2508 114 60.2508 110.758 57.5025 110.758C54.7542 110.758 54.7542 114 52.0059 114C49.2576 114 49.2576 110.758 46.5093 110.758C43.761 110.758 43.761 114 41.0127 114C38.2644 114 38.2644 110.758 35.5161 110.758C32.7678 110.758 32.7678 114 30.0195 114C27.2712 114 27.2712 110.758 24.5229 110.758Z" fill="#EDECDD"/>
</g>
<path fill-rule="evenodd" clip-rule="evenodd" d="M24.5229 110.758C21.7746 110.758 21.7508 114.016 19.0028 113.976C16.2548 113.935 16.4321 110.756 13.6973 110.484C10.9625 110.211 10.0166 113.468 7.52802 112.3C5.03944 111.131 7.01738 108.793 5.75635 106.346C4.49533 103.899 1.62923 104.706 1.32797 101.968C1.02671 99.2309 4.31195 99.0181 4.26511 96.2644C4.21826 93.5107 1.00012 93.5381 1 90.784C0.99989 88.0299 4.23563 88.0298 4.23563 85.2757C4.23563 82.5215 1 82.5215 1 79.7674C1 77.0133 4.23563 77.0133 4.23563 74.2592C4.23563 71.505 1 71.505 1 68.7509C1 65.9968 4.23563 65.9968 4.23563 63.2426C4.23563 60.4885 1 60.4885 1 57.7344C1 54.9803 4.23563 54.9803 4.23563 52.2261C4.23563 49.472 1 49.472 1 46.7179C1 43.9638 4.23563 43.9638 4.23563 41.2096C4.23563 38.4555 1 38.4555 1 35.7014C1 32.9472 4.23563 32.9473 4.23563 30.1931C4.23563 27.439 1 27.439 1 24.6849C1 21.9307 4.21982 21.9531 4.25797 19.1992C4.29612 16.4454 1.01481 16.262 1.27771 13.5205C1.5406 10.779 4.45058 11.5098 5.58775 9.00248C6.72492 6.49518 4.61 4.24104 7.03599 2.9469C9.46198 1.65275 10.5248 4.87525 13.2554 4.56345C15.9861 4.25165 15.7819 1.0812 18.5298 1.03198C21.2777 0.982765 21.307 4.24269 24.0553 4.24249C26.8036 4.24229 26.8035 1 29.5518 1C32.3001 1 32.3001 4.24248 35.0484 4.24248C37.7967 4.24248 37.7967 1 40.545 1C43.2933 1 43.2933 4.24248 46.0416 4.24248C48.7899 4.24248 48.7899 1 51.5382 1C54.2865 1 54.2865 4.24248 57.0348 4.24248C59.7831 4.24248 59.7831 1 62.5314 1C65.2797 1 65.2797 4.24248 68.028 4.24248C70.7763 4.24248 70.7763 1 73.5246 1C76.2729 1 76.2729 4.24248 79.0212 4.24248C81.7695 4.24248 81.7695 1 84.5178 1C87.2661 1 87.2661 4.24248 90.0144 4.24248C92.7627 4.24248 92.7627 1 95.511 1C98.2593 1 98.2593 4.24248 101.008 4.24248C103.756 4.24248 103.756 1 106.504 1C109.253 1 109.253 4.24248 112.001 4.24248C114.749 4.24248 114.749 1 117.497 1C120.246 1 120.246 4.24248 122.994 4.24248C125.742 4.24248 125.742 1 128.491 1C131.239 1 131.239 4.24248 133.987 4.24248C136.736 4.24248 136.736 1 139.484 1C142.232 1 142.232 4.24248 144.98 4.24248C147.729 4.24248 147.729 1 150.477 1C153.225 1 153.202 4.22624 155.95 4.26644C158.698 4.30665 158.888 1.01746 161.622 1.2897C164.357 1.56194 163.61 4.46779 166.099 5.63654C168.587 6.80529 170.857 4.71892 172.118 7.166C173.38 9.61308 170.155 10.6495 170.456 13.387C170.757 16.1245 173.923 15.9267 173.97 18.6804C174.017 21.4341 170.764 21.4621 170.764 24.2162C170.764 26.9703 174 26.9703 174 29.7244C174 32.4785 170.764 32.4785 170.764 35.2326C170.764 37.9868 174 37.9868 174 40.7409C174 43.495 170.764 43.495 170.764 46.2491C170.764 49.0033 174 49.0033 174 51.7574C174 54.5115 170.764 54.5115 170.764 57.2657C170.764 60.0198 174 60.0198 174 62.7739C174 65.528 170.764 65.528 170.764 68.2822C170.764 71.0363 174 71.0363 174 73.7904C174 76.5445 170.764 76.5445 170.764 79.2987C170.764 82.0528 174 82.0528 174 84.8069C174 87.561 170.764 87.561 170.764 90.3152C170.764 93.0693 174.016 93.092 173.977 95.8458C173.939 98.5997 170.764 98.4279 170.502 101.169C170.239 103.911 173.495 104.832 172.358 107.339C171.221 109.847 168.87 107.897 166.444 109.191C164.018 110.485 164.841 113.346 162.111 113.658C159.38 113.97 159.16 110.677 156.412 110.726C153.664 110.775 153.693 114 150.945 114C148.197 114 148.197 110.758 145.448 110.758C142.7 110.758 142.7 114 139.952 114C137.203 114 137.203 110.758 134.455 110.758C131.707 110.758 131.707 114 128.958 114C126.21 114 126.21 110.758 123.462 110.758C120.713 110.758 120.713 114 117.965 114C115.217 114 115.217 110.758 112.469 110.758C109.72 110.758 109.72 114 106.972 114C104.224 114 104.224 110.758 101.475 110.758C98.7271 110.758 98.7271 114 95.9788 114C93.2305 114 93.2305 110.758 90.4821 110.758C87.7338 110.758 87.7339 114 84.9855 114C82.2373 114 82.2372 110.758 79.4889 110.758C76.7406 110.758 76.7406 114 73.9923 114C71.244 114 71.244 110.758 68.4957 110.758C65.7474 110.758 65.7474 114 62.9991 114C60.2508 114 60.2508 110.758 57.5025 110.758C54.7542 110.758 54.7542 114 52.0059 114C49.2576 114 49.2576 110.758 46.5093 110.758C43.761 110.758 43.761 114 41.0127 114C38.2644 114 38.2644 110.758 35.5161 110.758C32.7678 110.758 32.7678 114 30.0195 114C27.2712 114 27.2712 110.758 24.5229 110.758Z" stroke="url(#paint0_linear_3924_2613)"/>
<g filter="url(#filter1_i_3924_2613)">
<rect x="12" y="103" width="91" height="151" rx="4" transform="rotate(-90 12 103)" fill="#EDECDD"/>
</g>
<rect x="11.5" y="103.5" width="92" height="152" rx="4.5" transform="rotate(-90 11.5 103.5)" stroke="url(#paint1_linear_3924_2613)"/>
<defs>
<filter id="filter0_i_3924_2613" x="0.5" y="0.5" width="174" height="115" filterUnits="userSpaceOnUse" color-interpolation-filters="sRGB">
<feFlood flood-opacity="0" result="BackgroundImageFix"/>
<feBlend mode="normal" in="SourceGraphic" in2="BackgroundImageFix" result="shape"/>
<feColorMatrix in="SourceAlpha" type="matrix" values="0 0 0 0 0 0 0 0 0 0 0 0 0 0 0 0 0 0 127 0" result="hardAlpha"/>
<feOffset dy="1"/>
<feGaussianBlur stdDeviation="2"/>
<feComposite in2="hardAlpha" operator="arithmetic" k2="-1" k3="1"/>
<feColorMatrix type="matrix" values="0 0 0 0 0 0 0 0 0 0 0 0 0 0 0 0 0 0 0.25 0"/>
<feBlend mode="normal" in2="shape" result="effect1_innerShadow_3924_2613"/>
</filter>
<filter id="filter1_i_3924_2613" x="11" y="11" width="153" height="94" filterUnits="userSpaceOnUse" color-interpolation-filters="sRGB">
<feFlood flood-opacity="0" result="BackgroundImageFix"/>
<feBlend mode="normal" in="SourceGraphic" in2="BackgroundImageFix" result="shape"/>
<feColorMatrix in="SourceAlpha" type="matrix" values="0 0 0 0 0 0 0 0 0 0 0 0 0 0 0 0 0 0 127 0" result="hardAlpha"/>
<feOffset dy="1"/>
<feGaussianBlur stdDeviation="2"/>
<feComposite in2="hardAlpha" operator="arithmetic" k2="-1" k3="1"/>
<feColorMatrix type="matrix" values="0 0 0 0 0 0 0 0 0 0 0 0 0 0 0 0 0 0 0.25 0"/>
<feBlend mode="normal" in2="shape" result="effect1_innerShadow_3924_2613"/>
</filter>
<linearGradient id="paint0_linear_3924_2613" x1="1" y1="109.884" x2="175.899" y2="1.28194" gradientUnits="userSpaceOnUse">
<stop stop-color="#CCC6AF"/>
<stop offset="0.144052" stop-color="#D0B185"/>
<stop offset="0.36115" stop-color="#D8C99D"/>
<stop offset="0.494366" stop-color="#EBDFC1"/>
<stop offset="0.598666" stop-color="#D3CBBA"/>
<stop offset="0.828212" stop-color="#D7C49C"/>
<stop offset="1" stop-color="#9D886A"/>
</linearGradient>
<linearGradient id="paint1_linear_3924_2613" x1="15.3146" y1="103" x2="113.29" y2="248.58" gradientUnits="userSpaceOnUse">
<stop stop-color="#CCC6AF"/>
<stop offset="0.144052" stop-color="#D0B185"/>
<stop offset="0.36115" stop-color="#D8C99D"/>
<stop offset="0.494366" stop-color="#EBDFC1"/>
<stop offset="0.598666" stop-color="#D3CBBA"/>
<stop offset="0.828212" stop-color="#D7C49C"/>
<stop offset="1" stop-color="#9D886A"/>
</linearGradient>
</defs>
</svg>
