<svg width="174" height="114" viewBox="0 0 174 114" fill="none" xmlns="http://www.w3.org/2000/svg">
<g filter="url(#filter0_i_3613_2294)">
<path fill-rule="evenodd" clip-rule="evenodd" d="M24.0229 110.258C21.2746 110.258 21.2508 113.516 18.5028 113.476C15.7548 113.435 15.9321 110.256 13.1973 109.984C10.4625 109.711 9.5166 112.968 7.02802 111.8C4.53944 110.631 6.51738 108.293 5.25635 105.846C3.99533 103.399 1.12923 104.206 0.827974 101.468C0.526713 98.7309 3.81195 98.5181 3.76511 95.7644C3.71826 93.0107 0.50012 93.0381 0.500005 90.284C0.49989 87.5299 3.73563 87.5298 3.73563 84.7757C3.73563 82.0215 0.5 82.0215 0.5 79.2674C0.5 76.5133 3.73563 76.5133 3.73563 73.7592C3.73563 71.005 0.5 71.005 0.5 68.2509C0.5 65.4968 3.73563 65.4968 3.73563 62.7426C3.73563 59.9885 0.5 59.9885 0.5 57.2344C0.5 54.4803 3.73563 54.4803 3.73563 51.7261C3.73563 48.972 0.5 48.972 0.5 46.2179C0.5 43.4638 3.73563 43.4638 3.73563 40.7096C3.73563 37.9555 0.5 37.9555 0.5 35.2014C0.5 32.4472 3.73563 32.4473 3.73563 29.6931C3.73563 26.939 0.5 26.939 0.5 24.1849C0.5 21.4307 3.71982 21.4531 3.75797 18.6992C3.79612 15.9454 0.514811 15.762 0.777706 13.0205C1.0406 10.279 3.95058 11.0098 5.08775 8.50248C6.22492 5.99518 4.11 3.74104 6.53599 2.4469C8.96198 1.15275 10.0248 4.37525 12.7554 4.06345C15.4861 3.75165 15.2819 0.5812 18.0298 0.531982C20.7777 0.482765 20.807 3.74269 23.5553 3.74249C26.3036 3.74229 26.3035 0.5 29.0518 0.5C31.8001 0.5 31.8001 3.74248 34.5484 3.74248C37.2967 3.74248 37.2967 0.5 40.045 0.5C42.7933 0.5 42.7933 3.74248 45.5416 3.74248C48.2899 3.74248 48.2899 0.5 51.0382 0.5C53.7865 0.5 53.7865 3.74248 56.5348 3.74248C59.2831 3.74248 59.2831 0.5 62.0314 0.5C64.7797 0.5 64.7797 3.74248 67.528 3.74248C70.2763 3.74248 70.2763 0.5 73.0246 0.5C75.7729 0.5 75.7729 3.74248 78.5212 3.74248C81.2695 3.74248 81.2695 0.5 84.0178 0.5C86.7661 0.5 86.7661 3.74248 89.5144 3.74248C92.2627 3.74248 92.2627 0.5 95.011 0.5C97.7593 0.5 97.7593 3.74248 100.508 3.74248C103.256 3.74248 103.256 0.5 106.004 0.5C108.753 0.5 108.753 3.74248 111.501 3.74248C114.249 3.74248 114.249 0.5 116.997 0.5C119.746 0.5 119.746 3.74248 122.494 3.74248C125.242 3.74248 125.242 0.5 127.991 0.5C130.739 0.5 130.739 3.74248 133.487 3.74248C136.236 3.74248 136.236 0.5 138.984 0.5C141.732 0.5 141.732 3.74248 144.48 3.74248C147.229 3.74248 147.229 0.5 149.977 0.5C152.725 0.5 152.702 3.72624 155.45 3.76644C158.198 3.80665 158.388 0.517456 161.122 0.789696C163.857 1.06194 163.11 3.96779 165.599 5.13654C168.087 6.30529 170.357 4.21892 171.618 6.666C172.88 9.11308 169.655 10.1495 169.956 12.887C170.257 15.6245 173.423 15.4267 173.47 18.1804C173.517 20.9341 170.264 20.9621 170.264 23.7162C170.264 26.4703 173.5 26.4703 173.5 29.2244C173.5 31.9785 170.264 31.9785 170.264 34.7326C170.264 37.4868 173.5 37.4868 173.5 40.2409C173.5 42.995 170.264 42.995 170.264 45.7491C170.264 48.5033 173.5 48.5033 173.5 51.2574C173.5 54.0115 170.264 54.0115 170.264 56.7657C170.264 59.5198 173.5 59.5198 173.5 62.2739C173.5 65.028 170.264 65.028 170.264 67.7822C170.264 70.5363 173.5 70.5363 173.5 73.2904C173.5 76.0445 170.264 76.0445 170.264 78.7987C170.264 81.5528 173.5 81.5528 173.5 84.3069C173.5 87.061 170.264 87.061 170.264 89.8152C170.264 92.5693 173.516 92.592 173.477 95.3458C173.439 98.0997 170.264 97.9279 170.002 100.669C169.739 103.411 172.995 104.332 171.858 106.839C170.721 109.347 168.37 107.397 165.944 108.691C163.518 109.985 164.341 112.846 161.611 113.158C158.88 113.47 158.66 110.177 155.912 110.226C153.164 110.275 153.193 113.5 150.445 113.5C147.697 113.5 147.697 110.258 144.948 110.258C142.2 110.258 142.2 113.5 139.452 113.5C136.703 113.5 136.703 110.258 133.955 110.258C131.207 110.258 131.207 113.5 128.458 113.5C125.71 113.5 125.71 110.258 122.962 110.258C120.213 110.258 120.213 113.5 117.465 113.5C114.717 113.5 114.717 110.258 111.969 110.258C109.22 110.258 109.22 113.5 106.472 113.5C103.724 113.5 103.724 110.258 100.975 110.258C98.2271 110.258 98.2271 113.5 95.4788 113.5C92.7305 113.5 92.7305 110.258 89.9821 110.258C87.2338 110.258 87.2339 113.5 84.4855 113.5C81.7373 113.5 81.7372 110.258 78.9889 110.258C76.2406 110.258 76.2406 113.5 73.4923 113.5C70.744 113.5 70.744 110.258 67.9957 110.258C65.2474 110.258 65.2474 113.5 62.4991 113.5C59.7508 113.5 59.7508 110.258 57.0025 110.258C54.2542 110.258 54.2542 113.5 51.5059 113.5C48.7576 113.5 48.7576 110.258 46.0093 110.258C43.261 110.258 43.261 113.5 40.5127 113.5C37.7644 113.5 37.7644 110.258 35.0161 110.258C32.2678 110.258 32.2678 113.5 29.5195 113.5C26.7712 113.5 26.7712 110.258 24.0229 110.258Z" fill="#EDECDD"/>
</g>
<path fill-rule="evenodd" clip-rule="evenodd" d="M24.0229 110.258C21.2746 110.258 21.2508 113.516 18.5028 113.476C15.7548 113.435 15.9321 110.256 13.1973 109.984C10.4625 109.711 9.5166 112.968 7.02802 111.8C4.53944 110.631 6.51738 108.293 5.25635 105.846C3.99533 103.399 1.12923 104.206 0.827974 101.468C0.526713 98.7309 3.81195 98.5181 3.76511 95.7644C3.71826 93.0107 0.50012 93.0381 0.500005 90.284C0.49989 87.5299 3.73563 87.5298 3.73563 84.7757C3.73563 82.0215 0.5 82.0215 0.5 79.2674C0.5 76.5133 3.73563 76.5133 3.73563 73.7592C3.73563 71.005 0.5 71.005 0.5 68.2509C0.5 65.4968 3.73563 65.4968 3.73563 62.7426C3.73563 59.9885 0.5 59.9885 0.5 57.2344C0.5 54.4803 3.73563 54.4803 3.73563 51.7261C3.73563 48.972 0.5 48.972 0.5 46.2179C0.5 43.4638 3.73563 43.4638 3.73563 40.7096C3.73563 37.9555 0.5 37.9555 0.5 35.2014C0.5 32.4472 3.73563 32.4473 3.73563 29.6931C3.73563 26.939 0.5 26.939 0.5 24.1849C0.5 21.4307 3.71982 21.4531 3.75797 18.6992C3.79612 15.9454 0.514811 15.762 0.777706 13.0205C1.0406 10.279 3.95058 11.0098 5.08775 8.50248C6.22492 5.99518 4.11 3.74104 6.53599 2.4469C8.96198 1.15275 10.0248 4.37525 12.7554 4.06345C15.4861 3.75165 15.2819 0.5812 18.0298 0.531982C20.7777 0.482765 20.807 3.74269 23.5553 3.74249C26.3036 3.74229 26.3035 0.5 29.0518 0.5C31.8001 0.5 31.8001 3.74248 34.5484 3.74248C37.2967 3.74248 37.2967 0.5 40.045 0.5C42.7933 0.5 42.7933 3.74248 45.5416 3.74248C48.2899 3.74248 48.2899 0.5 51.0382 0.5C53.7865 0.5 53.7865 3.74248 56.5348 3.74248C59.2831 3.74248 59.2831 0.5 62.0314 0.5C64.7797 0.5 64.7797 3.74248 67.528 3.74248C70.2763 3.74248 70.2763 0.5 73.0246 0.5C75.7729 0.5 75.7729 3.74248 78.5212 3.74248C81.2695 3.74248 81.2695 0.5 84.0178 0.5C86.7661 0.5 86.7661 3.74248 89.5144 3.74248C92.2627 3.74248 92.2627 0.5 95.011 0.5C97.7593 0.5 97.7593 3.74248 100.508 3.74248C103.256 3.74248 103.256 0.5 106.004 0.5C108.753 0.5 108.753 3.74248 111.501 3.74248C114.249 3.74248 114.249 0.5 116.997 0.5C119.746 0.5 119.746 3.74248 122.494 3.74248C125.242 3.74248 125.242 0.5 127.991 0.5C130.739 0.5 130.739 3.74248 133.487 3.74248C136.236 3.74248 136.236 0.5 138.984 0.5C141.732 0.5 141.732 3.74248 144.48 3.74248C147.229 3.74248 147.229 0.5 149.977 0.5C152.725 0.5 152.702 3.72624 155.45 3.76644C158.198 3.80665 158.388 0.517456 161.122 0.789696C163.857 1.06194 163.11 3.96779 165.599 5.13654C168.087 6.30529 170.357 4.21892 171.618 6.666C172.88 9.11308 169.655 10.1495 169.956 12.887C170.257 15.6245 173.423 15.4267 173.47 18.1804C173.517 20.9341 170.264 20.9621 170.264 23.7162C170.264 26.4703 173.5 26.4703 173.5 29.2244C173.5 31.9785 170.264 31.9785 170.264 34.7326C170.264 37.4868 173.5 37.4868 173.5 40.2409C173.5 42.995 170.264 42.995 170.264 45.7491C170.264 48.5033 173.5 48.5033 173.5 51.2574C173.5 54.0115 170.264 54.0115 170.264 56.7657C170.264 59.5198 173.5 59.5198 173.5 62.2739C173.5 65.028 170.264 65.028 170.264 67.7822C170.264 70.5363 173.5 70.5363 173.5 73.2904C173.5 76.0445 170.264 76.0445 170.264 78.7987C170.264 81.5528 173.5 81.5528 173.5 84.3069C173.5 87.061 170.264 87.061 170.264 89.8152C170.264 92.5693 173.516 92.592 173.477 95.3458C173.439 98.0997 170.264 97.9279 170.002 100.669C169.739 103.411 172.995 104.332 171.858 106.839C170.721 109.347 168.37 107.397 165.944 108.691C163.518 109.985 164.341 112.846 161.611 113.158C158.88 113.47 158.66 110.177 155.912 110.226C153.164 110.275 153.193 113.5 150.445 113.5C147.697 113.5 147.697 110.258 144.948 110.258C142.2 110.258 142.2 113.5 139.452 113.5C136.703 113.5 136.703 110.258 133.955 110.258C131.207 110.258 131.207 113.5 128.458 113.5C125.71 113.5 125.71 110.258 122.962 110.258C120.213 110.258 120.213 113.5 117.465 113.5C114.717 113.5 114.717 110.258 111.969 110.258C109.22 110.258 109.22 113.5 106.472 113.5C103.724 113.5 103.724 110.258 100.975 110.258C98.2271 110.258 98.2271 113.5 95.4788 113.5C92.7305 113.5 92.7305 110.258 89.9821 110.258C87.2338 110.258 87.2339 113.5 84.4855 113.5C81.7373 113.5 81.7372 110.258 78.9889 110.258C76.2406 110.258 76.2406 113.5 73.4923 113.5C70.744 113.5 70.744 110.258 67.9957 110.258C65.2474 110.258 65.2474 113.5 62.4991 113.5C59.7508 113.5 59.7508 110.258 57.0025 110.258C54.2542 110.258 54.2542 113.5 51.5059 113.5C48.7576 113.5 48.7576 110.258 46.0093 110.258C43.261 110.258 43.261 113.5 40.5127 113.5C37.7644 113.5 37.7644 110.258 35.0161 110.258C32.2678 110.258 32.2678 113.5 29.5195 113.5C26.7712 113.5 26.7712 110.258 24.0229 110.258Z" stroke="url(#paint0_linear_3613_2294)"/>
<g filter="url(#filter1_i_3613_2294)">
<rect x="11.5" y="102.5" width="91" height="151" rx="4" transform="rotate(-90 11.5 102.5)" fill="#EDECDD"/>
</g>
<rect x="11" y="103" width="92" height="152" rx="4.5" transform="rotate(-90 11 103)" stroke="url(#paint1_linear_3613_2294)"/>
<defs>
<filter id="filter0_i_3613_2294" x="0" y="0" width="174" height="115" filterUnits="userSpaceOnUse" color-interpolation-filters="sRGB">
<feFlood flood-opacity="0" result="BackgroundImageFix"/>
<feBlend mode="normal" in="SourceGraphic" in2="BackgroundImageFix" result="shape"/>
<feColorMatrix in="SourceAlpha" type="matrix" values="0 0 0 0 0 0 0 0 0 0 0 0 0 0 0 0 0 0 127 0" result="hardAlpha"/>
<feOffset dy="1"/>
<feGaussianBlur stdDeviation="2"/>
<feComposite in2="hardAlpha" operator="arithmetic" k2="-1" k3="1"/>
<feColorMatrix type="matrix" values="0 0 0 0 0 0 0 0 0 0 0 0 0 0 0 0 0 0 0.25 0"/>
<feBlend mode="normal" in2="shape" result="effect1_innerShadow_3613_2294"/>
</filter>
<filter id="filter1_i_3613_2294" x="10.5" y="10.5" width="153" height="94" filterUnits="userSpaceOnUse" color-interpolation-filters="sRGB">
<feFlood flood-opacity="0" result="BackgroundImageFix"/>
<feBlend mode="normal" in="SourceGraphic" in2="BackgroundImageFix" result="shape"/>
<feColorMatrix in="SourceAlpha" type="matrix" values="0 0 0 0 0 0 0 0 0 0 0 0 0 0 0 0 0 0 127 0" result="hardAlpha"/>
<feOffset dy="1"/>
<feGaussianBlur stdDeviation="2"/>
<feComposite in2="hardAlpha" operator="arithmetic" k2="-1" k3="1"/>
<feColorMatrix type="matrix" values="0 0 0 0 0 0 0 0 0 0 0 0 0 0 0 0 0 0 0.25 0"/>
<feBlend mode="normal" in2="shape" result="effect1_innerShadow_3613_2294"/>
</filter>
<linearGradient id="paint0_linear_3613_2294" x1="0.5" y1="109.384" x2="175.399" y2="0.781944" gradientUnits="userSpaceOnUse">
<stop stop-color="#CCC6AF"/>
<stop offset="0.144052" stop-color="#D0B185"/>
<stop offset="0.36115" stop-color="#D8C99D"/>
<stop offset="0.494366" stop-color="#EBDFC1"/>
<stop offset="0.598666" stop-color="#D3CBBA"/>
<stop offset="0.828212" stop-color="#D7C49C"/>
<stop offset="1" stop-color="#9D886A"/>
</linearGradient>
<linearGradient id="paint1_linear_3613_2294" x1="14.8146" y1="102.5" x2="112.79" y2="248.08" gradientUnits="userSpaceOnUse">
<stop stop-color="#CCC6AF"/>
<stop offset="0.144052" stop-color="#D0B185"/>
<stop offset="0.36115" stop-color="#D8C99D"/>
<stop offset="0.494366" stop-color="#EBDFC1"/>
<stop offset="0.598666" stop-color="#D3CBBA"/>
<stop offset="0.828212" stop-color="#D7C49C"/>
<stop offset="1" stop-color="#9D886A"/>
</linearGradient>
</defs>
</svg>
