<svg width="175" height="114" viewBox="0 0 175 114" fill="none" xmlns="http://www.w3.org/2000/svg">
<g filter="url(#filter0_i_3613_2294)">
<path fill-rule="evenodd" clip-rule="evenodd" d="M24.0773 110.077C21.3226 110.077 21.2988 113.33 18.5444 113.29C15.79 113.25 15.9678 110.076 13.2267 109.804C10.4855 109.532 9.53745 112.784 7.04312 111.617C4.54878 110.45 6.53129 108.116 5.26735 105.673C4.00341 103.23 1.13069 104.036 0.828732 101.303C0.526775 98.5696 3.81961 98.3572 3.77266 95.608C3.7257 92.8588 0.500121 92.8862 0.500005 90.1366C0.499889 87.3869 3.74311 87.3869 3.74311 84.6373C3.74311 81.8877 0.5 81.8877 0.5 79.1381C0.5 76.3885 3.74311 76.3885 3.74311 73.6389C3.74311 70.8893 0.5 70.8893 0.5 68.1396C0.5 65.39 3.74311 65.39 3.74311 62.6404C3.74311 59.8908 0.5 59.8908 0.5 57.1412C0.5 54.3916 3.74311 54.3916 3.74311 51.642C3.74311 48.8924 0.5 48.8924 0.5 46.1428C0.5 43.3932 3.74311 43.3932 3.74311 40.6436C3.74311 37.894 0.5 37.894 0.5 35.1444C0.5 32.3948 3.74311 32.3948 3.74311 29.6452C3.74311 26.8956 0.5 26.8956 0.5 24.146C0.5 21.3964 3.72727 21.4187 3.7655 18.6693C3.80374 15.92 0.514845 15.7369 0.778348 12.9999C1.04185 10.2629 3.95856 10.9925 5.09836 8.48933C6.23815 5.98615 4.11835 3.73572 6.54994 2.4437C8.98154 1.15167 10.0468 4.36888 12.7838 4.05759C15.5207 3.74631 15.3161 0.581062 18.0703 0.531921C20.8245 0.482788 20.8539 3.73736 23.6086 3.73716C26.3632 3.73696 26.3631 0.499992 29.1178 0.499992C31.8724 0.499992 31.8724 3.73715 34.6271 3.73715C37.3817 3.73715 37.3817 0.499992 40.1364 0.499992C42.891 0.499992 42.891 3.73715 45.6457 3.73715C48.4004 3.73715 48.4004 0.499992 51.155 0.499992C53.9097 0.499992 53.9097 3.73715 56.6643 3.73715C59.419 3.73715 59.419 0.499992 62.1736 0.499992C64.9283 0.499992 64.9283 3.73715 67.683 3.73715C70.4376 3.73715 70.4376 0.499992 73.1923 0.499992C75.9469 0.499992 75.9469 3.73715 78.7016 3.73715C81.4562 3.73715 81.4562 0.499992 84.2109 0.499992C86.9655 0.499992 86.9656 3.73715 89.7202 3.73715C92.4749 3.73715 92.4749 0.499992 95.2295 0.499992C97.9842 0.499992 97.9842 3.73715 100.739 3.73715C103.493 3.73715 103.493 0.499992 106.248 0.499992C109.003 0.499992 109.003 3.73715 111.757 3.73715C114.512 3.73715 114.512 0.499992 117.267 0.499992C120.021 0.499992 120.021 3.73715 122.776 3.73715C125.531 3.73715 125.531 0.499992 128.285 0.499992C131.04 0.499992 131.04 3.73715 133.795 3.73715C136.549 3.73715 136.549 0.499992 139.304 0.499992C142.059 0.499992 142.059 3.73715 144.813 3.73715C147.568 3.73715 147.568 0.499992 150.323 0.499992C153.077 0.499992 153.054 3.72094 155.808 3.76108C158.563 3.80121 158.753 0.517426 161.494 0.789215C164.235 1.06101 163.486 3.96209 165.981 5.12892C168.475 6.29575 170.75 4.21281 172.014 6.65587C173.278 9.09894 170.046 10.1336 170.348 12.8667C170.65 15.5997 173.823 15.4021 173.87 18.1514C173.917 20.9006 170.657 20.9285 170.657 23.6781C170.657 26.4277 173.9 26.4276 173.9 29.1772C173.9 31.9268 170.657 31.9268 170.657 34.6764C170.657 37.426 173.9 37.426 173.9 40.1756C173.9 42.9252 170.657 42.9252 170.657 45.6748C170.657 48.4244 173.9 48.4244 173.9 51.1741C173.9 53.9237 170.657 53.9237 170.657 56.6733C170.657 59.4229 173.9 59.4229 173.9 62.1725C173.9 64.9221 170.657 64.9221 170.657 67.6717C170.657 70.4213 173.9 70.4213 173.9 73.1709C173.9 75.9205 170.657 75.9205 170.657 78.6701C170.657 81.4197 173.9 81.4197 173.9 84.1693C173.9 86.9189 170.657 86.9189 170.657 89.6685C170.657 92.4181 173.916 92.4408 173.877 95.1901C173.839 97.9394 170.657 97.7679 170.393 100.505C170.13 103.242 173.394 104.161 172.254 106.665C171.114 109.168 168.758 107.221 166.326 108.513C163.894 109.805 164.72 112.662 161.983 112.973C159.246 113.284 159.026 109.997 156.272 110.046C153.517 110.095 153.546 113.314 150.792 113.314C148.037 113.315 148.037 110.077 145.282 110.077C142.528 110.077 142.528 113.314 139.773 113.314C137.018 113.314 137.018 110.077 134.264 110.077C131.509 110.077 131.509 113.314 128.754 113.314C126 113.314 126 110.077 123.245 110.077C120.49 110.077 120.49 113.314 117.736 113.314C114.981 113.314 114.981 110.077 112.226 110.077C109.472 110.077 109.472 113.314 106.717 113.314C103.962 113.314 103.962 110.077 101.208 110.077C98.453 110.077 98.453 113.314 95.6984 113.314C92.9437 113.314 92.9437 110.077 90.189 110.077C87.4344 110.077 87.4344 113.314 84.6797 113.314C81.9251 113.314 81.9251 110.077 79.1704 110.077C76.4158 110.077 76.4158 113.314 73.6611 113.314C70.9064 113.314 70.9064 110.077 68.1518 110.077C65.3971 110.077 65.3971 113.314 62.6425 113.314C59.8878 113.314 59.8878 110.077 57.1332 110.077C54.3785 110.077 54.3785 113.314 51.6238 113.314C48.8692 113.314 48.8692 110.077 46.1145 110.077C43.3599 110.077 43.3599 113.314 40.6052 113.314C37.8506 113.314 37.8506 110.077 35.0959 110.077C32.3413 110.077 32.3413 113.314 29.5866 113.314C26.8319 113.314 26.8319 110.077 24.0773 110.077Z" fill="#EDECDD"/>
</g>
<path fill-rule="evenodd" clip-rule="evenodd" d="M24.0773 110.077C21.3226 110.077 21.2988 113.33 18.5444 113.29C15.79 113.25 15.9678 110.076 13.2267 109.804C10.4855 109.532 9.53745 112.784 7.04312 111.617C4.54878 110.45 6.53129 108.116 5.26735 105.673C4.00341 103.23 1.13069 104.036 0.828732 101.303C0.526775 98.5696 3.81961 98.3572 3.77266 95.608C3.7257 92.8588 0.500121 92.8862 0.500005 90.1366C0.499889 87.3869 3.74311 87.3869 3.74311 84.6373C3.74311 81.8877 0.5 81.8877 0.5 79.1381C0.5 76.3885 3.74311 76.3885 3.74311 73.6389C3.74311 70.8893 0.5 70.8893 0.5 68.1396C0.5 65.39 3.74311 65.39 3.74311 62.6404C3.74311 59.8908 0.5 59.8908 0.5 57.1412C0.5 54.3916 3.74311 54.3916 3.74311 51.642C3.74311 48.8924 0.5 48.8924 0.5 46.1428C0.5 43.3932 3.74311 43.3932 3.74311 40.6436C3.74311 37.894 0.5 37.894 0.5 35.1444C0.5 32.3948 3.74311 32.3948 3.74311 29.6452C3.74311 26.8956 0.5 26.8956 0.5 24.146C0.5 21.3964 3.72727 21.4187 3.7655 18.6693C3.80374 15.92 0.514845 15.7369 0.778348 12.9999C1.04185 10.2629 3.95856 10.9925 5.09836 8.48933C6.23815 5.98615 4.11835 3.73572 6.54994 2.4437C8.98154 1.15167 10.0468 4.36888 12.7838 4.05759C15.5207 3.74631 15.3161 0.581062 18.0703 0.531921C20.8245 0.482788 20.8539 3.73736 23.6086 3.73716C26.3632 3.73696 26.3631 0.499992 29.1178 0.499992C31.8724 0.499992 31.8724 3.73715 34.6271 3.73715C37.3817 3.73715 37.3817 0.499992 40.1364 0.499992C42.891 0.499992 42.891 3.73715 45.6457 3.73715C48.4004 3.73715 48.4004 0.499992 51.155 0.499992C53.9097 0.499992 53.9097 3.73715 56.6643 3.73715C59.419 3.73715 59.419 0.499992 62.1736 0.499992C64.9283 0.499992 64.9283 3.73715 67.683 3.73715C70.4376 3.73715 70.4376 0.499992 73.1923 0.499992C75.9469 0.499992 75.9469 3.73715 78.7016 3.73715C81.4562 3.73715 81.4562 0.499992 84.2109 0.499992C86.9655 0.499992 86.9656 3.73715 89.7202 3.73715C92.4749 3.73715 92.4749 0.499992 95.2295 0.499992C97.9842 0.499992 97.9842 3.73715 100.739 3.73715C103.493 3.73715 103.493 0.499992 106.248 0.499992C109.003 0.499992 109.003 3.73715 111.757 3.73715C114.512 3.73715 114.512 0.499992 117.267 0.499992C120.021 0.499992 120.021 3.73715 122.776 3.73715C125.531 3.73715 125.531 0.499992 128.285 0.499992C131.04 0.499992 131.04 3.73715 133.795 3.73715C136.549 3.73715 136.549 0.499992 139.304 0.499992C142.059 0.499992 142.059 3.73715 144.813 3.73715C147.568 3.73715 147.568 0.499992 150.323 0.499992C153.077 0.499992 153.054 3.72094 155.808 3.76108C158.563 3.80121 158.753 0.517426 161.494 0.789215C164.235 1.06101 163.486 3.96209 165.981 5.12892C168.475 6.29575 170.75 4.21281 172.014 6.65587C173.278 9.09894 170.046 10.1336 170.348 12.8667C170.65 15.5997 173.823 15.4021 173.87 18.1514C173.917 20.9006 170.657 20.9285 170.657 23.6781C170.657 26.4277 173.9 26.4276 173.9 29.1772C173.9 31.9268 170.657 31.9268 170.657 34.6764C170.657 37.426 173.9 37.426 173.9 40.1756C173.9 42.9252 170.657 42.9252 170.657 45.6748C170.657 48.4244 173.9 48.4244 173.9 51.1741C173.9 53.9237 170.657 53.9237 170.657 56.6733C170.657 59.4229 173.9 59.4229 173.9 62.1725C173.9 64.9221 170.657 64.9221 170.657 67.6717C170.657 70.4213 173.9 70.4213 173.9 73.1709C173.9 75.9205 170.657 75.9205 170.657 78.6701C170.657 81.4197 173.9 81.4197 173.9 84.1693C173.9 86.9189 170.657 86.9189 170.657 89.6685C170.657 92.4181 173.916 92.4408 173.877 95.1901C173.839 97.9394 170.657 97.7679 170.393 100.505C170.13 103.242 173.394 104.161 172.254 106.665C171.114 109.168 168.758 107.221 166.326 108.513C163.894 109.805 164.72 112.662 161.983 112.973C159.246 113.284 159.026 109.997 156.272 110.046C153.517 110.095 153.546 113.314 150.792 113.314C148.037 113.315 148.037 110.077 145.282 110.077C142.528 110.077 142.528 113.314 139.773 113.314C137.018 113.314 137.018 110.077 134.264 110.077C131.509 110.077 131.509 113.314 128.754 113.314C126 113.314 126 110.077 123.245 110.077C120.49 110.077 120.49 113.314 117.736 113.314C114.981 113.314 114.981 110.077 112.226 110.077C109.472 110.077 109.472 113.314 106.717 113.314C103.962 113.314 103.962 110.077 101.208 110.077C98.453 110.077 98.453 113.314 95.6984 113.314C92.9437 113.314 92.9437 110.077 90.189 110.077C87.4344 110.077 87.4344 113.314 84.6797 113.314C81.9251 113.314 81.9251 110.077 79.1704 110.077C76.4158 110.077 76.4158 113.314 73.6611 113.314C70.9064 113.314 70.9064 110.077 68.1518 110.077C65.3971 110.077 65.3971 113.314 62.6425 113.314C59.8878 113.314 59.8878 110.077 57.1332 110.077C54.3785 110.077 54.3785 113.314 51.6238 113.314C48.8692 113.314 48.8692 110.077 46.1145 110.077C43.3599 110.077 43.3599 113.314 40.6052 113.314C37.8506 113.314 37.8506 110.077 35.0959 110.077C32.3413 110.077 32.3413 113.314 29.5866 113.314C26.8319 113.314 26.8319 110.077 24.0773 110.077Z" stroke="url(#paint0_linear_3613_2294)"/>
<g filter="url(#filter1_i_3613_2294)">
<rect x="11.5" y="102.314" width="91" height="151" rx="4" transform="rotate(-90 11.5 102.314)" fill="#EDECDD"/>
</g>
<rect x="11" y="102.814" width="92" height="152" rx="4.5" transform="rotate(-90 11 102.814)" stroke="url(#paint1_linear_3613_2294)"/>
<defs>
<filter id="filter0_i_3613_2294" x="0" y="0" width="174.4" height="114.814" filterUnits="userSpaceOnUse" color-interpolation-filters="sRGB">
<feFlood flood-opacity="0" result="BackgroundImageFix"/>
<feBlend mode="normal" in="SourceGraphic" in2="BackgroundImageFix" result="shape"/>
<feColorMatrix in="SourceAlpha" type="matrix" values="0 0 0 0 0 0 0 0 0 0 0 0 0 0 0 0 0 0 127 0" result="hardAlpha"/>
<feOffset dy="1"/>
<feGaussianBlur stdDeviation="2"/>
<feComposite in2="hardAlpha" operator="arithmetic" k2="-1" k3="1"/>
<feColorMatrix type="matrix" values="0 0 0 0 0 0 0 0 0 0 0 0 0 0 0 0 0 0 0.25 0"/>
<feBlend mode="normal" in2="shape" result="effect1_innerShadow_3613_2294"/>
</filter>
<filter id="filter1_i_3613_2294" x="10.5" y="10.3145" width="153" height="94" filterUnits="userSpaceOnUse" color-interpolation-filters="sRGB">
<feFlood flood-opacity="0" result="BackgroundImageFix"/>
<feBlend mode="normal" in="SourceGraphic" in2="BackgroundImageFix" result="shape"/>
<feColorMatrix in="SourceAlpha" type="matrix" values="0 0 0 0 0 0 0 0 0 0 0 0 0 0 0 0 0 0 127 0" result="hardAlpha"/>
<feOffset dy="1"/>
<feGaussianBlur stdDeviation="2"/>
<feComposite in2="hardAlpha" operator="arithmetic" k2="-1" k3="1"/>
<feColorMatrix type="matrix" values="0 0 0 0 0 0 0 0 0 0 0 0 0 0 0 0 0 0 0.25 0"/>
<feBlend mode="normal" in2="shape" result="effect1_innerShadow_3613_2294"/>
</filter>
<linearGradient id="paint0_linear_3613_2294" x1="0.5" y1="109.205" x2="175.417" y2="0.161768" gradientUnits="userSpaceOnUse">
<stop stop-color="#CCC6AF"/>
<stop offset="0.144052" stop-color="#D0B185"/>
<stop offset="0.36115" stop-color="#D8C99D"/>
<stop offset="0.494366" stop-color="#EBDFC1"/>
<stop offset="0.598666" stop-color="#D3CBBA"/>
<stop offset="0.828212" stop-color="#D7C49C"/>
<stop offset="1" stop-color="#9D886A"/>
</linearGradient>
<linearGradient id="paint1_linear_3613_2294" x1="14.8146" y1="102.314" x2="112.79" y2="247.894" gradientUnits="userSpaceOnUse">
<stop stop-color="#CCC6AF"/>
<stop offset="0.144052" stop-color="#D0B185"/>
<stop offset="0.36115" stop-color="#D8C99D"/>
<stop offset="0.494366" stop-color="#EBDFC1"/>
<stop offset="0.598666" stop-color="#D3CBBA"/>
<stop offset="0.828212" stop-color="#D7C49C"/>
<stop offset="1" stop-color="#9D886A"/>
</linearGradient>
</defs>
</svg>
