<svg width="110" height="131" viewBox="0 0 110 131" fill="none" xmlns="http://www.w3.org/2000/svg">
<g filter="url(#filter0_i_3613_2298)">
<path fill-rule="evenodd" clip-rule="evenodd" d="M3 127.282C2 126 1 126.043 1 123.525C1 121.007 3.41488 121.007 3.41488 118.489C3.41488 115.971 1 115.971 1 113.453C1 110.936 3.41488 110.936 3.41488 108.418C3.41488 105.9 1 105.9 1 103.382C1 100.864 3.41488 100.864 3.41488 98.3465C3.41488 95.8286 1 95.8286 1 93.3108C1 90.793 3.41488 90.793 3.41488 88.2752C3.41488 85.7573 1 85.7573 1 83.2395C1 80.7217 3.41488 80.7217 3.41488 78.2039C3.41488 75.686 1 75.686 1 73.1682C1 70.6504 3.41488 70.6504 3.41488 68.1326C3.41488 65.6147 1 65.6147 1 63.0969C1 60.5791 3.41488 60.5791 3.41488 58.0613C3.41488 55.5434 1 55.5434 1 53.0256C1 50.5078 3.41488 50.5078 3.41488 47.99C3.41488 45.4721 1 45.4721 1 42.9543C1 40.4365 3.41488 40.4365 3.41488 37.9187C3.41488 35.4008 1 35.4008 1 32.883C1 30.3652 3.41488 30.3652 3.41488 27.8474C3.41488 25.3295 1 25.3295 1 22.8117C1 20.2939 3.41488 20.2939 3.41488 17.7761C3.41488 15.2582 1 15.2582 1 12.7404C1 10.2226 3.41488 10.2226 3.41488 7.70477C3.41488 5.18694 0.0957395 1.22946 2.20744 1.22946C4.31914 1.22946 4.31914 4.10878 6.43085 4.10878C8.54255 4.10878 8.54255 1.22946 10.6543 1.22946C12.766 1.22946 12.766 4.10878 14.8777 4.10878C16.9894 4.10878 16.9894 1.22946 19.1011 1.22946C21.2128 1.22946 21.2128 4.10878 23.3245 4.10878C25.4362 4.10878 25.4362 1.22946 27.5479 1.22946C29.6596 1.22946 29.6596 4.10878 31.7713 4.10878C33.883 4.10878 33.883 1.22946 35.9947 1.22946C38.1064 1.22946 38.1064 4.10878 40.2181 4.10878C42.3298 4.10878 42.3298 1.22946 44.4415 1.22946C46.5532 1.22946 46.5532 4.10878 48.6649 4.10878C50.7766 4.10878 50.7766 1.22946 52.8883 1.22946C55 1.22946 55 4.10878 57.1117 4.10878C59.2234 4.10878 59.2234 1.22946 61.3351 1.22946C63.4468 1.22946 63.4468 4.10878 65.5585 4.10878C67.6702 4.10878 67.6702 1.22946 69.7819 1.22946C71.8936 1.22946 71.8936 4.10878 74.0053 4.10878C76.117 4.10878 76.117 1.22946 78.2287 1.22946C80.3404 1.22946 80.3404 4.10878 82.4521 4.10878C84.5638 4.10878 84.5638 1.22946 86.6755 1.22946C88.7872 1.22946 88.7872 4.10878 90.8989 4.10878C93.0106 4.10878 93.0106 1.22946 95.1223 1.22946C97.234 1.22946 97.234 4.10878 99.3457 4.10878C101.457 4.10878 101.457 1.22946 103.569 1.22946C105.681 1.22946 106.585 0.151296 106.585 2.66912C106.585 5.18695 109 5.18694 109 7.70477C109 10.2226 106.585 10.2226 106.585 12.7404C106.585 15.2582 109 15.2582 109 17.7761C109 20.2939 106.585 20.2939 106.585 22.8117C106.585 25.3295 109 25.3295 109 27.8474C109 30.3652 106.585 30.3652 106.585 32.883C106.585 35.4008 109 35.4008 109 37.9187C109 40.4365 106.585 40.4365 106.585 42.9543C106.585 45.4721 109 45.4721 109 47.99C109 50.5078 106.585 50.5078 106.585 53.0256C106.585 55.5434 109 55.5434 109 58.0613C109 60.5791 106.585 60.5791 106.585 63.0969C106.585 65.6147 109 65.6147 109 68.1326C109 70.6504 106.585 70.6504 106.585 73.1682C106.585 75.686 109 75.686 109 78.2039C109 80.7217 106.585 80.7217 106.585 83.2395C106.585 85.7573 109 85.7573 109 88.2752C109 90.793 106.585 90.793 106.585 93.3108C106.585 95.8286 109 95.8286 109 98.3465C109 100.864 106.585 100.864 106.585 103.382C106.585 105.9 109 105.9 109 108.418C109 110.936 106.585 110.936 106.585 113.453C106.585 115.971 109 115.971 109 118.489C109 121.007 106.585 121.007 106.585 123.525C106.585 126.043 109.904 130 107.793 130C105.681 130 105.681 127.121 103.569 127.121C101.457 127.121 101.457 130 99.3457 130C97.234 130 97.234 127.121 95.1223 127.121C93.0106 127.121 93.0106 130 90.8989 130C88.7872 130 88.7872 127.121 86.6755 127.121C84.5638 127.121 84.5638 130 82.4521 130C80.3404 130 80.3404 127.121 78.2287 127.121C76.117 127.121 76.117 130 74.0053 130C71.8936 130 71.8936 127.121 69.7819 127.121C67.6702 127.121 67.6702 130 65.5585 130C63.4468 130 63.4468 127.121 61.3351 127.121C59.2234 127.121 59.2234 130 57.1117 130C55 130 55 127.121 52.8883 127.121C50.7766 127.121 50.7766 130 48.6649 130C46.5532 130 46.5532 127.121 44.4415 127.121C42.3298 127.121 42.3298 130 40.2181 130C38.1064 130 38.1064 127.121 35.9947 127.121C33.883 127.121 33.883 130 31.7713 130C29.6596 130 29.6596 127.121 27.5479 127.121C25.4362 127.121 25.4362 130 23.3245 130C21.2128 130 21.2128 127.121 19.1011 127.121C16.9894 127.121 16.9894 130 14.8777 130C12.766 130 12.766 127.121 10.6543 127.121C8.54255 127.121 8.54255 130 6.43085 130C4.31914 130 3.81178 128.323 3 127.282Z" fill="#EDECDD"/>
</g>
<path fill-rule="evenodd" clip-rule="evenodd" d="M3 127.282C2 126 1 126.043 1 123.525C1 121.007 3.41488 121.007 3.41488 118.489C3.41488 115.971 1 115.971 1 113.453C1 110.936 3.41488 110.936 3.41488 108.418C3.41488 105.9 1 105.9 1 103.382C1 100.864 3.41488 100.864 3.41488 98.3465C3.41488 95.8286 1 95.8286 1 93.3108C1 90.793 3.41488 90.793 3.41488 88.2752C3.41488 85.7573 1 85.7573 1 83.2395C1 80.7217 3.41488 80.7217 3.41488 78.2039C3.41488 75.686 1 75.686 1 73.1682C1 70.6504 3.41488 70.6504 3.41488 68.1326C3.41488 65.6147 1 65.6147 1 63.0969C1 60.5791 3.41488 60.5791 3.41488 58.0613C3.41488 55.5434 1 55.5434 1 53.0256C1 50.5078 3.41488 50.5078 3.41488 47.99C3.41488 45.4721 1 45.4721 1 42.9543C1 40.4365 3.41488 40.4365 3.41488 37.9187C3.41488 35.4008 1 35.4008 1 32.883C1 30.3652 3.41488 30.3652 3.41488 27.8474C3.41488 25.3295 1 25.3295 1 22.8117C1 20.2939 3.41488 20.2939 3.41488 17.7761C3.41488 15.2582 1 15.2582 1 12.7404C1 10.2226 3.41488 10.2226 3.41488 7.70477C3.41488 5.18694 0.0957395 1.22946 2.20744 1.22946C4.31914 1.22946 4.31914 4.10878 6.43085 4.10878C8.54255 4.10878 8.54255 1.22946 10.6543 1.22946C12.766 1.22946 12.766 4.10878 14.8777 4.10878C16.9894 4.10878 16.9894 1.22946 19.1011 1.22946C21.2128 1.22946 21.2128 4.10878 23.3245 4.10878C25.4362 4.10878 25.4362 1.22946 27.5479 1.22946C29.6596 1.22946 29.6596 4.10878 31.7713 4.10878C33.883 4.10878 33.883 1.22946 35.9947 1.22946C38.1064 1.22946 38.1064 4.10878 40.2181 4.10878C42.3298 4.10878 42.3298 1.22946 44.4415 1.22946C46.5532 1.22946 46.5532 4.10878 48.6649 4.10878C50.7766 4.10878 50.7766 1.22946 52.8883 1.22946C55 1.22946 55 4.10878 57.1117 4.10878C59.2234 4.10878 59.2234 1.22946 61.3351 1.22946C63.4468 1.22946 63.4468 4.10878 65.5585 4.10878C67.6702 4.10878 67.6702 1.22946 69.7819 1.22946C71.8936 1.22946 71.8936 4.10878 74.0053 4.10878C76.117 4.10878 76.117 1.22946 78.2287 1.22946C80.3404 1.22946 80.3404 4.10878 82.4521 4.10878C84.5638 4.10878 84.5638 1.22946 86.6755 1.22946C88.7872 1.22946 88.7872 4.10878 90.8989 4.10878C93.0106 4.10878 93.0106 1.22946 95.1223 1.22946C97.234 1.22946 97.234 4.10878 99.3457 4.10878C101.457 4.10878 101.457 1.22946 103.569 1.22946C105.681 1.22946 106.585 0.151296 106.585 2.66912C106.585 5.18695 109 5.18694 109 7.70477C109 10.2226 106.585 10.2226 106.585 12.7404C106.585 15.2582 109 15.2582 109 17.7761C109 20.2939 106.585 20.2939 106.585 22.8117C106.585 25.3295 109 25.3295 109 27.8474C109 30.3652 106.585 30.3652 106.585 32.883C106.585 35.4008 109 35.4008 109 37.9187C109 40.4365 106.585 40.4365 106.585 42.9543C106.585 45.4721 109 45.4721 109 47.99C109 50.5078 106.585 50.5078 106.585 53.0256C106.585 55.5434 109 55.5434 109 58.0613C109 60.5791 106.585 60.5791 106.585 63.0969C106.585 65.6147 109 65.6147 109 68.1326C109 70.6504 106.585 70.6504 106.585 73.1682C106.585 75.686 109 75.686 109 78.2039C109 80.7217 106.585 80.7217 106.585 83.2395C106.585 85.7573 109 85.7573 109 88.2752C109 90.793 106.585 90.793 106.585 93.3108C106.585 95.8286 109 95.8286 109 98.3465C109 100.864 106.585 100.864 106.585 103.382C106.585 105.9 109 105.9 109 108.418C109 110.936 106.585 110.936 106.585 113.453C106.585 115.971 109 115.971 109 118.489C109 121.007 106.585 121.007 106.585 123.525C106.585 126.043 109.904 130 107.793 130C105.681 130 105.681 127.121 103.569 127.121C101.457 127.121 101.457 130 99.3457 130C97.234 130 97.234 127.121 95.1223 127.121C93.0106 127.121 93.0106 130 90.8989 130C88.7872 130 88.7872 127.121 86.6755 127.121C84.5638 127.121 84.5638 130 82.4521 130C80.3404 130 80.3404 127.121 78.2287 127.121C76.117 127.121 76.117 130 74.0053 130C71.8936 130 71.8936 127.121 69.7819 127.121C67.6702 127.121 67.6702 130 65.5585 130C63.4468 130 63.4468 127.121 61.3351 127.121C59.2234 127.121 59.2234 130 57.1117 130C55 130 55 127.121 52.8883 127.121C50.7766 127.121 50.7766 130 48.6649 130C46.5532 130 46.5532 127.121 44.4415 127.121C42.3298 127.121 42.3298 130 40.2181 130C38.1064 130 38.1064 127.121 35.9947 127.121C33.883 127.121 33.883 130 31.7713 130C29.6596 130 29.6596 127.121 27.5479 127.121C25.4362 127.121 25.4362 130 23.3245 130C21.2128 130 21.2128 127.121 19.1011 127.121C16.9894 127.121 16.9894 130 14.8777 130C12.766 130 12.766 127.121 10.6543 127.121C8.54255 127.121 8.54255 130 6.43085 130C4.31914 130 3.81178 128.323 3 127.282Z" stroke="url(#paint0_linear_3613_2298)"/>
<g filter="url(#filter1_i_3613_2298)">
<rect x="11" y="120" width="109" height="88" rx="4" transform="rotate(-90 11 120)" fill="#EDECDD"/>
</g>
<rect x="10.5" y="120.5" width="110" height="89" rx="4.5" transform="rotate(-90 10.5 120.5)" stroke="url(#paint1_linear_3613_2298)"/>
<defs>
<filter id="filter0_i_3613_2298" x="0.5" y="0.500305" width="109" height="131" filterUnits="userSpaceOnUse" color-interpolation-filters="sRGB">
<feFlood flood-opacity="0" result="BackgroundImageFix"/>
<feBlend mode="normal" in="SourceGraphic" in2="BackgroundImageFix" result="shape"/>
<feColorMatrix in="SourceAlpha" type="matrix" values="0 0 0 0 0 0 0 0 0 0 0 0 0 0 0 0 0 0 127 0" result="hardAlpha"/>
<feOffset dy="1"/>
<feGaussianBlur stdDeviation="2"/>
<feComposite in2="hardAlpha" operator="arithmetic" k2="-1" k3="1"/>
<feColorMatrix type="matrix" values="0 0 0 0 0 0 0 0 0 0 0 0 0 0 0 0 0 0 0.25 0"/>
<feBlend mode="normal" in2="shape" result="effect1_innerShadow_3613_2298"/>
</filter>
<filter id="filter1_i_3613_2298" x="10" y="10" width="90" height="112" filterUnits="userSpaceOnUse" color-interpolation-filters="sRGB">
<feFlood flood-opacity="0" result="BackgroundImageFix"/>
<feBlend mode="normal" in="SourceGraphic" in2="BackgroundImageFix" result="shape"/>
<feColorMatrix in="SourceAlpha" type="matrix" values="0 0 0 0 0 0 0 0 0 0 0 0 0 0 0 0 0 0 127 0" result="hardAlpha"/>
<feOffset dy="1"/>
<feGaussianBlur stdDeviation="2"/>
<feComposite in2="hardAlpha" operator="arithmetic" k2="-1" k3="1"/>
<feColorMatrix type="matrix" values="0 0 0 0 0 0 0 0 0 0 0 0 0 0 0 0 0 0 0.25 0"/>
<feBlend mode="normal" in2="shape" result="effect1_innerShadow_3613_2298"/>
</filter>
<linearGradient id="paint0_linear_3613_2298" x1="1" y1="125.301" x2="136.644" y2="79.2419" gradientUnits="userSpaceOnUse">
<stop stop-color="#CCC6AF"/>
<stop offset="0.144052" stop-color="#D0B185"/>
<stop offset="0.36115" stop-color="#D8C99D"/>
<stop offset="0.494366" stop-color="#EBDFC1"/>
<stop offset="0.598666" stop-color="#D3CBBA"/>
<stop offset="0.828212" stop-color="#D7C49C"/>
<stop offset="1" stop-color="#9D886A"/>
</linearGradient>
<linearGradient id="paint1_linear_3613_2298" x1="14.9702" y1="120" x2="51.4252" y2="231.332" gradientUnits="userSpaceOnUse">
<stop stop-color="#CCC6AF"/>
<stop offset="0.144052" stop-color="#D0B185"/>
<stop offset="0.36115" stop-color="#D8C99D"/>
<stop offset="0.494366" stop-color="#EBDFC1"/>
<stop offset="0.598666" stop-color="#D3CBBA"/>
<stop offset="0.828212" stop-color="#D7C49C"/>
<stop offset="1" stop-color="#9D886A"/>
</linearGradient>
</defs>
</svg>
