<svg width="30" height="31" viewBox="0 0 30 31" fill="none" xmlns="http://www.w3.org/2000/svg">
<path fill-rule="evenodd" clip-rule="evenodd" d="M28.5159 17.0933C29.306 17.3424 29.7445 18.1849 29.4954 18.9749L29.1216 20.1606L28.6208 21.3697L28.0165 22.5305L27.3133 23.6343L26.5166 24.6726L25.6325 25.6374L24.6676 26.5216L23.6293 27.3183L22.5256 28.0214L21.4228 28.5955C20.688 28.978 19.7822 28.6924 19.3997 27.9576C19.0172 27.2228 19.3028 26.317 20.0376 25.9345L21.0241 25.4209L21.907 24.8585L22.7374 24.2213L23.5091 23.5141L24.2163 22.7424L24.8535 21.9119L25.4159 21.0291L25.8993 20.1006L26.2998 19.1336L26.6343 18.0728C26.8834 17.2827 27.7258 16.8442 28.5159 17.0933Z" fill="#1C1C1E" fill-opacity="0.7"/>
<path fill-rule="evenodd" clip-rule="evenodd" d="M28.6449 14.1503C27.8362 14.3296 27.0351 13.8193 26.8558 13.0105L26.6151 11.9247L26.3004 10.9264L25.8998 9.95932L25.4164 9.03086L24.854 8.14804L24.2168 7.31761L23.5097 6.54587L22.7379 5.8387L21.9075 5.20149L21.0247 4.63907L20.0962 4.15574L19.1291 3.75517L18.1308 3.44041L17.1089 3.21385L16.0711 3.07723L15.0254 3.03157L13.9796 3.07723L12.9419 3.21385L11.9199 3.44041L10.9216 3.75517L9.95456 4.15575L9.0261 4.63907L8.14328 5.20149L7.31284 5.83871L6.54111 6.54587L5.83394 7.31761L5.19673 8.14804L4.63432 9.03085L4.15098 9.95933L3.75042 10.9264L3.43565 11.9247L3.2091 12.9466L3.07247 13.9844L3.02681 15.0302L3.07247 16.0759L3.2091 17.1137L3.43565 18.1356L3.75041 19.1339L4.15098 20.1009L4.63432 21.0294L5.19673 21.9122L5.83394 22.7427L6.54112 23.5144L7.31285 24.2216L8.14327 24.8588L9.02612 25.4212L9.95457 25.9045L10.9216 26.3051L11.9199 26.6199L12.9419 26.8464L13.9796 26.9831L15.0908 27.0316C15.9185 27.0677 16.5601 27.7679 16.524 28.5956C16.4878 29.4232 15.7876 30.0648 14.96 30.0287L13.7179 29.9745L12.4204 29.8037L11.1427 29.5204L9.89459 29.1269L8.6855 28.6261L7.52467 28.0218L6.42092 27.3186L5.38265 26.5219L4.41777 25.6378L3.53362 24.6729L2.73693 23.6346L2.03376 22.5309L1.42947 21.37L0.928653 20.1609L0.535117 18.9128L0.251859 17.6351L0.0810387 16.3376L0.0239532 15.0301L0.0810403 13.7227L0.251861 12.4252L0.535116 11.1475L0.92865 9.89935L1.42947 8.69026L2.03376 7.52942L2.73693 6.42567L3.53362 5.38741L4.41777 4.42253L5.38265 3.53838L6.42091 2.74169L7.52467 2.03852L8.68551 1.43423L9.89459 0.933408L11.1427 0.539873L12.4204 0.256617L13.7179 0.0857959L15.0254 0.028711L16.3328 0.0857958L17.6304 0.256617L18.908 0.539872L20.1562 0.933408L21.3653 1.43423L22.5261 2.03852L23.6298 2.74169L24.6681 3.53838L25.633 4.42253L26.5171 5.38741L27.3138 6.42567L28.017 7.52943L28.6213 8.69026L29.1221 9.89935L29.5156 11.1475L29.7847 12.3612C29.964 13.17 29.4537 13.971 28.6449 14.1503Z" fill="#1C1C1E" fill-opacity="0.1"/>
</svg>
