<svg width="109" height="130" viewBox="0 0 109 130" fill="none" xmlns="http://www.w3.org/2000/svg">
<g filter="url(#filter0_i_3613_2298)">
<path fill-rule="evenodd" clip-rule="evenodd" d="M2.91488 128.06C2.91488 125.542 0.5 125.542 0.5 123.024C0.5 120.507 2.91488 120.507 2.91488 117.989C2.91488 115.471 0.5 115.471 0.5 112.953C0.5 110.435 2.91488 110.435 2.91488 107.917C2.91488 105.4 0.5 105.4 0.5 102.882C0.5 100.364 2.91488 100.364 2.91488 97.8461C2.91488 95.3283 0.5 95.3283 0.5 92.8105C0.5 90.2927 2.91488 90.2927 2.91488 87.7748C2.91488 85.257 0.5 85.257 0.5 82.7392C0.5 80.2214 2.91488 80.2214 2.91488 77.7035C2.91488 75.1857 0.5 75.1857 0.5 72.6679C0.5 70.1501 2.91488 70.1501 2.91488 67.6322C2.91488 65.1144 0.5 65.1144 0.5 62.5966C0.5 60.0788 2.91488 60.0788 2.91488 57.561C2.91488 55.0431 0.5 55.0431 0.5 52.5253C0.5 50.0075 2.91488 50.0075 2.91488 47.4897C2.91488 44.9718 0.5 44.9718 0.5 42.454C0.5 39.9362 2.91488 39.9362 2.91488 37.4184C2.91488 34.9005 0.5 34.9005 0.5 32.3827C0.5 29.8649 2.91488 29.8649 2.91488 27.3471C2.91488 24.8292 0.5 24.8292 0.5 22.3114C0.5 19.7936 2.91488 19.7936 2.91488 17.2758C2.91488 14.7579 0.5 14.7579 0.5 12.2401C0.5 9.72229 2.91488 9.72229 2.91488 7.20446C2.91488 4.68664 -0.404261 0.729156 1.70744 0.729156C3.81914 0.729156 3.81914 3.60847 5.93085 3.60847C8.04255 3.60847 8.04255 0.729156 10.1543 0.729156C12.266 0.729156 12.266 3.60847 14.3777 3.60847C16.4894 3.60847 16.4894 0.729156 18.6011 0.729156C20.7128 0.729156 20.7128 3.60847 22.8245 3.60847C24.9362 3.60847 24.9362 0.729156 27.0479 0.729156C29.1596 0.729156 29.1596 3.60847 31.2713 3.60847C33.383 3.60847 33.383 0.729156 35.4947 0.729156C37.6064 0.729156 37.6064 3.60847 39.7181 3.60847C41.8298 3.60847 41.8298 0.729156 43.9415 0.729156C46.0532 0.729156 46.0532 3.60847 48.1649 3.60847C50.2766 3.60847 50.2766 0.729156 52.3883 0.729156C54.5 0.729156 54.5 3.60847 56.6117 3.60847C58.7234 3.60847 58.7234 0.729156 60.8351 0.729156C62.9468 0.729156 62.9468 3.60847 65.0585 3.60847C67.1702 3.60847 67.1702 0.729156 69.2819 0.729156C71.3936 0.729156 71.3936 3.60847 73.5053 3.60847C75.617 3.60847 75.617 0.729156 77.7287 0.729156C79.8404 0.729156 79.8404 3.60847 81.9521 3.60847C84.0638 3.60847 84.0638 0.729156 86.1755 0.729156C88.2872 0.729156 88.2872 3.60847 90.3989 3.60847C92.5106 3.60847 92.5106 0.729156 94.6223 0.729156C96.734 0.729156 96.734 3.60847 98.8457 3.60847C100.957 3.60847 100.957 0.729156 103.069 0.729156C105.181 0.729156 106.085 -0.349014 106.085 2.16882C106.085 4.68664 108.5 4.68664 108.5 7.20446C108.5 9.72229 106.085 9.72229 106.085 12.2401C106.085 14.7579 108.5 14.7579 108.5 17.2758C108.5 19.7936 106.085 19.7936 106.085 22.3114C106.085 24.8292 108.5 24.8292 108.5 27.3471C108.5 29.8649 106.085 29.8649 106.085 32.3827C106.085 34.9005 108.5 34.9005 108.5 37.4184C108.5 39.9362 106.085 39.9362 106.085 42.454C106.085 44.9718 108.5 44.9718 108.5 47.4897C108.5 50.0075 106.085 50.0075 106.085 52.5253C106.085 55.0431 108.5 55.0431 108.5 57.561C108.5 60.0788 106.085 60.0788 106.085 62.5966C106.085 65.1144 108.5 65.1144 108.5 67.6322C108.5 70.1501 106.085 70.1501 106.085 72.6679C106.085 75.1857 108.5 75.1857 108.5 77.7035C108.5 80.2214 106.085 80.2214 106.085 82.7392C106.085 85.257 108.5 85.257 108.5 87.7748C108.5 90.2927 106.085 90.2927 106.085 92.8105C106.085 95.3283 108.5 95.3283 108.5 97.8461C108.5 100.364 106.085 100.364 106.085 102.882C106.085 105.4 108.5 105.4 108.5 107.917C108.5 110.435 106.085 110.435 106.085 112.953C106.085 115.471 108.5 115.471 108.5 117.989C108.5 120.507 106.085 120.507 106.085 123.024C106.085 125.542 109.404 129.5 107.293 129.5C105.181 129.5 105.181 126.62 103.069 126.62C100.957 126.62 100.957 129.5 98.8457 129.5C96.734 129.5 96.734 126.62 94.6223 126.62C92.5106 126.62 92.5106 129.5 90.3989 129.5C88.2872 129.5 88.2872 126.62 86.1755 126.62C84.0638 126.62 84.0638 129.5 81.9521 129.5C79.8404 129.5 79.8404 126.62 77.7287 126.62C75.617 126.62 75.617 129.5 73.5053 129.5C71.3936 129.5 71.3936 126.62 69.2819 126.62C67.1702 126.62 67.1702 129.5 65.0585 129.5C62.9468 129.5 62.9468 126.62 60.8351 126.62C58.7234 126.62 58.7234 129.5 56.6117 129.5C54.5 129.5 54.5 126.62 52.3883 126.62C50.2766 126.62 50.2766 129.5 48.1649 129.5C46.0532 129.5 46.0532 126.62 43.9415 126.62C41.8298 126.62 41.8298 129.5 39.7181 129.5C37.6064 129.5 37.6064 126.62 35.4947 126.62C33.383 126.62 33.383 129.5 31.2713 129.5C29.1596 129.5 29.1596 126.62 27.0479 126.62C24.9362 126.62 24.9362 129.5 22.8245 129.5C20.7128 129.5 20.7128 126.62 18.6011 126.62C16.4894 126.62 16.4894 129.5 14.3777 129.5C12.266 129.5 12.266 126.62 10.1543 126.62C8.04255 126.62 8.04255 129.5 5.93085 129.5C3.81914 129.5 3.81914 126.62 1.70744 126.62" fill="#EDECDD"/>
</g>
<path d="M2.91488 128.06C2.91488 125.542 0.5 125.542 0.5 123.024C0.5 120.507 2.91488 120.507 2.91488 117.989C2.91488 115.471 0.5 115.471 0.5 112.953C0.5 110.435 2.91488 110.435 2.91488 107.917C2.91488 105.4 0.5 105.4 0.5 102.882C0.5 100.364 2.91488 100.364 2.91488 97.8461C2.91488 95.3283 0.5 95.3283 0.5 92.8105C0.5 90.2927 2.91488 90.2927 2.91488 87.7748C2.91488 85.257 0.5 85.257 0.5 82.7392C0.5 80.2214 2.91488 80.2214 2.91488 77.7035C2.91488 75.1857 0.5 75.1857 0.5 72.6679C0.5 70.1501 2.91488 70.1501 2.91488 67.6322C2.91488 65.1144 0.5 65.1144 0.5 62.5966C0.5 60.0788 2.91488 60.0788 2.91488 57.561C2.91488 55.0431 0.5 55.0431 0.5 52.5253C0.5 50.0075 2.91488 50.0075 2.91488 47.4897C2.91488 44.9718 0.5 44.9718 0.5 42.454C0.5 39.9362 2.91488 39.9362 2.91488 37.4184C2.91488 34.9005 0.5 34.9005 0.5 32.3827C0.5 29.8649 2.91488 29.8649 2.91488 27.3471C2.91488 24.8292 0.5 24.8292 0.5 22.3114C0.5 19.7936 2.91488 19.7936 2.91488 17.2758C2.91488 14.7579 0.5 14.7579 0.5 12.2401C0.5 9.72229 2.91488 9.72229 2.91488 7.20446C2.91488 4.68664 -0.404261 0.729155 1.70744 0.729155C3.81914 0.729155 3.81914 3.60847 5.93085 3.60847C8.04255 3.60847 8.04255 0.729155 10.1543 0.729155C12.266 0.729155 12.266 3.60847 14.3777 3.60847C16.4894 3.60847 16.4894 0.729155 18.6011 0.729155C20.7128 0.729155 20.7128 3.60847 22.8245 3.60847C24.9362 3.60847 24.9362 0.729155 27.0479 0.729155C29.1596 0.729155 29.1596 3.60847 31.2713 3.60847C33.383 3.60847 33.383 0.729155 35.4947 0.729155C37.6064 0.729155 37.6064 3.60847 39.7181 3.60847C41.8298 3.60847 41.8298 0.729155 43.9415 0.729155C46.0532 0.729155 46.0532 3.60847 48.1649 3.60847C50.2766 3.60847 50.2766 0.729155 52.3883 0.729155C54.5 0.729155 54.5 3.60847 56.6117 3.60847C58.7234 3.60847 58.7234 0.729155 60.8351 0.729155C62.9468 0.729155 62.9468 3.60847 65.0585 3.60847C67.1702 3.60847 67.1702 0.729155 69.2819 0.729155C71.3936 0.729155 71.3936 3.60847 73.5053 3.60847C75.617 3.60847 75.617 0.729155 77.7287 0.729155C79.8404 0.729155 79.8404 3.60847 81.9521 3.60847C84.0638 3.60847 84.0638 0.729155 86.1755 0.729155C88.2872 0.729155 88.2872 3.60847 90.3989 3.60847C92.5106 3.60847 92.5106 0.729155 94.6223 0.729155C96.734 0.729155 96.734 3.60847 98.8457 3.60847C100.957 3.60847 100.957 0.729155 103.069 0.729155C105.181 0.729155 106.085 -0.349011 106.085 2.16881C106.085 4.68664 108.5 4.68664 108.5 7.20446C108.5 9.72229 106.085 9.72229 106.085 12.2401C106.085 14.7579 108.5 14.7579 108.5 17.2758C108.5 19.7936 106.085 19.7936 106.085 22.3114C106.085 24.8292 108.5 24.8292 108.5 27.3471C108.5 29.8649 106.085 29.8649 106.085 32.3827C106.085 34.9005 108.5 34.9005 108.5 37.4184C108.5 39.9362 106.085 39.9362 106.085 42.454C106.085 44.9718 108.5 44.9718 108.5 47.4897C108.5 50.0075 106.085 50.0075 106.085 52.5253C106.085 55.0431 108.5 55.0431 108.5 57.561C108.5 60.0788 106.085 60.0788 106.085 62.5966C106.085 65.1144 108.5 65.1144 108.5 67.6322C108.5 70.1501 106.085 70.1501 106.085 72.6679C106.085 75.1857 108.5 75.1857 108.5 77.7035C108.5 80.2214 106.085 80.2214 106.085 82.7392C106.085 85.257 108.5 85.257 108.5 87.7748C108.5 90.2927 106.085 90.2927 106.085 92.8105C106.085 95.3283 108.5 95.3283 108.5 97.8461C108.5 100.364 106.085 100.364 106.085 102.882C106.085 105.4 108.5 105.4 108.5 107.917C108.5 110.435 106.085 110.435 106.085 112.953C106.085 115.471 108.5 115.471 108.5 117.989C108.5 120.507 106.085 120.507 106.085 123.024C106.085 125.542 109.404 129.5 107.293 129.5C105.181 129.5 105.181 126.62 103.069 126.62C100.957 126.62 100.957 129.5 98.8457 129.5C96.734 129.5 96.734 126.62 94.6223 126.62C92.5106 126.62 92.5106 129.5 90.3989 129.5C88.2872 129.5 88.2872 126.62 86.1755 126.62C84.0638 126.62 84.0638 129.5 81.9521 129.5C79.8404 129.5 79.8404 126.62 77.7287 126.62C75.617 126.62 75.617 129.5 73.5053 129.5C71.3936 129.5 71.3936 126.62 69.2819 126.62C67.1702 126.62 67.1702 129.5 65.0585 129.5C62.9468 129.5 62.9468 126.62 60.8351 126.62C58.7234 126.62 58.7234 129.5 56.6117 129.5C54.5 129.5 54.5 126.62 52.3883 126.62C50.2766 126.62 50.2766 129.5 48.1649 129.5C46.0532 129.5 46.0532 126.62 43.9415 126.62C41.8298 126.62 41.8298 129.5 39.7181 129.5C37.6064 129.5 37.6064 126.62 35.4947 126.62C33.383 126.62 33.383 129.5 31.2713 129.5C29.1596 129.5 29.1596 126.62 27.0479 126.62C24.9362 126.62 24.9362 129.5 22.8245 129.5C20.7128 129.5 20.7128 126.62 18.6011 126.62C16.4894 126.62 16.4894 129.5 14.3777 129.5C12.266 129.5 12.266 126.62 10.1543 126.62C8.04255 126.62 8.04255 129.5 5.93085 129.5C3.81914 129.5 3.81914 126.62 1.70744 126.62" stroke="url(#paint0_linear_3613_2298)"/>
<g filter="url(#filter1_i_3613_2298)">
<rect x="10.5" y="119.5" width="109" height="88" rx="4" transform="rotate(-90 10.5 119.5)" fill="#EDECDD"/>
</g>
<rect x="10" y="120" width="110" height="89" rx="4.5" transform="rotate(-90 10 120)" stroke="url(#paint1_linear_3613_2298)"/>
<defs>
<filter id="filter0_i_3613_2298" x="0" y="0" width="109" height="131" filterUnits="userSpaceOnUse" color-interpolation-filters="sRGB">
<feFlood flood-opacity="0" result="BackgroundImageFix"/>
<feBlend mode="normal" in="SourceGraphic" in2="BackgroundImageFix" result="shape"/>
<feColorMatrix in="SourceAlpha" type="matrix" values="0 0 0 0 0 0 0 0 0 0 0 0 0 0 0 0 0 0 127 0" result="hardAlpha"/>
<feOffset dy="1"/>
<feGaussianBlur stdDeviation="2"/>
<feComposite in2="hardAlpha" operator="arithmetic" k2="-1" k3="1"/>
<feColorMatrix type="matrix" values="0 0 0 0 0 0 0 0 0 0 0 0 0 0 0 0 0 0 0.25 0"/>
<feBlend mode="normal" in2="shape" result="effect1_innerShadow_3613_2298"/>
</filter>
<filter id="filter1_i_3613_2298" x="9.5" y="9.49969" width="90" height="112" filterUnits="userSpaceOnUse" color-interpolation-filters="sRGB">
<feFlood flood-opacity="0" result="BackgroundImageFix"/>
<feBlend mode="normal" in="SourceGraphic" in2="BackgroundImageFix" result="shape"/>
<feColorMatrix in="SourceAlpha" type="matrix" values="0 0 0 0 0 0 0 0 0 0 0 0 0 0 0 0 0 0 127 0" result="hardAlpha"/>
<feOffset dy="1"/>
<feGaussianBlur stdDeviation="2"/>
<feComposite in2="hardAlpha" operator="arithmetic" k2="-1" k3="1"/>
<feColorMatrix type="matrix" values="0 0 0 0 0 0 0 0 0 0 0 0 0 0 0 0 0 0 0.25 0"/>
<feBlend mode="normal" in2="shape" result="effect1_innerShadow_3613_2298"/>
</filter>
<linearGradient id="paint0_linear_3613_2298" x1="0.5" y1="124.801" x2="136.144" y2="78.7416" gradientUnits="userSpaceOnUse">
<stop stop-color="#CCC6AF"/>
<stop offset="0.144052" stop-color="#D0B185"/>
<stop offset="0.36115" stop-color="#D8C99D"/>
<stop offset="0.494366" stop-color="#EBDFC1"/>
<stop offset="0.598666" stop-color="#D3CBBA"/>
<stop offset="0.828212" stop-color="#D7C49C"/>
<stop offset="1" stop-color="#9D886A"/>
</linearGradient>
<linearGradient id="paint1_linear_3613_2298" x1="14.4702" y1="119.5" x2="50.9252" y2="230.831" gradientUnits="userSpaceOnUse">
<stop stop-color="#CCC6AF"/>
<stop offset="0.144052" stop-color="#D0B185"/>
<stop offset="0.36115" stop-color="#D8C99D"/>
<stop offset="0.494366" stop-color="#EBDFC1"/>
<stop offset="0.598666" stop-color="#D3CBBA"/>
<stop offset="0.828212" stop-color="#D7C49C"/>
<stop offset="1" stop-color="#9D886A"/>
</linearGradient>
</defs>
</svg>
