<svg width="30" height="30" viewBox="0 0 30 30" fill="none" xmlns="http://www.w3.org/2000/svg">
<path fill-rule="evenodd" clip-rule="evenodd" d="M28.2778 16.9433C29.0618 17.1905 29.4969 18.0264 29.2498 18.8104L28.8788 19.9869L28.3818 21.1867L27.7822 22.3386L27.0845 23.4338L26.2939 24.4641L25.4166 25.4215L24.4592 26.2988L23.4289 27.0894L22.3337 27.7871L21.2394 28.3567C20.5103 28.7363 19.6115 28.4529 19.2319 27.7238C18.8523 26.9946 19.1357 26.0958 19.8649 25.7162L20.8438 25.2066L21.7198 24.6485L22.5439 24.0162L23.3096 23.3145L24.0113 22.5487L24.6436 21.7247L25.2017 20.8487L25.6813 19.9274L26.0788 18.9678L26.4107 17.9152C26.6579 17.1313 27.4938 16.6961 28.2778 16.9433Z" fill="#1C1C1E" fill-opacity="0.7"/>
<path fill-rule="evenodd" clip-rule="evenodd" d="M28.4055 14.023C27.603 14.2009 26.8082 13.6946 26.6302 12.892L26.3914 11.8145L26.079 10.8239L25.6816 9.86434L25.202 8.94304L24.6439 8.06704L24.0116 7.24301L23.3099 6.47723L22.5441 5.77552L21.7201 5.14322L20.8441 4.58514L19.9228 4.10554L18.9632 3.70806L17.9726 3.39573L16.9585 3.17092L15.9287 3.03535L14.8911 2.99004L13.8534 3.03535L12.8236 3.17092L11.8096 3.39573L10.819 3.70806L9.85937 4.10554L8.93807 4.58514L8.06206 5.14322L7.23803 5.77552L6.47226 6.47723L5.77054 7.24301L5.13825 8.06704L4.58017 8.94303L4.10056 9.86435L3.7031 10.8239L3.39075 11.8145L3.16595 12.8286L3.03038 13.8584L2.98507 14.8961L3.03037 15.9337L3.16595 16.9635L3.39076 17.9775L3.70309 18.9681L4.10057 19.9277L4.58017 20.849L5.13824 21.725L5.77054 22.5491L6.47226 23.3149L7.23804 24.0166L8.06205 24.6488L8.93809 25.2069L9.85937 25.6865L10.819 26.084L11.8096 26.3963L12.8236 26.6212L13.8534 26.7567L14.956 26.8049C15.7772 26.8407 16.4139 27.5355 16.3781 28.3568C16.3422 29.1781 15.6474 29.8147 14.8261 29.7789L13.5937 29.7251L12.3062 29.5556L11.0384 29.2745L9.79986 28.884L8.6001 28.3871L7.44822 27.7874L6.35299 27.0897L5.32273 26.2991L4.3653 25.4218L3.48797 24.4644L2.69742 23.4341L1.99968 22.3389L1.40005 21.187L0.903098 19.9872L0.512598 18.7487L0.231526 17.4809L0.0620227 16.1934L0.00537864 14.896L0.0620261 13.5987L0.231527 12.3112L0.512599 11.0433L0.903095 9.80483L1.40005 8.60507L1.99968 7.45319L2.69743 6.35796L3.48797 5.3277L4.3653 4.37027L5.32273 3.49294L6.35298 2.7024L7.44822 2.00466L8.6001 1.40503L9.79986 0.908069L11.0384 0.51757L12.3062 0.2365L13.5937 0.0669966L14.8911 0.0103524L16.1884 0.0669966L17.4759 0.236499L18.7438 0.517569L19.9823 0.908069L21.182 1.40502L22.3339 2.00466L23.4291 2.7024L24.4594 3.49294L25.4168 4.37027L26.2942 5.3277L27.0847 6.35796L27.7824 7.45319L28.3821 8.60507L28.879 9.80483L29.2695 11.0433L29.5365 12.2477C29.7145 13.0503 29.2081 13.8451 28.4055 14.023Z" fill="#1C1C1E" fill-opacity="0.1"/>
</svg>
