<svg width="16" height="16" viewBox="0 0 16 16" fill="none" xmlns="http://www.w3.org/2000/svg">
<path d="M9 3.5C9.55228 3.5 10 3.94772 10 4.5H10.9854C11.3083 4.5 11.6111 4.65616 11.7988 4.91895L13.8135 7.73926C13.9346 7.90882 14 8.11194 14 8.32031V10.5C14 11.0523 13.5523 11.5 13 11.5H11.9131C11.707 12.0823 11.1529 12.5 10.5 12.5C9.84522 12.5 9.28961 12.08 9.08496 11.4951C9.05692 11.4975 9.02865 11.5 9 11.5H6.91309C6.70703 12.0823 6.15293 12.5 5.5 12.5C4.84707 12.5 4.29297 12.0823 4.08691 11.5H3C2.44772 11.5 2 11.0523 2 10.5V4.5C2 3.94772 2.44772 3.5 3 3.5H9ZM5.5 10.25C5.44713 10.25 5.39548 10.2552 5.3457 10.2656C5.30556 10.2742 5.26693 10.287 5.22949 10.3018C5.21813 10.3062 5.2064 10.3095 5.19531 10.3145C5.16465 10.3283 5.13574 10.3456 5.10742 10.3633C5.09215 10.3727 5.07702 10.3821 5.0625 10.3926C5.06082 10.3938 5.05929 10.3952 5.05762 10.3965L4.96973 10.4697C4.834 10.6054 4.75 10.7929 4.75 11C4.75 11.2193 4.84601 11.4146 4.99609 11.5518C5.01721 11.5712 5.0393 11.5895 5.0625 11.6064C5.07621 11.6164 5.09011 11.6258 5.10449 11.6348C5.1336 11.6532 5.1637 11.6702 5.19531 11.6846C5.20641 11.6895 5.21812 11.6929 5.22949 11.6973C5.26697 11.7121 5.30551 11.7248 5.3457 11.7334C5.39554 11.7438 5.44706 11.75 5.5 11.75C5.55261 11.75 5.60377 11.7437 5.65332 11.7334C5.69354 11.7249 5.73202 11.712 5.76953 11.6973C5.78091 11.6929 5.7926 11.6895 5.80371 11.6846C5.83536 11.6703 5.86539 11.6532 5.89453 11.6348C5.90916 11.6257 5.92356 11.6165 5.9375 11.6064C5.9607 11.5895 5.98279 11.5712 6.00391 11.5518C6.15399 11.4146 6.25 11.2193 6.25 11C6.25 10.7929 6.166 10.6054 6.03027 10.4697L5.94238 10.3965C5.94071 10.3952 5.93918 10.3938 5.9375 10.3926C5.92298 10.3821 5.90785 10.3727 5.89258 10.3633C5.86585 10.3465 5.8384 10.3307 5.80957 10.3174L5.79199 10.3086C5.78482 10.3056 5.77682 10.3046 5.76953 10.3018C5.73206 10.287 5.69349 10.2741 5.65332 10.2656C5.60383 10.2553 5.55254 10.25 5.5 10.25ZM10.5 10.25C10.4533 10.25 10.4076 10.2545 10.3633 10.2627C10.3613 10.2631 10.3594 10.2633 10.3574 10.2637C10.2236 10.2894 10.1042 10.3527 10.0059 10.4395C10.004 10.4411 10.0019 10.4426 10 10.4443C9.84753 10.5816 9.75 10.7787 9.75 11C9.75 11.2714 9.89543 11.507 10.1113 11.6387C10.1371 11.6547 10.1636 11.6698 10.1914 11.6826C10.2042 11.6884 10.2173 11.6932 10.2305 11.6982C10.2679 11.713 10.3066 11.7249 10.3467 11.7334C10.3962 11.7437 10.4474 11.75 10.5 11.75C10.5526 11.75 10.6038 11.7437 10.6533 11.7334C10.6935 11.7249 10.732 11.712 10.7695 11.6973C10.7809 11.6929 10.7926 11.6895 10.8037 11.6846C10.8354 11.6703 10.8654 11.6532 10.8945 11.6348C10.9092 11.6257 10.9236 11.6165 10.9375 11.6064C10.9607 11.5895 10.9828 11.5712 11.0039 11.5518C11.154 11.4146 11.25 11.2193 11.25 11C11.25 10.7929 11.166 10.6054 11.0303 10.4697L10.9424 10.3965C10.9407 10.3952 10.9392 10.3938 10.9375 10.3926C10.923 10.3821 10.9078 10.3727 10.8926 10.3633C10.8658 10.3465 10.8384 10.3307 10.8096 10.3174L10.792 10.3086C10.7848 10.3056 10.7768 10.3046 10.7695 10.3018C10.7321 10.287 10.6935 10.2741 10.6533 10.2656C10.6038 10.2553 10.5525 10.25 10.5 10.25ZM3 10.5H4.08691C4.29297 9.91766 4.84707 9.5 5.5 9.5C6.15293 9.5 6.70703 9.91766 6.91309 10.5H9V4.5H3V10.5ZM10 9.58691C10.1565 9.53153 10.3245 9.5 10.5 9.5C11.1529 9.5 11.707 9.91766 11.9131 10.5H13V8.32031L10.9854 5.5H10V9.58691Z" fill="#1C1C1E" fill-opacity="0.5"/>
</svg>
