<svg width="16" height="16" viewBox="0 0 16 16" fill="none" xmlns="http://www.w3.org/2000/svg">
<g clip-path="url(#clip0_212_1541)">
<path d="M7.43838 3.31682L7.80822 3.68667C7.95342 3.837 8.03376 4.03834 8.03194 4.24733C8.03013 4.45633 7.9463 4.65624 7.79851 4.80403C7.65073 4.95182 7.45081 5.03564 7.24182 5.03746C7.03282 5.03928 6.83148 4.95893 6.68115 4.81374L4.95865 3.09124C4.80922 2.94177 4.72528 2.73906 4.72528 2.52771C4.72528 2.31635 4.80922 2.11364 4.95865 1.96417L6.69071 0.232109C6.76424 0.15598 6.85219 0.0952563 6.94944 0.053482C7.04669 0.0117078 7.15128 -0.0102807 7.25712 -0.0112004C7.36295 -0.01212 7.46791 0.00804752 7.56587 0.0481255C7.66383 0.0882035 7.75283 0.147389 7.82767 0.22223C7.90251 0.29707 7.96169 0.386066 8.00177 0.484024C8.04185 0.581983 8.06202 0.686942 8.0611 0.792778C8.06018 0.898614 8.03819 1.00321 7.99642 1.10045C7.95464 1.1977 7.89392 1.28566 7.81779 1.35918L7.46309 1.71389C12.2352 2.25271 15.9417 6.30189 15.9417 11.2175C15.9417 11.4289 15.8577 11.6316 15.7082 11.7811C15.5587 11.9306 15.356 12.0146 15.1446 12.0146C14.9332 12.0146 14.7304 11.9306 14.5809 11.7811C14.4315 11.6316 14.3475 11.4289 14.3475 11.2175C14.3475 7.1755 11.3385 3.83652 7.43838 3.31682ZM2.39125 6.43501H8.76791C9.08193 6.43501 9.39288 6.49686 9.683 6.61703C9.97312 6.7372 10.2367 6.91334 10.4588 7.13539C10.6808 7.35743 10.857 7.62104 10.9771 7.91116C11.0973 8.20128 11.1592 8.51223 11.1592 8.82625V13.6087C11.1592 13.9228 11.0973 14.2337 10.9771 14.5238C10.857 14.814 10.6808 15.0776 10.4588 15.2996C10.2367 15.5217 9.97312 15.6978 9.683 15.818C9.39288 15.9381 9.08193 16 8.76791 16H2.39125C1.75705 16 1.14883 15.7481 0.70038 15.2996C0.251934 14.8512 0 14.2429 0 13.6087L0 8.82625C0 8.19206 0.251934 7.58383 0.70038 7.13539C1.14883 6.68694 1.75705 6.43501 2.39125 6.43501ZM2.39125 8.02917C2.28657 8.02917 2.18292 8.04979 2.08622 8.08985C1.98951 8.1299 1.90164 8.18862 1.82763 8.26263C1.75361 8.33665 1.6949 8.42452 1.65484 8.52122C1.61478 8.61793 1.59417 8.72158 1.59417 8.82625V13.6087C1.59417 13.8201 1.67814 14.0229 1.82763 14.1724C1.97711 14.3219 2.17985 14.4058 2.39125 14.4058H8.76791C8.97931 14.4058 9.18205 14.3219 9.33153 14.1724C9.48102 14.0229 9.56499 13.8201 9.56499 13.6087V8.82625C9.56499 8.72158 9.54438 8.61793 9.50432 8.52122C9.46426 8.42452 9.40555 8.33665 9.33153 8.26263C9.25752 8.18862 9.16965 8.1299 9.07294 8.08985C8.97623 8.04979 8.87258 8.02917 8.76791 8.02917H2.39125Z" fill="#1C1C1E" fill-opacity="0.7"/>
</g>
<defs>
<clipPath id="clip0_212_1541">
<rect width="16" height="16" fill="white"/>
</clipPath>
</defs>
</svg>
