<svg width="27" height="27" viewBox="0 0 27 27" fill="none" xmlns="http://www.w3.org/2000/svg">
<g clip-path="url(#clip0_212_728)">
<path d="M8.89589 9.013C8.42768 9.013 7.95947 9.32514 7.95947 9.79335C7.95947 10.2616 8.42768 10.5737 8.89589 10.5737C9.3641 10.5737 9.67624 10.2616 9.67624 9.79335C9.67624 9.30563 9.3641 9.013 8.89589 9.013ZM15.2362 13.539C14.9241 13.539 14.6314 13.8707 14.6314 14.1633C14.6314 14.4949 14.9436 14.7876 15.2362 14.7876C15.7044 14.7876 16.0166 14.4754 16.0166 14.1633C16.0166 13.8512 15.7044 13.539 15.2362 13.539ZM13.2268 10.5737C13.695 10.5737 14.0072 10.242 14.0072 9.79335C14.0072 9.32514 13.695 9.013 13.2268 9.013C12.7586 9.013 12.2904 9.32514 12.2904 9.79335C12.2904 10.2616 12.7586 10.5737 13.2268 10.5737ZM18.6307 13.539C18.3186 13.539 18.0259 13.8707 18.0259 14.1633C18.0259 14.4949 18.3381 14.7876 18.6307 14.7876C19.0989 14.7876 19.4111 14.4754 19.4111 14.1633C19.4111 13.8512 19.0989 13.539 18.6307 13.539Z" fill="#28C445"/>
<path d="M13.461 0.0780334C6.02818 0.0780334 0 6.10621 0 13.539C0 20.9718 6.02818 27 13.461 27C20.8938 27 26.922 20.9718 26.922 13.539C26.922 6.10621 20.8938 0.0780334 13.461 0.0780334ZM10.9053 16.9921C10.125 16.9921 9.50072 16.836 8.75939 16.6604L6.61344 17.7529L7.21821 15.8605C5.67702 14.7681 4.74061 13.3439 4.74061 11.6467C4.74061 8.66185 7.53035 6.32081 10.9053 6.32081C13.9292 6.32081 16.6019 8.19364 17.1286 10.7103C16.9335 10.6908 16.7384 10.6712 16.5434 10.6712C13.6171 10.7103 11.315 12.9147 11.315 15.646C11.315 16.0947 11.3931 16.5238 11.5101 16.953C11.315 16.9725 11.1004 16.9921 10.9053 16.9921ZM20.0354 19.177L20.5036 20.7377L18.8259 19.8013C18.2211 19.9574 17.5968 20.1134 16.9725 20.1134C14.0267 20.1134 11.7052 18.0845 11.7052 15.5679C11.6857 13.0708 14.0072 11.0419 16.9335 11.0419C19.7233 11.0419 22.1814 13.0903 22.1814 15.5874C22.1814 16.9921 21.2645 18.2406 20.0354 19.177Z" fill="#28C445"/>
</g>
<defs>
<clipPath id="clip0_212_728">
<rect width="27" height="27" fill="white"/>
</clipPath>
</defs>
</svg>
