<svg width="40" height="49" viewBox="0 0 40 49" fill="none" xmlns="http://www.w3.org/2000/svg">
<path d="M1.00024 3.8L4.18082 1.78085C5.01757 1.24964 6.03425 2.1285 5.62966 3.0333L4.18244 6.26981C3.77067 7.19068 4.82666 8.07278 5.65952 7.50366L8.91691 5.27778" stroke="#7C7C7C" stroke-width="2" stroke-linecap="round"/>
<path d="M13.6667 2.53333L15.0306 1.70873C15.8773 1.19683 16.8737 2.09389 16.4532 2.98948L16.3755 3.15495C15.9477 4.06613 16.9825 4.96716 17.8262 4.41809L19.2084 3.51852" stroke="#7C7C7C" stroke-width="1.5" stroke-linecap="round"/>
<path d="M33.0627 39.4955C36.7193 40.2891 39.0002 41.4122 39.0002 42.6575C39.0002 45.0622 30.4937 47.0116 20.0002 47.0116C9.50683 47.0116 1.00024 45.0622 1.00024 42.6575C1.00024 41.2411 3.95124 39.9827 8.52108 39.1875" stroke="#7C7C7C" stroke-width="2" stroke-linecap="round"/>
<path d="M21.1873 21.979C23.4084 21.979 25.3337 23.9416 25.3337 26.521C25.3336 29.1002 23.4083 31.062 21.1873 31.062C18.9663 31.0618 17.0419 29.1001 17.0417 26.521C17.0417 23.9417 18.9662 21.9792 21.1873 21.979Z" stroke="#7C7C7C" stroke-width="2"/>
<path d="M25.5419 46.1223C34.4086 40.2701 37.153 30.1821 37.4169 25.8696C37.4169 17.0475 30.3281 9.89575 21.5836 9.89575C12.8391 9.89575 5.75024 17.0475 5.75024 25.8696C5.75024 32.4583 8.12524 40.6455 12.536 46.1223M37.4169 25.8696C36.9928 31.0041 33.8544 34.912 28.0866 39.7042C22.3187 44.4963 19.7559 46.1223 19.5674 46.3124" stroke="#7C7C7C" stroke-width="2" stroke-linecap="round"/>
</svg>
