<svg width="20" height="20" viewBox="0 0 20 20" fill="none" xmlns="http://www.w3.org/2000/svg">
<path d="M15.5 5.8584C15.7761 5.8584 16 6.08226 16 6.3584C16 6.63454 15.7761 6.8584 15.5 6.8584H14.5V14.001C14.5 15.0366 13.7128 15.888 12.7041 15.9902L12.5 16.001H7.5L7.2959 15.9902C6.35435 15.8948 5.6062 15.1466 5.51074 14.2051L5.5 14.001V6.8584H4.5C4.22386 6.8584 4 6.63454 4 6.3584C4 6.08226 4.22386 5.8584 4.5 5.8584H15.5ZM6.5 14.001C6.5 14.5533 6.94772 15.001 7.5 15.001H12.5C13.0523 15.001 13.5 14.5533 13.5 14.001V6.8584H6.5V14.001ZM8 8.53027C8.27614 8.53027 8.5 8.75413 8.5 9.03027V13.0303C8.5 13.3064 8.27614 13.5303 8 13.5303C7.72386 13.5303 7.5 13.3064 7.5 13.0303V9.03027C7.5 8.75413 7.72386 8.53027 8 8.53027ZM10 8.53027C10.2761 8.53027 10.5 8.75413 10.5 9.03027V13.0303C10.5 13.3064 10.2761 13.5303 10 13.5303C9.72386 13.5303 9.5 13.3064 9.5 13.0303V9.03027C9.5 8.75413 9.72386 8.53027 10 8.53027ZM12 8.53027C12.2761 8.53027 12.5 8.75413 12.5 9.03027V13.0303C12.5 13.3064 12.2761 13.5303 12 13.5303C11.7239 13.5303 11.5 13.3064 11.5 13.0303V9.03027C11.5 8.75413 11.7239 8.53027 12 8.53027ZM12.5 3.99902C12.7761 3.99902 13 4.22288 13 4.49902C13 4.77517 12.7761 4.99902 12.5 4.99902H7.5C7.22386 4.99902 7 4.77517 7 4.49902C7 4.22288 7.22386 3.99902 7.5 3.99902H12.5Z" fill="white"/>
</svg>
