<svg width="20" height="20" viewBox="0 0 20 20" fill="none" xmlns="http://www.w3.org/2000/svg">
<path d="M12 10C12 8.89543 11.1046 8 10 8H7C5.89543 8 5 8.89543 5 10V13C5 14.1046 5.89543 15 7 15H10C11.1046 15 12 14.1046 12 13V10ZM13 13C13 14.6569 11.6569 16 10 16H7C5.34315 16 4 14.6569 4 13V10C4 8.34315 5.34315 7 7 7H10C11.6569 7 13 8.34315 13 10V13Z" fill="white"/>
<path d="M15 10.5V6.5C15 5.67157 14.3284 5 13.5 5H9.5C8.67157 5 8 5.67157 8 6.5V7H7V6.5C7 5.11929 8.11929 4 9.5 4H13.5C14.8807 4 16 5.11929 16 6.5V10.5C16 11.8807 14.8807 13 13.5 13H13V12H13.5C14.3284 12 15 11.3284 15 10.5Z" fill="white"/>
</svg>
