<svg width="16" height="16" viewBox="0 0 16 16" fill="none" xmlns="http://www.w3.org/2000/svg">
<g clip-path="url(#clip0_212_1555)">
<path d="M0.0107751 9.291C0.0311091 9.18715 0.0801009 9.08746 0.15433 8.99706C0.252939 8.87702 0.393699 8.77713 0.562533 8.70799C0.731179 8.63897 0.921992 8.60257 1.11624 8.60252H14.8828C15.179 8.60252 15.4635 8.68695 15.6729 8.8369C15.8822 8.98684 16 9.19032 16 9.40233V15.2002C16 15.341 15.9483 15.4797 15.8496 15.6015C15.7509 15.7234 15.6084 15.8246 15.4375 15.8945C15.2668 15.9644 15.0727 16.0008 14.876 16C14.6795 15.9991 14.4868 15.9609 14.3174 15.8896L0.550814 10.0908C0.424528 10.0376 0.313913 9.96748 0.225619 9.88377C0.137281 9.79996 0.0729777 9.70417 0.0361658 9.60252C-0.000644296 9.50088 -0.0095435 9.39499 0.0107751 9.291ZM0.0107751 6.70897C-0.00954341 6.60498 -0.000643892 6.49909 0.0361658 6.39745C0.0729777 6.2958 0.137281 6.20002 0.225619 6.1162C0.313913 6.03249 0.424527 5.96234 0.550814 5.90917L14.3174 0.110337C14.4868 0.0390348 14.6795 0.000898361 14.876 -1.52588e-05C15.0727 -0.000869751 15.2668 0.0355377 15.4375 0.105454C15.6084 0.175415 15.7509 0.276537 15.8496 0.398423C15.9483 0.520257 16 0.65897 16 0.79979V6.59764C16 6.80965 15.8822 7.01313 15.6729 7.16307C15.4635 7.31302 15.179 7.39745 14.8828 7.39745L1.11624 7.39745C0.921992 7.3974 0.731179 7.361 0.562533 7.29198C0.393699 7.22284 0.252939 7.12295 0.15433 7.00292C0.0801008 6.91252 0.0311093 6.81282 0.0107751 6.70897ZM14.7998 14.6846V9.80174H3.00003L14.7998 14.6846ZM14.7998 6.19823L14.7998 1.31542L3.00003 6.19823L14.7998 6.19823Z" fill="#1C1C1E" fill-opacity="0.7"/>
</g>
<defs>
<clipPath id="clip0_212_1555">
<rect width="16" height="16" fill="white" transform="matrix(0 -1 1 0 0 16)"/>
</clipPath>
</defs>
</svg>
