<svg width="18" height="18" viewBox="0 0 18 18" fill="none" xmlns="http://www.w3.org/2000/svg">
<path d="M14 0C15.8855 0 16.8283 0.000237624 17.4141 0.585938C17.9998 1.17172 18 2.11438 18 4V5.20605C18.0003 5.21388 18 5.22166 18 5.22949V14C18 15.8856 17.9998 16.8283 17.4141 17.4141C16.8283 17.9998 15.8856 18 14 18H4C2.11438 18 1.17172 17.9998 0.585938 17.4141C0.000174669 16.8283 0 15.8856 0 14V4C0 2.11438 0.000151062 1.17172 0.585938 0.585938C1.17172 0.000151062 2.11438 0 4 0H14ZM1.25586 12.7441C1.25586 14.6297 1.25604 15.5724 1.8418 16.1582C2.42758 16.744 3.37024 16.7441 5.25586 16.7441H10.8389L8.57227 14.4775C8.57112 14.4765 8.5695 14.4757 8.56836 14.4746C8.56586 14.4722 8.56398 14.4692 8.56152 14.4668L1.25586 7.16113V12.7441ZM9.87891 14.0088L12.6143 16.7441H14.7441C15.6869 16.7441 16.1583 16.744 16.4512 16.4512C16.7441 16.1583 16.7441 15.6869 16.7441 14.7441V6.80078L9.87891 14.0088ZM11.3311 6.21582C10.7873 6.21593 10.3086 6.49009 10.0352 6.91016L8.92578 8.61621L7.81543 6.91016C7.54202 6.49009 7.06326 6.21592 6.51953 6.21582C5.67399 6.21582 4.98842 6.88075 4.98828 7.70117C4.98828 7.73646 4.98992 7.77486 4.99316 7.81641L5.02344 8.20605C5.02363 8.20717 5.02422 8.20884 5.02441 8.20996C5.06419 8.43654 5.14375 8.74614 5.30078 9.07031C5.54558 9.57546 5.89263 9.94901 6.03125 10.0869L6.08984 10.1426L6.11621 10.165L8.92578 12.8916L11.7275 10.1729C11.7391 10.1614 11.759 10.1416 11.7852 10.1143C11.8378 10.0591 11.9152 9.97445 12.0049 9.86719C12.1886 9.64747 12.4023 9.35663 12.5645 9.04199C12.7093 8.76092 12.7828 8.47309 12.8213 8.25781L12.8564 7.81641C12.8606 7.76362 12.8623 7.72791 12.8623 7.70117C12.8622 6.88075 12.1766 6.21582 11.3311 6.21582ZM3.25586 1.25586C2.31305 1.25586 1.84172 1.25593 1.54883 1.54883C1.25594 1.84172 1.25586 2.31306 1.25586 3.25586V5.38574L3.67969 7.80957C3.67818 7.77367 3.67578 7.73742 3.67578 7.70117C3.67592 6.17743 4.94917 4.94238 6.51953 4.94238C7.53259 4.94249 8.4222 5.45643 8.92578 6.23047C9.36352 5.55786 10.0921 5.08098 10.9404 4.96777L7.51367 1.25586H3.25586ZM13.2725 5.64355C13.3087 5.68287 13.3379 5.72651 13.3623 5.77148C13.8593 6.26386 14.1664 6.93554 14.1729 7.67773L16.7441 4.97852V3.25586C16.7441 2.31305 16.7441 1.84172 16.4512 1.54883C16.1583 1.25602 15.6869 1.25586 14.7441 1.25586H9.22266L13.2725 5.64355Z" fill="white"/>
</svg>
