<svg width="74" height="74" viewBox="0 0 74 74" fill="none" xmlns="http://www.w3.org/2000/svg">
<circle cx="37" cy="37" r="37" fill="#E9E9E9"/>
<path d="M33.3867 42.9053C36.09 42.9053 39.6407 43.4888 42.2471 44.0039C44.3277 44.4151 45.773 46.264 45.7734 48.3848C45.7734 50.9329 43.7083 52.9988 41.1602 52.999H25.6143C23.066 52.999 21 50.933 21 48.3848C21.0004 46.2641 22.4459 44.4152 24.5264 44.0039C27.1327 43.4888 30.6834 42.9053 33.3867 42.9053ZM33.3848 28.2246C37.0682 28.2246 40.0543 31.1011 40.0547 34.6484C40.0547 38.1961 37.0684 41.0723 33.3848 41.0723C29.7011 41.0723 26.7148 38.1961 26.7148 34.6484C26.7152 31.1011 29.7013 28.2246 33.3848 28.2246ZM47.3232 21C48.1784 21 48.8721 21.6937 48.8721 22.5488V25.1289H51.4521C52.3073 25.1289 53.001 25.8226 53.001 26.6777C53.0009 27.5328 52.3073 28.2256 51.4521 28.2256H48.8721V30.8066C48.8721 31.6618 48.1784 32.3555 47.3232 32.3555C46.4683 32.3552 45.7754 31.6617 45.7754 30.8066V28.2256H43.1943C42.3393 28.2254 41.6456 27.5327 41.6455 26.6777C41.6455 25.8227 42.3393 25.1291 43.1943 25.1289H45.7754V22.5488C45.7754 21.6938 46.4683 21.0003 47.3232 21Z" fill="black" fill-opacity="0.5"/>
</svg>
