<svg width="288" height="196" viewBox="0 0 288 196" fill="none" xmlns="http://www.w3.org/2000/svg">
<g filter="url(#filter0_i_1541_2476)">
<path fill-rule="evenodd" clip-rule="evenodd" d="M40.2516 188.355C35.724 188.355 35.6848 193.902 31.1578 193.834C26.6307 193.765 26.9229 188.352 22.4175 187.889C17.9121 187.425 16.3539 192.97 12.2543 190.98C8.15458 188.99 11.413 185.011 9.33561 180.845C7.2582 176.679 2.5366 178.053 2.0403 173.392C1.54401 168.732 6.95611 168.369 6.87893 163.681C6.80176 158.993 1.5002 159.04 1.50001 154.351C1.49982 149.663 6.83037 149.662 6.83037 144.974C6.83037 140.285 1.5 140.285 1.5 135.596C1.5 130.908 6.83037 130.908 6.83037 126.219C6.83037 121.53 1.5 121.53 1.5 116.841C1.5 112.153 6.83037 112.153 6.83037 107.464C6.83037 102.775 1.5 102.775 1.5 98.0865C1.5 93.3978 6.83037 93.3978 6.83037 88.7091C6.83037 84.0204 1.5 84.0204 1.5 79.3317C1.5 74.6429 6.83037 74.6429 6.83037 69.9542C6.83037 65.2655 1.5 65.2655 1.5 60.5768C1.5 55.8881 6.83037 55.8881 6.83037 51.1994C6.83037 46.5107 1.5 46.5106 1.5 41.8219C1.5 37.1332 6.80434 37.1712 6.86718 32.4829C6.93002 27.7947 1.5244 27.4825 1.95749 22.8153C2.39059 18.1481 7.18449 19.3922 9.05785 15.1237C10.9312 10.8552 7.44711 7.01765 11.4437 4.81445C15.4403 2.61125 17.1911 8.09735 21.6896 7.56653C26.188 7.03571 25.8517 1.63824 30.3786 1.55444C34.9054 1.47065 34.9537 7.02045 39.4812 7.02011C44.0088 7.01977 44.0086 1.49998 48.5361 1.49998C53.0637 1.49998 53.0637 7.0201 57.5912 7.0201C62.1188 7.0201 62.1188 1.49998 66.6463 1.49998C71.1739 1.49998 71.1739 7.0201 75.7014 7.0201C80.229 7.0201 80.229 1.49998 84.7565 1.49998C89.2841 1.49998 89.2841 7.0201 93.8116 7.0201C98.3392 7.0201 98.3392 1.49998 102.867 1.49998C107.394 1.49998 107.394 7.0201 111.922 7.0201C116.449 7.0201 116.449 1.49998 120.977 1.49998C125.504 1.49998 125.504 7.0201 130.032 7.0201C134.56 7.0201 134.56 1.49998 139.087 1.49998C143.615 1.49998 143.615 7.0201 148.142 7.0201C152.67 7.0201 152.67 1.49998 157.197 1.49998C161.725 1.49998 161.725 7.0201 166.252 7.0201C170.78 7.0201 170.78 1.49998 175.308 1.49998C179.835 1.49998 179.835 7.0201 184.363 7.0201C188.89 7.0201 188.89 1.49998 193.418 1.49998C197.945 1.49998 197.945 7.0201 202.473 7.0201C207 7.0201 207 1.49998 211.528 1.49998C216.055 1.49998 216.055 7.0201 220.583 7.0201C225.111 7.0201 225.111 1.49998 229.638 1.49998C234.166 1.49998 234.166 7.0201 238.693 7.0201C243.221 7.0201 243.221 1.49998 247.748 1.49998C252.276 1.49998 252.237 6.99246 256.764 7.0609C261.291 7.12934 261.604 1.52971 266.109 1.99318C270.615 2.45665 269.384 7.40368 273.484 9.3934C277.583 11.3831 281.323 7.83121 283.4 11.9972C285.478 16.1632 280.165 17.9276 280.661 22.5881C281.158 27.2485 286.373 26.9116 286.451 31.5997C286.528 36.2877 281.169 36.3353 281.17 41.024C281.17 45.7128 286.5 45.7126 286.5 50.4014C286.5 55.0901 281.17 55.0901 281.17 59.7788C281.17 64.4675 286.5 64.4675 286.5 69.1562C286.5 73.8449 281.17 73.845 281.17 78.5337C281.17 83.2224 286.5 83.2224 286.5 87.9111C286.5 92.5998 281.17 92.5998 281.17 97.2885C281.17 101.977 286.5 101.977 286.5 106.666C286.5 111.355 281.17 111.355 281.17 116.043C281.17 120.732 286.5 120.732 286.5 125.421C286.5 130.11 281.17 130.11 281.17 134.798C281.17 139.487 286.5 139.487 286.5 144.176C286.5 148.864 281.17 148.864 281.17 153.553C281.17 158.242 286.526 158.28 286.463 162.969C286.4 167.657 281.17 167.365 280.737 172.032C280.303 176.699 285.668 178.267 283.795 182.535C281.921 186.804 278.048 183.485 274.052 185.688C270.055 187.891 271.412 192.762 266.914 193.293C262.415 193.824 262.053 188.218 257.526 188.301C252.999 188.385 253.047 193.875 248.519 193.875C243.992 193.875 243.991 188.355 239.464 188.355C234.936 188.355 234.936 193.875 230.409 193.875C225.881 193.875 225.881 188.355 221.354 188.355C216.826 188.355 216.826 193.875 212.299 193.875C207.771 193.875 207.771 188.355 203.243 188.355C198.716 188.355 198.716 193.875 194.188 193.875C189.661 193.875 189.661 188.355 185.133 188.355C180.606 188.355 180.606 193.875 176.078 193.875C171.551 193.875 171.551 188.355 167.023 188.355C162.495 188.355 162.495 193.875 157.968 193.875C153.44 193.875 153.44 188.355 148.913 188.355C144.385 188.355 144.385 193.875 139.858 193.875C135.33 193.875 135.33 188.355 130.803 188.355C126.275 188.355 126.275 193.875 121.747 193.875C117.22 193.875 117.22 188.355 112.692 188.355C108.165 188.355 108.165 193.875 103.637 193.875C99.1097 193.875 99.1097 188.355 94.5822 188.355C90.0546 188.355 90.0546 193.875 85.5271 193.875C80.9995 193.875 80.9995 188.355 76.472 188.355C71.9444 188.355 71.9444 193.875 67.4169 193.875C62.8893 193.875 62.8893 188.355 58.3618 188.355C53.8342 188.355 53.8342 193.875 49.3067 193.875C44.7791 193.875 44.7791 188.355 40.2516 188.355Z" fill="#EDECDD"/>
</g>
<path fill-rule="evenodd" clip-rule="evenodd" d="M40.2516 188.355C35.724 188.355 35.6848 193.902 31.1578 193.834C26.6307 193.765 26.9229 188.352 22.4175 187.889C17.9121 187.425 16.3539 192.97 12.2543 190.98C8.15458 188.99 11.413 185.011 9.33561 180.845C7.2582 176.679 2.5366 178.053 2.0403 173.392C1.54401 168.732 6.95611 168.369 6.87893 163.681C6.80176 158.993 1.5002 159.04 1.50001 154.351C1.49982 149.663 6.83037 149.662 6.83037 144.974C6.83037 140.285 1.5 140.285 1.5 135.596C1.5 130.908 6.83037 130.908 6.83037 126.219C6.83037 121.53 1.5 121.53 1.5 116.841C1.5 112.153 6.83037 112.153 6.83037 107.464C6.83037 102.775 1.5 102.775 1.5 98.0865C1.5 93.3978 6.83037 93.3978 6.83037 88.7091C6.83037 84.0204 1.5 84.0204 1.5 79.3317C1.5 74.6429 6.83037 74.6429 6.83037 69.9542C6.83037 65.2655 1.5 65.2655 1.5 60.5768C1.5 55.8881 6.83037 55.8881 6.83037 51.1994C6.83037 46.5107 1.5 46.5106 1.5 41.8219C1.5 37.1332 6.80434 37.1712 6.86718 32.4829C6.93002 27.7947 1.5244 27.4825 1.95749 22.8153C2.39059 18.1481 7.18449 19.3922 9.05785 15.1237C10.9312 10.8552 7.44711 7.01765 11.4437 4.81445C15.4403 2.61125 17.1911 8.09735 21.6896 7.56653C26.188 7.03571 25.8517 1.63824 30.3786 1.55444C34.9054 1.47065 34.9537 7.02045 39.4812 7.02011C44.0088 7.01977 44.0086 1.49998 48.5361 1.49998C53.0637 1.49998 53.0637 7.0201 57.5912 7.0201C62.1188 7.0201 62.1188 1.49998 66.6463 1.49998C71.1739 1.49998 71.1739 7.0201 75.7014 7.0201C80.229 7.0201 80.229 1.49998 84.7565 1.49998C89.2841 1.49998 89.2841 7.0201 93.8116 7.0201C98.3392 7.0201 98.3392 1.49998 102.867 1.49998C107.394 1.49998 107.394 7.0201 111.922 7.0201C116.449 7.0201 116.449 1.49998 120.977 1.49998C125.504 1.49998 125.504 7.0201 130.032 7.0201C134.56 7.0201 134.56 1.49998 139.087 1.49998C143.615 1.49998 143.615 7.0201 148.142 7.0201C152.67 7.0201 152.67 1.49998 157.197 1.49998C161.725 1.49998 161.725 7.0201 166.252 7.0201C170.78 7.0201 170.78 1.49998 175.308 1.49998C179.835 1.49998 179.835 7.0201 184.363 7.0201C188.89 7.0201 188.89 1.49998 193.418 1.49998C197.945 1.49998 197.945 7.0201 202.473 7.0201C207 7.0201 207 1.49998 211.528 1.49998C216.055 1.49998 216.055 7.0201 220.583 7.0201C225.111 7.0201 225.111 1.49998 229.638 1.49998C234.166 1.49998 234.166 7.0201 238.693 7.0201C243.221 7.0201 243.221 1.49998 247.748 1.49998C252.276 1.49998 252.237 6.99246 256.764 7.0609C261.291 7.12934 261.604 1.52971 266.109 1.99318C270.615 2.45665 269.384 7.40368 273.484 9.3934C277.583 11.3831 281.323 7.83121 283.4 11.9972C285.478 16.1632 280.165 17.9276 280.661 22.5881C281.158 27.2485 286.373 26.9116 286.451 31.5997C286.528 36.2877 281.169 36.3353 281.17 41.024C281.17 45.7128 286.5 45.7126 286.5 50.4014C286.5 55.0901 281.17 55.0901 281.17 59.7788C281.17 64.4675 286.5 64.4675 286.5 69.1562C286.5 73.8449 281.17 73.845 281.17 78.5337C281.17 83.2224 286.5 83.2224 286.5 87.9111C286.5 92.5998 281.17 92.5998 281.17 97.2885C281.17 101.977 286.5 101.977 286.5 106.666C286.5 111.355 281.17 111.355 281.17 116.043C281.17 120.732 286.5 120.732 286.5 125.421C286.5 130.11 281.17 130.11 281.17 134.798C281.17 139.487 286.5 139.487 286.5 144.176C286.5 148.864 281.17 148.864 281.17 153.553C281.17 158.242 286.526 158.28 286.463 162.969C286.4 167.657 281.17 167.365 280.737 172.032C280.303 176.699 285.668 178.267 283.795 182.535C281.921 186.804 278.048 183.485 274.052 185.688C270.055 187.891 271.412 192.762 266.914 193.293C262.415 193.824 262.053 188.218 257.526 188.301C252.999 188.385 253.047 193.875 248.519 193.875C243.992 193.875 243.991 188.355 239.464 188.355C234.936 188.355 234.936 193.875 230.409 193.875C225.881 193.875 225.881 188.355 221.354 188.355C216.826 188.355 216.826 193.875 212.299 193.875C207.771 193.875 207.771 188.355 203.243 188.355C198.716 188.355 198.716 193.875 194.188 193.875C189.661 193.875 189.661 188.355 185.133 188.355C180.606 188.355 180.606 193.875 176.078 193.875C171.551 193.875 171.551 188.355 167.023 188.355C162.495 188.355 162.495 193.875 157.968 193.875C153.44 193.875 153.44 188.355 148.913 188.355C144.385 188.355 144.385 193.875 139.858 193.875C135.33 193.875 135.33 188.355 130.803 188.355C126.275 188.355 126.275 193.875 121.747 193.875C117.22 193.875 117.22 188.355 112.692 188.355C108.165 188.355 108.165 193.875 103.637 193.875C99.1097 193.875 99.1097 188.355 94.5822 188.355C90.0546 188.355 90.0546 193.875 85.5271 193.875C80.9995 193.875 80.9995 188.355 76.472 188.355C71.9444 188.355 71.9444 193.875 67.4169 193.875C62.8893 193.875 62.8893 188.355 58.3618 188.355C53.8342 188.355 53.8342 193.875 49.3067 193.875C44.7791 193.875 44.7791 188.355 40.2516 188.355Z" stroke="url(#paint0_linear_1541_2476)" stroke-width="3"/>
<g filter="url(#filter1_i_1541_2476)">
<rect x="17.5" y="177.5" width="159" height="253" rx="4" transform="rotate(-90 17.5 177.5)" fill="#EDECDD"/>
</g>
<rect x="16" y="179" width="162" height="256" rx="5.5" transform="rotate(-90 16 179)" stroke="url(#paint1_linear_1541_2476)" stroke-width="3"/>
<defs>
<filter id="filter0_i_1541_2476" x="0" y="0" width="288" height="199.375" filterUnits="userSpaceOnUse" color-interpolation-filters="sRGB">
<feFlood flood-opacity="0" result="BackgroundImageFix"/>
<feBlend mode="normal" in="SourceGraphic" in2="BackgroundImageFix" result="shape"/>
<feColorMatrix in="SourceAlpha" type="matrix" values="0 0 0 0 0 0 0 0 0 0 0 0 0 0 0 0 0 0 127 0" result="hardAlpha"/>
<feOffset dy="4"/>
<feGaussianBlur stdDeviation="2"/>
<feComposite in2="hardAlpha" operator="arithmetic" k2="-1" k3="1"/>
<feColorMatrix type="matrix" values="0 0 0 0 0 0 0 0 0 0 0 0 0 0 0 0 0 0 0.25 0"/>
<feBlend mode="normal" in2="shape" result="effect1_innerShadow_1541_2476"/>
</filter>
<filter id="filter1_i_1541_2476" x="14.5" y="15.5" width="259" height="169" filterUnits="userSpaceOnUse" color-interpolation-filters="sRGB">
<feFlood flood-opacity="0" result="BackgroundImageFix"/>
<feBlend mode="normal" in="SourceGraphic" in2="BackgroundImageFix" result="shape"/>
<feColorMatrix in="SourceAlpha" type="matrix" values="0 0 0 0 0 0 0 0 0 0 0 0 0 0 0 0 0 0 127 0" result="hardAlpha"/>
<feOffset dy="4"/>
<feGaussianBlur stdDeviation="2"/>
<feComposite in2="hardAlpha" operator="arithmetic" k2="-1" k3="1"/>
<feColorMatrix type="matrix" values="0 0 0 0 0 0 0 0 0 0 0 0 0 0 0 0 0 0 0.25 0"/>
<feBlend mode="normal" in2="shape" result="effect1_innerShadow_1541_2476"/>
</filter>
<linearGradient id="paint0_linear_1541_2476" x1="1.5" y1="186.868" x2="294.821" y2="10.6209" gradientUnits="userSpaceOnUse">
<stop stop-color="#CCC6AF"/>
<stop offset="0.144052" stop-color="#D0B185"/>
<stop offset="0.36115" stop-color="#D8C99D"/>
<stop offset="0.494366" stop-color="#EBDFC1"/>
<stop offset="0.598666" stop-color="#D3CBBA"/>
<stop offset="0.828212" stop-color="#D7C49C"/>
<stop offset="1" stop-color="#9D886A"/>
</linearGradient>
<linearGradient id="paint1_linear_1541_2476" x1="23.2914" y1="177.5" x2="184.757" y2="427.693" gradientUnits="userSpaceOnUse">
<stop stop-color="#CCC6AF"/>
<stop offset="0.144052" stop-color="#D0B185"/>
<stop offset="0.36115" stop-color="#D8C99D"/>
<stop offset="0.494366" stop-color="#EBDFC1"/>
<stop offset="0.598666" stop-color="#D3CBBA"/>
<stop offset="0.828212" stop-color="#D7C49C"/>
<stop offset="1" stop-color="#9D886A"/>
</linearGradient>
</defs>
</svg>
