<svg width="16" height="16" viewBox="0 0 16 16" fill="none" xmlns="http://www.w3.org/2000/svg">
<g clip-path="url(#clip0_212_1545)">
<path d="M8.56162 3.31682L8.19178 3.68667C8.04658 3.837 7.96624 4.03834 7.96806 4.24733C7.96987 4.45633 8.0537 4.65624 8.20149 4.80403C8.34927 4.95182 8.54919 5.03564 8.75818 5.03746C8.96718 5.03928 9.16852 4.95893 9.31885 4.81374L11.0413 3.09124C11.1908 2.94177 11.2747 2.73906 11.2747 2.52771C11.2747 2.31635 11.1908 2.11364 11.0413 1.96417L9.30929 0.232109C9.23576 0.15598 9.14781 0.0952563 9.05056 0.053482C8.95331 0.0117078 8.84872 -0.0102807 8.74288 -0.0112004C8.63705 -0.01212 8.53209 0.00804752 8.43413 0.0481255C8.33617 0.0882035 8.24717 0.147389 8.17233 0.22223C8.09749 0.29707 8.03831 0.386066 7.99823 0.484024C7.95815 0.581983 7.93798 0.686942 7.9389 0.792778C7.93982 0.898614 7.96181 1.00321 8.00358 1.10045C8.04536 1.1977 8.10608 1.28566 8.18221 1.35918L8.53691 1.71389C3.76478 2.25271 0.0583448 6.30189 0.0583448 11.2175C0.0583448 11.4289 0.142323 11.6316 0.291804 11.7811C0.441286 11.9306 0.644028 12.0146 0.855427 12.0146C1.06683 12.0146 1.26957 11.9306 1.41905 11.7811C1.56853 11.6316 1.65251 11.4289 1.65251 11.2175C1.65251 7.1755 4.6615 3.83652 8.56162 3.31682ZM13.6088 6.43501H7.23209C6.91807 6.43501 6.60712 6.49686 6.317 6.61703C6.02688 6.7372 5.76327 6.91334 5.54122 7.13539C5.31917 7.35743 5.14304 7.62104 5.02286 7.91116C4.90269 8.20128 4.84084 8.51223 4.84084 8.82625V13.6087C4.84084 13.9228 4.90269 14.2337 5.02286 14.5238C5.14304 14.814 5.31917 15.0776 5.54122 15.2996C5.76327 15.5217 6.02688 15.6978 6.317 15.818C6.60712 15.9381 6.91807 16 7.23209 16H13.6088C14.243 16 14.8512 15.7481 15.2996 15.2996C15.7481 14.8512 16 14.2429 16 13.6087V8.82625C16 8.19206 15.7481 7.58383 15.2996 7.13539C14.8512 6.68694 14.243 6.43501 13.6088 6.43501ZM13.6088 8.02917C13.7134 8.02917 13.8171 8.04979 13.9138 8.08985C14.0105 8.1299 14.0984 8.18862 14.1724 8.26263C14.2464 8.33665 14.3051 8.42452 14.3452 8.52122C14.3852 8.61793 14.4058 8.72158 14.4058 8.82625V13.6087C14.4058 13.8201 14.3219 14.0229 14.1724 14.1724C14.0229 14.3219 13.8202 14.4058 13.6088 14.4058H7.23209C7.02069 14.4058 6.81795 14.3219 6.66847 14.1724C6.51898 14.0229 6.43501 13.8201 6.43501 13.6087V8.82625C6.43501 8.72158 6.45562 8.61793 6.49568 8.52122C6.53574 8.42452 6.59445 8.33665 6.66847 8.26263C6.74248 8.18862 6.83035 8.1299 6.92706 8.08985C7.02377 8.04979 7.12742 8.02917 7.23209 8.02917H13.6088Z" fill="#1C1C1E" fill-opacity="0.7"/>
</g>
<defs>
<clipPath id="clip0_212_1545">
<rect width="16" height="16" fill="white" transform="matrix(-1 0 0 1 16 0)"/>
</clipPath>
</defs>
</svg>
