<svg width="20" height="20" viewBox="0 0 20 20" fill="none" xmlns="http://www.w3.org/2000/svg">
<rect width="20" height="20" rx="10" fill="#F6F6F6"/>
<rect x="0.5" y="0.5" width="19" height="19" rx="9.5" stroke="black" stroke-opacity="0.1"/>
<path d="M9.16667 5C10.0871 5 10.8333 5.74619 10.8333 6.66667V7.5H13.3333C14.2538 7.5 15 8.24619 15 9.16667V13.3333C15 14.1964 14.344 14.9058 13.5034 14.991L13.3333 15H9.16667L8.99658 14.991C8.21196 14.9115 7.5885 14.288 7.50895 13.5034L7.5 13.3333V10.8333H6.66667L6.49658 10.8244C5.71196 10.7448 5.0885 10.1214 5.00895 9.33675L5 9.16667V6.66667C5 5.74619 5.74619 5 6.66667 5H9.16667ZM10.8333 9.16667C10.8333 10.0297 10.1773 10.7392 9.33675 10.8244L9.16667 10.8333H8.33333V13.3333C8.33333 13.7936 8.70643 14.1667 9.16667 14.1667H13.3333C13.7936 14.1667 14.1667 13.7936 14.1667 13.3333V9.16667C14.1667 8.70643 13.7936 8.33333 13.3333 8.33333H10.8333V9.16667ZM12.0833 10.8333C12.3135 10.8333 12.5 11.0199 12.5 11.25V11.6667H12.9167C13.1468 11.6667 13.3333 11.8532 13.3333 12.0833C13.3333 12.3135 13.1468 12.5 12.9167 12.5H12.5V12.9167C12.5 13.1468 12.3135 13.3333 12.0833 13.3333C11.8532 13.3333 11.6667 13.1468 11.6667 12.9167V12.5H11.25C11.0199 12.5 10.8333 12.3135 10.8333 12.0833C10.8333 11.8532 11.0199 11.6667 11.25 11.6667H11.6667V11.25C11.6667 11.0199 11.8532 10.8333 12.0833 10.8333ZM6.66667 5.83333C6.20643 5.83333 5.83333 6.20643 5.83333 6.66667V9.16667C5.83333 9.6269 6.20643 10 6.66667 10H7.5V9.16667C7.5 8.24619 8.24619 7.5 9.16667 7.5H10V6.66667C10 6.20643 9.6269 5.83333 9.16667 5.83333H6.66667ZM9.16667 8.33333C8.70643 8.33333 8.33333 8.70643 8.33333 9.16667V10H9.16667C9.6269 10 10 9.6269 10 9.16667V8.33333H9.16667Z" fill="#1C1C1E"/>
</svg>
