<svg width="16" height="16" viewBox="0 0 16 16" fill="none" xmlns="http://www.w3.org/2000/svg">
<path d="M8 0C12.4183 0 16 3.58172 16 8C16 12.4183 12.4183 16 8 16C3.58172 16 0 12.4183 0 8C0 3.58172 3.58172 0 8 0ZM11.4268 5.18066C11.3486 5.15979 11.2654 5.16062 11.1875 5.18262C11.1098 5.20464 11.039 5.24706 10.9834 5.30566L6.84863 9.44336C6.84119 9.45104 6.83211 9.45676 6.82227 9.46094C6.8124 9.46511 6.80173 9.46777 6.79102 9.46777C6.78038 9.46774 6.76956 9.46509 6.75977 9.46094C6.75005 9.45675 6.74075 9.45096 6.7334 9.44336L4.84668 7.55566C4.79819 7.50687 4.73974 7.4687 4.67578 7.44336C4.61185 7.41804 4.54333 7.40586 4.47461 7.4082C4.40591 7.41055 4.33841 7.42744 4.27637 7.45703C4.21433 7.48665 4.15929 7.52912 4.11426 7.58105C4.03306 7.68335 3.99224 7.81207 4.00098 7.94238C4.00976 8.07276 4.0669 8.19561 4.16113 8.28613L6.53125 10.7158C6.78114 10.9657 6.93838 10.7658 7.09082 10.6133L11.6738 6.03125C11.7206 5.98474 11.7579 5.92909 11.7832 5.86816C11.8085 5.80724 11.8213 5.74175 11.8213 5.67578C11.8195 5.56125 11.7794 5.45088 11.708 5.36133C11.6366 5.27185 11.538 5.20784 11.4268 5.18066Z" fill="#1C1C1E"/>
</svg>
