<svg width="20" height="20" viewBox="0 0 20 20" fill="none" xmlns="http://www.w3.org/2000/svg">
<rect width="20" height="20" rx="10" fill="#F6F6F6"/>
<rect x="0.5" y="0.5" width="19" height="19" rx="9.5" stroke="black" stroke-opacity="0.1"/>
<path d="M8.56152 7.5H11.4385C12.1266 7.50001 12.7265 7.96824 12.8936 8.63574L13.8936 12.6357C14.1302 13.5825 13.4143 14.5 12.4385 14.5H7.56152C6.58568 14.5 5.86977 13.5825 6.10645 12.6357L7.10645 8.63574C7.27354 7.96824 7.87339 7.50001 8.56152 7.5Z" stroke="#1C1C1C"/>
<path d="M10.5 9.5V6.5C10.5 6.22386 10.2761 6 10 6C9.72386 6 9.5 6.22386 9.5 6.5V9.5C9.5 9.77614 9.27614 10 9 10C8.72386 10 8.5 9.77614 8.5 9.5V6.5C8.5 5.67157 9.17157 5 10 5C10.8284 5 11.5 5.67157 11.5 6.5V9.5C11.5 9.77614 11.2761 10 11 10C10.7239 10 10.5 9.77614 10.5 9.5Z" fill="#1C1C1C"/>
</svg>
