<svg width="34" height="34" viewBox="0 0 34 34" fill="none" xmlns="http://www.w3.org/2000/svg">
<path d="M27.7383 10.5117C27.7385 10.6986 27.7016 10.8838 27.6299 11.0564C27.5582 11.229 27.453 11.3857 27.3204 11.5175L14.3367 24.5013C13.9046 24.9334 13.4583 25.5 12.75 24.7917L6.035 17.9067C5.76801 17.6502 5.60626 17.3034 5.58137 16.934C5.55648 16.5646 5.67024 16.1992 5.90042 15.9092C6.02807 15.7619 6.18475 15.6425 6.36064 15.5585C6.53654 15.4746 6.72788 15.4278 6.92268 15.4211C7.11748 15.4145 7.31156 15.4481 7.49277 15.5199C7.67399 15.5917 7.83844 15.7001 7.97583 15.8384L13.3238 21.1863C13.3449 21.2081 13.3702 21.2255 13.3982 21.2374C13.4262 21.2492 13.4563 21.2554 13.4867 21.2554C13.5171 21.2554 13.5472 21.2492 13.5751 21.2374C13.6031 21.2255 13.6284 21.2081 13.6496 21.1863L25.3654 9.46336C25.5232 9.29706 25.723 9.17638 25.9436 9.11406C26.1643 9.05173 26.3977 9.05005 26.6192 9.1092C26.9347 9.18603 27.2158 9.36544 27.4183 9.61927C27.6209 9.8731 27.7334 10.187 27.7383 10.5117Z" fill="white"/>
</svg>
