<svg width="11" height="10" viewBox="0 0 11 10" fill="none" xmlns="http://www.w3.org/2000/svg">
<path d="M7.18945 0C7.75758 0 8.27715 0.320974 8.53125 0.829102L8.74805 1.26172C8.83274 1.43111 9.00593 1.53809 9.19531 1.53809H9.5C10.3283 1.53809 10.9998 2.20983 11 3.03809V7.96191C10.9998 8.79017 10.3283 9.46191 9.5 9.46191H1.5C0.671698 9.46191 0.000202517 8.79017 0 7.96191V3.03809C0.000202904 2.20983 0.671698 1.53809 1.5 1.53809H1.80469C1.99407 1.53809 2.16726 1.43111 2.25195 1.26172L2.46875 0.829102C2.72285 0.320973 3.24242 0 3.81055 0H7.18945ZM3.81055 1C3.62119 1 3.44799 1.10702 3.36328 1.27637L3.14648 1.70898C2.8924 2.21716 2.37285 2.53809 1.80469 2.53809H1.5C1.22398 2.53809 1.0002 2.76212 1 3.03809V7.96191C1.0002 8.23788 1.22398 8.46191 1.5 8.46191H9.5C9.77602 8.46191 9.9998 8.23788 10 7.96191V3.03809C9.9998 2.76212 9.77602 2.53809 9.5 2.53809H9.19531C8.62715 2.53809 8.1076 2.21716 7.85352 1.70898L7.63672 1.27637C7.55201 1.10702 7.37881 1 7.18945 1H3.81055ZM5.5 2.73047C6.83815 2.73047 7.92273 3.8152 7.92285 5.15332C7.92285 6.49155 6.83823 7.57617 5.5 7.57617C4.16188 7.57605 3.07715 6.49147 3.07715 5.15332C3.07727 3.81527 4.16195 2.73059 5.5 2.73047ZM5.5 3.73047C4.71423 3.73059 4.07727 4.36756 4.07715 5.15332C4.07715 5.93919 4.71416 6.57605 5.5 6.57617C6.28594 6.57617 6.92285 5.93926 6.92285 5.15332C6.92273 4.36748 6.28587 3.73047 5.5 3.73047Z" fill="white"/>
</svg>
