<svg width="16" height="16" viewBox="0 0 16 16" fill="none" xmlns="http://www.w3.org/2000/svg">
<rect width="16" height="16" rx="8" fill="#ADADAD"/>
<path d="M11.79 5.71C11.79 5.77598 11.777 5.84131 11.7517 5.90224C11.7264 5.96317 11.6893 6.01849 11.6425 6.065L7.05998 10.6475C6.90748 10.8 6.74998 11 6.49998 10.75L4.12998 8.32C4.03575 8.22947 3.97866 8.10706 3.96988 7.97669C3.96109 7.84631 4.00124 7.71735 4.08248 7.615C4.12754 7.56301 4.18283 7.52088 4.24491 7.49124C4.307 7.4616 4.37453 7.44509 4.44328 7.44275C4.51203 7.4404 4.58053 7.45227 4.64449 7.4776C4.70845 7.50294 4.76649 7.5412 4.81498 7.59L6.70248 9.4775C6.70994 9.48521 6.71888 9.49134 6.72876 9.49553C6.73863 9.49972 6.74925 9.50188 6.75998 9.50188C6.77071 9.50188 6.78133 9.49972 6.79121 9.49553C6.80109 9.49134 6.81002 9.48521 6.81748 9.4775L10.9525 5.34C11.0082 5.2813 11.0787 5.23871 11.1566 5.21671C11.2344 5.19472 11.3168 5.19412 11.395 5.215C11.5063 5.24212 11.6056 5.30544 11.677 5.39503C11.7485 5.48461 11.7883 5.5954 11.79 5.71Z" fill="white"/>
</svg>
