<svg width="20" height="20" viewBox="0 0 20 20" fill="none" xmlns="http://www.w3.org/2000/svg">
<path d="M16 0C17.8856 0 18.8283 0.000152334 19.4141 0.585938C19.9998 1.17172 20 2.11438 20 4V16C20 17.8856 19.9998 18.8283 19.4141 19.4141C18.8283 19.9998 17.8856 20 16 20H4C2.11438 20 1.17172 19.9998 0.585938 19.4141C0.000152334 18.8283 0 17.8856 0 16V4C0 2.11438 0.00015109 1.17172 0.585938 0.585938C1.17172 0.00015109 2.11438 0 4 0H16ZM1.39551 14.6045C1.39551 16.4901 1.39566 17.4328 1.98145 18.0186C2.56723 18.6043 3.50989 18.6045 5.39551 18.6045H12.0371L9.52148 16.0889C9.52031 16.0878 9.51875 16.0871 9.51758 16.0859C9.51546 16.0839 9.51381 16.0811 9.51172 16.0791L1.39551 7.96289V14.6045ZM10.9736 15.5674L14.0107 18.6045H16.6045C17.5473 18.6045 18.0186 18.6044 18.3115 18.3115C18.6044 18.0186 18.6045 17.5473 18.6045 16.6045V7.55664L10.9736 15.5674ZM12.5898 6.91309C11.9855 6.91309 11.4532 7.21859 11.1494 7.68555L9.91602 9.58008L8.68262 7.68555C8.37883 7.21874 7.84737 6.91318 7.24316 6.91309C6.30359 6.91309 5.54199 7.65274 5.54199 8.56445C5.542 8.6037 5.54327 8.64618 5.54688 8.69238L5.58008 9.125C5.58029 9.12619 5.58082 9.12771 5.58105 9.12891C5.62521 9.38062 5.71421 9.7247 5.88867 10.085C6.16067 10.6463 6.54715 11.0616 6.70117 11.2148L6.76562 11.2764L6.79492 11.3018L9.91602 14.3311L13.0303 11.3105C13.0431 11.2978 13.0647 11.2755 13.0938 11.2451C13.1522 11.1838 13.2383 11.0899 13.3379 10.9707C13.542 10.7266 13.7798 10.4033 13.96 10.0537C14.1208 9.74151 14.2024 9.42176 14.2451 9.18262L14.2842 8.69238C14.2888 8.6337 14.291 8.59419 14.291 8.56445C14.291 7.6528 13.5293 6.91317 12.5898 6.91309ZM3.39551 1.39551C2.4527 1.39551 1.98137 1.39558 1.68848 1.68848C1.39558 1.98137 1.39551 2.4527 1.39551 3.39551V5.98926L4.08789 8.68164C4.08629 8.64273 4.08301 8.60372 4.08301 8.56445C4.08301 6.87128 5.49824 5.49805 7.24316 5.49805C8.36864 5.49814 9.35643 6.06985 9.91602 6.92969C10.4032 6.18094 11.2154 5.65099 12.1602 5.52637L8.3457 1.39551H3.39551ZM14.7451 6.27051C14.7877 6.31666 14.8198 6.36879 14.8477 6.42188C15.3974 6.96733 15.7391 7.71009 15.748 8.53125L18.6045 5.53223V3.39551C18.6045 2.4527 18.6044 1.98137 18.3115 1.68848C18.0186 1.39558 17.5473 1.39551 16.6045 1.39551H10.2451L14.7451 6.27051Z" fill="black"/>
</svg>
