<svg width="227" height="288" viewBox="0 0 227 288" fill="none" xmlns="http://www.w3.org/2000/svg">
<g filter="url(#filter0_i_1541_2499)">
<path fill-rule="evenodd" clip-rule="evenodd" d="M7.92554 40.2516C7.92554 35.724 1.46852 35.6848 1.54818 31.1578C1.62784 26.6307 7.92868 26.9229 8.46814 22.4175C9.00761 17.9121 2.55367 16.3539 4.86969 12.2543C7.18571 8.15458 11.8178 11.413 16.6672 9.33561C21.5165 7.2582 19.9176 2.5366 25.3425 2.0403C30.7674 1.54401 31.1891 6.95611 36.6461 6.87893C42.1031 6.80176 42.0487 1.5002 47.5065 1.50001C52.9642 1.49982 52.9644 6.83037 58.4221 6.83037C63.8799 6.83037 63.8799 1.5 69.3377 1.5C74.7954 1.5 74.7954 6.83037 80.2532 6.83037C85.711 6.83037 85.711 1.5 91.1687 1.5C96.6265 1.5 96.6265 6.83037 102.084 6.83037C107.542 6.83037 107.542 1.5 113 1.5C118.458 1.5 118.458 6.83037 123.915 6.83037C129.373 6.83037 129.373 1.5 134.831 1.5C140.289 1.5 140.289 6.83037 145.746 6.83037C151.204 6.83037 151.204 1.5 156.662 1.5C162.12 1.5 162.12 6.83037 167.577 6.83037C173.035 6.83037 173.035 1.5 178.493 1.5C183.951 1.5 183.907 6.80434 189.364 6.86718C194.821 6.93002 195.184 1.5244 200.617 1.95749C206.05 2.39059 204.602 7.18449 209.57 9.05785C214.539 10.9312 219.006 7.44711 221.57 11.4437C224.135 15.4403 217.749 17.1911 218.367 21.6896C218.985 26.188 225.268 25.8517 225.365 30.3786C225.463 34.9054 219.003 34.9537 219.003 39.4812C219.003 44.0088 225.429 44.0086 225.429 48.5361C225.429 53.0637 219.003 53.0637 219.003 57.5912C219.003 62.1188 225.429 62.1188 225.429 66.6463C225.429 71.1739 219.003 71.1739 219.003 75.7014C219.003 80.229 225.429 80.229 225.429 84.7565C225.429 89.2841 219.003 89.2841 219.003 93.8116C219.003 98.3392 225.429 98.3392 225.429 102.867C225.429 107.394 219.003 107.394 219.003 111.922C219.003 116.449 225.429 116.449 225.429 120.977C225.429 125.504 219.003 125.504 219.003 130.032C219.003 134.56 225.429 134.56 225.429 139.087C225.429 143.615 219.003 143.615 219.003 148.142C219.003 152.67 225.429 152.67 225.429 157.197C225.429 161.725 219.003 161.725 219.003 166.252C219.003 170.78 225.429 170.78 225.429 175.308C225.429 179.835 219.003 179.835 219.003 184.363C219.003 188.89 225.429 188.89 225.429 193.418C225.429 197.945 219.003 197.945 219.003 202.473C219.003 207 225.429 207 225.429 211.528C225.429 216.055 219.003 216.055 219.003 220.583C219.003 225.111 225.429 225.111 225.429 229.638C225.429 234.166 219.003 234.166 219.003 238.693C219.003 243.221 225.429 243.221 225.429 247.748C225.429 252.276 219.035 252.237 218.956 256.764C218.876 261.291 225.394 261.604 224.854 266.109C224.315 270.615 218.557 269.384 216.24 273.484C213.924 277.583 218.059 281.323 213.21 283.4C208.36 285.478 206.307 280.165 200.882 280.661C195.457 281.158 195.849 286.373 190.392 286.451C184.935 286.528 184.88 281.169 179.422 281.17C173.964 281.17 173.964 286.5 168.506 286.5C163.049 286.5 163.049 281.17 157.591 281.17C152.133 281.17 152.133 286.5 146.675 286.5C141.218 286.5 141.218 281.17 135.76 281.17C130.302 281.17 130.302 286.5 124.844 286.5C119.386 286.5 119.386 281.17 113.929 281.17C108.471 281.17 108.471 286.5 103.013 286.5C97.5554 286.5 97.5554 281.17 92.0976 281.17C86.6398 281.17 86.6398 286.5 81.1821 286.5C75.7243 286.5 75.7243 281.17 70.2665 281.17C64.8088 281.17 64.8088 286.5 59.351 286.5C53.8932 286.5 53.8932 281.17 48.4355 281.17C42.9777 281.17 42.9328 286.526 37.4755 286.463C32.0183 286.4 32.3587 281.17 26.926 280.737C21.4932 280.303 19.6681 285.668 14.6995 283.795C9.73082 281.921 13.5946 278.048 11.0301 274.052C8.46552 270.055 2.79525 271.412 2.17736 266.914C1.55948 262.415 8.08544 262.053 7.9879 257.526C7.89037 252.999 1.50042 253.047 1.50002 248.519C1.49962 243.992 7.92554 243.991 7.92554 239.464C7.92554 234.936 1.5 234.936 1.5 230.409C1.5 225.881 7.92554 225.881 7.92554 221.354C7.92554 216.826 1.5 216.826 1.5 212.299C1.5 207.771 7.92554 207.771 7.92554 203.243C7.92554 198.716 1.5 198.716 1.5 194.188C1.5 189.661 7.92554 189.661 7.92554 185.133C7.92554 180.606 1.5 180.606 1.5 176.078C1.5 171.551 7.92554 171.551 7.92554 167.023C7.92554 162.495 1.5 162.495 1.5 157.968C1.5 153.44 7.92554 153.44 7.92554 148.913C7.92554 144.385 1.5 144.385 1.5 139.858C1.5 135.33 7.92554 135.33 7.92554 130.803C7.92554 126.275 1.5 126.275 1.5 121.747C1.5 117.22 7.92554 117.22 7.92554 112.692C7.92554 108.165 1.5 108.165 1.5 103.637C1.5 99.1097 7.92554 99.1097 7.92554 94.5822C7.92554 90.0546 1.5 90.0546 1.5 85.5271C1.5 80.9995 7.92554 80.9995 7.92554 76.472C7.92554 71.9444 1.5 71.9444 1.5 67.4169C1.5 62.8893 7.92554 62.8893 7.92554 58.3618C7.92554 53.8342 1.5 53.8342 1.5 49.3067C1.5 44.7791 7.92554 44.7791 7.92554 40.2516Z" fill="#EDECDD"/>
</g>
<path fill-rule="evenodd" clip-rule="evenodd" d="M7.92554 40.2516C7.92554 35.724 1.46852 35.6848 1.54818 31.1578C1.62784 26.6307 7.92868 26.9229 8.46814 22.4175C9.00761 17.9121 2.55367 16.3539 4.86969 12.2543C7.18571 8.15458 11.8178 11.413 16.6672 9.33561C21.5165 7.2582 19.9176 2.5366 25.3425 2.0403C30.7674 1.54401 31.1891 6.95611 36.6461 6.87893C42.1031 6.80176 42.0487 1.5002 47.5065 1.50001C52.9642 1.49982 52.9644 6.83037 58.4221 6.83037C63.8799 6.83037 63.8799 1.5 69.3377 1.5C74.7954 1.5 74.7954 6.83037 80.2532 6.83037C85.711 6.83037 85.711 1.5 91.1687 1.5C96.6265 1.5 96.6265 6.83037 102.084 6.83037C107.542 6.83037 107.542 1.5 113 1.5C118.458 1.5 118.458 6.83037 123.915 6.83037C129.373 6.83037 129.373 1.5 134.831 1.5C140.289 1.5 140.289 6.83037 145.746 6.83037C151.204 6.83037 151.204 1.5 156.662 1.5C162.12 1.5 162.12 6.83037 167.577 6.83037C173.035 6.83037 173.035 1.5 178.493 1.5C183.951 1.5 183.907 6.80434 189.364 6.86718C194.821 6.93002 195.184 1.5244 200.617 1.95749C206.05 2.39059 204.602 7.18449 209.57 9.05785C214.539 10.9312 219.006 7.44711 221.57 11.4437C224.135 15.4403 217.749 17.1911 218.367 21.6896C218.985 26.188 225.268 25.8517 225.365 30.3786C225.463 34.9054 219.003 34.9537 219.003 39.4812C219.003 44.0088 225.429 44.0086 225.429 48.5361C225.429 53.0637 219.003 53.0637 219.003 57.5912C219.003 62.1188 225.429 62.1188 225.429 66.6463C225.429 71.1739 219.003 71.1739 219.003 75.7014C219.003 80.229 225.429 80.229 225.429 84.7565C225.429 89.2841 219.003 89.2841 219.003 93.8116C219.003 98.3392 225.429 98.3392 225.429 102.867C225.429 107.394 219.003 107.394 219.003 111.922C219.003 116.449 225.429 116.449 225.429 120.977C225.429 125.504 219.003 125.504 219.003 130.032C219.003 134.56 225.429 134.56 225.429 139.087C225.429 143.615 219.003 143.615 219.003 148.142C219.003 152.67 225.429 152.67 225.429 157.197C225.429 161.725 219.003 161.725 219.003 166.252C219.003 170.78 225.429 170.78 225.429 175.308C225.429 179.835 219.003 179.835 219.003 184.363C219.003 188.89 225.429 188.89 225.429 193.418C225.429 197.945 219.003 197.945 219.003 202.473C219.003 207 225.429 207 225.429 211.528C225.429 216.055 219.003 216.055 219.003 220.583C219.003 225.111 225.429 225.111 225.429 229.638C225.429 234.166 219.003 234.166 219.003 238.693C219.003 243.221 225.429 243.221 225.429 247.748C225.429 252.276 219.035 252.237 218.956 256.764C218.876 261.291 225.394 261.604 224.854 266.109C224.315 270.615 218.557 269.384 216.24 273.484C213.924 277.583 218.059 281.323 213.21 283.4C208.36 285.478 206.307 280.165 200.882 280.661C195.457 281.158 195.849 286.373 190.392 286.451C184.935 286.528 184.88 281.169 179.422 281.17C173.964 281.17 173.964 286.5 168.506 286.5C163.049 286.5 163.049 281.17 157.591 281.17C152.133 281.17 152.133 286.5 146.675 286.5C141.218 286.5 141.218 281.17 135.76 281.17C130.302 281.17 130.302 286.5 124.844 286.5C119.386 286.5 119.386 281.17 113.929 281.17C108.471 281.17 108.471 286.5 103.013 286.5C97.5554 286.5 97.5554 281.17 92.0976 281.17C86.6398 281.17 86.6398 286.5 81.1821 286.5C75.7243 286.5 75.7243 281.17 70.2665 281.17C64.8088 281.17 64.8088 286.5 59.351 286.5C53.8932 286.5 53.8932 281.17 48.4355 281.17C42.9777 281.17 42.9328 286.526 37.4755 286.463C32.0183 286.4 32.3587 281.17 26.926 280.737C21.4932 280.303 19.6681 285.668 14.6995 283.795C9.73082 281.921 13.5946 278.048 11.0301 274.052C8.46552 270.055 2.79525 271.412 2.17736 266.914C1.55948 262.415 8.08544 262.053 7.9879 257.526C7.89037 252.999 1.50042 253.047 1.50002 248.519C1.49962 243.992 7.92554 243.991 7.92554 239.464C7.92554 234.936 1.5 234.936 1.5 230.409C1.5 225.881 7.92554 225.881 7.92554 221.354C7.92554 216.826 1.5 216.826 1.5 212.299C1.5 207.771 7.92554 207.771 7.92554 203.243C7.92554 198.716 1.5 198.716 1.5 194.188C1.5 189.661 7.92554 189.661 7.92554 185.133C7.92554 180.606 1.5 180.606 1.5 176.078C1.5 171.551 7.92554 171.551 7.92554 167.023C7.92554 162.495 1.5 162.495 1.5 157.968C1.5 153.44 7.92554 153.44 7.92554 148.913C7.92554 144.385 1.5 144.385 1.5 139.858C1.5 135.33 7.92554 135.33 7.92554 130.803C7.92554 126.275 1.5 126.275 1.5 121.747C1.5 117.22 7.92554 117.22 7.92554 112.692C7.92554 108.165 1.5 108.165 1.5 103.637C1.5 99.1097 7.92554 99.1097 7.92554 94.5822C7.92554 90.0546 1.5 90.0546 1.5 85.5271C1.5 80.9995 7.92554 80.9995 7.92554 76.472C7.92554 71.9444 1.5 71.9444 1.5 67.4169C1.5 62.8893 7.92554 62.8893 7.92554 58.3618C7.92554 53.8342 1.5 53.8342 1.5 49.3067C1.5 44.7791 7.92554 44.7791 7.92554 40.2516Z" stroke="url(#paint0_linear_1541_2499)" stroke-width="3"/>
<g filter="url(#filter1_i_1541_2499)">
<rect x="21.5" y="17.5" width="185" height="253" rx="4" fill="#EDECDD"/>
</g>
<rect x="20" y="16" width="188" height="256" rx="5.5" stroke="url(#paint1_linear_1541_2499)" stroke-width="3"/>
<defs>
<filter id="filter0_i_1541_2499" x="0" y="0" width="226.928" height="292" filterUnits="userSpaceOnUse" color-interpolation-filters="sRGB">
<feFlood flood-opacity="0" result="BackgroundImageFix"/>
<feBlend mode="normal" in="SourceGraphic" in2="BackgroundImageFix" result="shape"/>
<feColorMatrix in="SourceAlpha" type="matrix" values="0 0 0 0 0 0 0 0 0 0 0 0 0 0 0 0 0 0 127 0" result="hardAlpha"/>
<feOffset dy="4"/>
<feGaussianBlur stdDeviation="2"/>
<feComposite in2="hardAlpha" operator="arithmetic" k2="-1" k3="1"/>
<feColorMatrix type="matrix" values="0 0 0 0 0 0 0 0 0 0 0 0 0 0 0 0 0 0 0.25 0"/>
<feBlend mode="normal" in2="shape" result="effect1_innerShadow_1541_2499"/>
</filter>
<filter id="filter1_i_1541_2499" x="18.5" y="14.5" width="191" height="263" filterUnits="userSpaceOnUse" color-interpolation-filters="sRGB">
<feFlood flood-opacity="0" result="BackgroundImageFix"/>
<feBlend mode="normal" in="SourceGraphic" in2="BackgroundImageFix" result="shape"/>
<feColorMatrix in="SourceAlpha" type="matrix" values="0 0 0 0 0 0 0 0 0 0 0 0 0 0 0 0 0 0 127 0" result="hardAlpha"/>
<feOffset dy="4"/>
<feGaussianBlur stdDeviation="2"/>
<feComposite in2="hardAlpha" operator="arithmetic" k2="-1" k3="1"/>
<feColorMatrix type="matrix" values="0 0 0 0 0 0 0 0 0 0 0 0 0 0 0 0 0 0 0.25 0"/>
<feBlend mode="normal" in2="shape" result="effect1_innerShadow_1541_2499"/>
</filter>
<linearGradient id="paint0_linear_1541_2499" x1="9.65637" y1="1.5" x2="172.376" y2="316.726" gradientUnits="userSpaceOnUse">
<stop stop-color="#CCC6AF"/>
<stop offset="0.144052" stop-color="#D0B185"/>
<stop offset="0.36115" stop-color="#D8C99D"/>
<stop offset="0.494366" stop-color="#EBDFC1"/>
<stop offset="0.598666" stop-color="#D3CBBA"/>
<stop offset="0.828212" stop-color="#D7C49C"/>
<stop offset="1" stop-color="#9D886A"/>
</linearGradient>
<linearGradient id="paint1_linear_1541_2499" x1="28.2384" y1="17.5" x2="178.563" y2="288.517" gradientUnits="userSpaceOnUse">
<stop stop-color="#CCC6AF"/>
<stop offset="0.144052" stop-color="#D0B185"/>
<stop offset="0.36115" stop-color="#D8C99D"/>
<stop offset="0.494366" stop-color="#EBDFC1"/>
<stop offset="0.598666" stop-color="#D3CBBA"/>
<stop offset="0.828212" stop-color="#D7C49C"/>
<stop offset="1" stop-color="#9D886A"/>
</linearGradient>
</defs>
</svg>
