<svg width="10" height="10" viewBox="0 0 10 10" fill="none" xmlns="http://www.w3.org/2000/svg">
<path d="M0 4.95703C0 4.75 0.0742188 4.57227 0.222656 4.42383C0.371094 4.27539 0.548828 4.20117 0.755859 4.20117H4.20703V0.755859C4.20703 0.548828 4.2793 0.371094 4.42383 0.222656C4.56836 0.0742188 4.74609 0 4.95703 0C5.16406 0 5.3418 0.0742188 5.49023 0.222656C5.63867 0.371094 5.71289 0.548828 5.71289 0.755859V4.20117H9.16406C9.36719 4.20117 9.54297 4.27539 9.69141 4.42383C9.83984 4.57227 9.91406 4.75 9.91406 4.95703C9.91406 5.16797 9.83984 5.34766 9.69141 5.49609C9.54297 5.64062 9.36719 5.71289 9.16406 5.71289H5.71289V9.16406C5.71289 9.36719 5.63867 9.54297 5.49023 9.69141C5.3418 9.83984 5.16406 9.91406 4.95703 9.91406C4.74609 9.91406 4.56836 9.83984 4.42383 9.69141C4.2793 9.54297 4.20703 9.36719 4.20703 9.16406V5.71289H0.755859C0.548828 5.71289 0.371094 5.64062 0.222656 5.49609C0.0742188 5.34766 0 5.16797 0 4.95703Z" fill="black"/>
</svg>
