<svg width="24" height="24" viewBox="0 0 24 24" fill="none" xmlns="http://www.w3.org/2000/svg">
<path d="M6.86816 8.87516C7.48917 8.87527 7.99316 9.37913 7.99316 10.0002C7.99314 10.6212 7.48915 11.1251 6.86816 11.1252H5.94824C5.36503 11.1252 4.99937 11.3052 4.875 11.4084V18.0939C5.00157 18.197 5.36714 18.3771 5.94824 18.3771H18.0488C18.6324 18.3771 18.9984 18.197 19.125 18.0939V11.4084C18.9983 11.3052 18.6322 11.1252 18.0488 11.1252H17.1299C16.5088 11.1252 16.0049 10.6212 16.0049 10.0002C16.0049 9.37907 16.5088 8.87516 17.1299 8.87516H18.0488C19.9448 8.87516 21.3748 9.91322 21.375 11.2912V18.2091C21.3747 19.5871 19.9447 20.6252 18.0488 20.6252H5.95117C4.05528 20.6252 2.6253 19.5871 2.625 18.2091V11.2912C2.62524 9.91327 4.05475 8.87523 5.94824 8.87516H6.86816ZM11.8086 1.94743C11.9799 1.91757 12.1581 1.92717 12.3291 1.97965C12.3324 1.98067 12.3355 1.98251 12.3389 1.98356C12.432 2.0131 12.5233 2.05394 12.6094 2.10954L16.8262 4.82633C17.3484 5.16388 17.4983 5.8595 17.1611 6.382C16.9479 6.71704 16.5846 6.8975 16.2168 6.89762C16.0083 6.89762 15.7972 6.84162 15.6074 6.71989L13.125 5.12028V14.9816C13.1249 15.6026 12.621 16.1066 12 16.1066C11.379 16.1066 10.8751 15.6026 10.875 14.9816V5.12223L8.39258 6.71989C8.20284 6.84158 7.99164 6.89762 7.7832 6.89762C7.41304 6.89748 7.05246 6.71468 6.83691 6.382C6.49948 5.85942 6.65175 5.16388 7.17188 4.82633L11.3564 2.13297C11.3895 2.10981 11.4239 2.08881 11.459 2.0695L11.4902 2.05387C11.4926 2.05268 11.4947 2.05114 11.4971 2.04996C11.5608 2.01802 11.6271 1.9921 11.6953 1.97282C11.6976 1.97217 11.6999 1.97149 11.7021 1.97086C11.7353 1.96172 11.7689 1.95448 11.8027 1.9484C11.8047 1.94806 11.8066 1.94776 11.8086 1.94743Z" fill="black" fill-opacity="0.5"/>
</svg>
