<svg width="193" height="289" viewBox="0 0 193 289" fill="none" xmlns="http://www.w3.org/2000/svg">
<g filter="url(#filter0_i_1541_2503)">
<path fill-rule="evenodd" clip-rule="evenodd" d="M7.42327 40.7516C7.42327 36.224 1.97343 36.1848 2.04067 31.6578C2.1079 27.1307 7.42593 27.4229 7.88125 22.9175C8.33656 18.4121 2.88932 16.8539 4.84408 12.7543C6.79885 8.65458 10.7084 11.913 14.8014 9.83561C18.8943 7.7582 17.5448 3.0366 22.1235 2.5403C26.7022 2.04401 27.0582 7.45611 31.664 7.37893C36.2698 7.30176 36.2239 2.0002 40.8303 2.00001C45.4368 1.99982 45.4369 7.33037 50.0434 7.33037C54.6498 7.33037 54.6498 2 59.2563 2C63.8627 2 63.8627 7.33037 68.4692 7.33037C73.0757 7.33037 73.0757 2 77.6821 2C82.2886 2 82.2886 7.33037 86.895 7.33037C91.5015 7.33037 91.5015 2 96.108 2C100.714 2 100.714 7.33037 105.321 7.33037C109.927 7.33037 109.927 2 114.534 2C119.14 2 119.14 7.33037 123.747 7.33037C128.353 7.33037 128.353 2 132.96 2C137.566 2 137.566 7.33037 142.173 7.33037C146.779 7.33037 146.779 2 151.385 2C155.992 2 155.955 7.30434 160.561 7.36718C165.167 7.43002 165.473 2.0244 170.059 2.45749C174.644 2.89059 173.422 7.68449 177.615 9.55785C181.809 11.4312 185.579 7.94711 187.744 11.9437C189.908 15.9403 184.518 17.6911 185.04 22.1896C185.561 26.688 190.864 26.3517 190.947 30.8786C191.029 35.4054 185.576 35.4537 185.577 39.9812C185.577 44.5088 191 44.5086 191 49.0361C191 53.5637 185.577 53.5637 185.577 58.0912C185.577 62.6188 191 62.6188 191 67.1463C191 71.6739 185.577 71.6739 185.577 76.2014C185.577 80.729 191 80.729 191 85.2565C191 89.7841 185.577 89.7841 185.577 94.3116C185.577 98.8392 191 98.8392 191 103.367C191 107.894 185.577 107.894 185.577 112.422C185.577 116.949 191 116.949 191 121.477C191 126.004 185.577 126.004 185.577 130.532C185.577 135.06 191 135.06 191 139.587C191 144.115 185.577 144.115 185.577 148.642C185.577 153.17 191 153.17 191 157.697C191 162.225 185.577 162.225 185.577 166.752C185.577 171.28 191 171.28 191 175.808C191 180.335 185.577 180.335 185.577 184.863C185.577 189.39 191 189.39 191 193.918C191 198.445 185.577 198.445 185.577 202.973C185.577 207.5 191 207.5 191 212.028C191 216.555 185.577 216.555 185.577 221.083C185.577 225.611 191 225.611 191 230.138C191 234.666 185.577 234.666 185.577 239.193C185.577 243.721 191 243.721 191 248.248C191 252.776 185.604 252.737 185.537 257.264C185.469 261.791 190.971 262.104 190.515 266.609C190.06 271.115 185.2 269.884 183.245 273.984C181.29 278.083 184.78 281.823 180.687 283.9C176.594 285.978 174.861 280.665 170.282 281.161C165.703 281.658 166.034 286.873 161.428 286.951C156.823 287.028 156.776 281.669 152.169 281.67C147.563 281.67 147.563 287 142.957 287C138.35 287 138.35 281.67 133.744 281.67C129.137 281.67 129.137 287 124.531 287C119.924 287 119.924 281.67 115.318 281.67C110.711 281.67 110.711 287 106.105 287C101.498 287 101.498 281.67 96.892 281.67C92.2855 281.67 92.2855 287 87.679 287C83.0726 287 83.0726 281.67 78.4661 281.67C73.8597 281.67 73.8597 287 69.2532 287C64.6467 287 64.6467 281.67 60.0403 281.67C55.4338 281.67 55.4338 287 50.8274 287C46.2209 287 46.2209 281.67 41.6144 281.67C37.008 281.67 36.9701 287.026 32.364 286.963C27.758 286.9 28.0453 281.67 23.46 281.237C18.8747 280.803 17.3342 286.168 13.1406 284.295C8.94697 282.421 12.2081 278.548 10.0436 274.552C7.87903 270.555 3.09321 271.912 2.57171 267.414C2.0502 262.915 7.55824 262.553 7.47592 258.026C7.39359 253.499 2.00036 253.547 2.00002 249.019C1.99968 244.492 7.42327 244.491 7.42327 239.964C7.42327 235.436 2 235.436 2 230.909C2 226.381 7.42327 226.381 7.42327 221.854C7.42327 217.326 2 217.326 2 212.799C2 208.271 7.42327 208.271 7.42327 203.743C7.42327 199.216 2 199.216 2 194.688C2 190.161 7.42327 190.161 7.42327 185.633C7.42327 181.106 2 181.106 2 176.578C2 172.051 7.42327 172.051 7.42327 167.523C7.42327 162.995 2 162.995 2 158.468C2 153.94 7.42327 153.94 7.42327 149.413C7.42327 144.885 2 144.885 2 140.358C2 135.83 7.42327 135.83 7.42327 131.303C7.42327 126.775 2 126.775 2 122.247C2 117.72 7.42327 117.72 7.42327 113.192C7.42327 108.665 2 108.665 2 104.137C2 99.6097 7.42327 99.6097 7.42327 95.0822C7.42327 90.5546 2 90.5546 2 86.0271C2 81.4995 7.42327 81.4995 7.42327 76.972C7.42327 72.4444 2 72.4444 2 67.9169C2 63.3893 7.42327 63.3893 7.42327 58.8618C7.42327 54.3342 2 54.3342 2 49.8067C2 45.2791 7.42327 45.2791 7.42327 40.7516Z" fill="#EDECDD"/>
</g>
<path fill-rule="evenodd" clip-rule="evenodd" d="M7.42327 40.7516C7.42327 36.224 1.97343 36.1848 2.04067 31.6578C2.1079 27.1307 7.42593 27.4229 7.88125 22.9175C8.33656 18.4121 2.88932 16.8539 4.84408 12.7543C6.79885 8.65458 10.7084 11.913 14.8014 9.83561C18.8943 7.7582 17.5448 3.0366 22.1235 2.5403C26.7022 2.04401 27.0582 7.45611 31.664 7.37893C36.2698 7.30176 36.2239 2.0002 40.8303 2.00001C45.4368 1.99982 45.4369 7.33037 50.0434 7.33037C54.6498 7.33037 54.6498 2 59.2563 2C63.8627 2 63.8627 7.33037 68.4692 7.33037C73.0757 7.33037 73.0757 2 77.6821 2C82.2886 2 82.2886 7.33037 86.895 7.33037C91.5015 7.33037 91.5015 2 96.108 2C100.714 2 100.714 7.33037 105.321 7.33037C109.927 7.33037 109.927 2 114.534 2C119.14 2 119.14 7.33037 123.747 7.33037C128.353 7.33037 128.353 2 132.96 2C137.566 2 137.566 7.33037 142.173 7.33037C146.779 7.33037 146.779 2 151.385 2C155.992 2 155.955 7.30434 160.561 7.36718C165.167 7.43002 165.473 2.0244 170.059 2.45749C174.644 2.89059 173.422 7.68449 177.615 9.55785C181.809 11.4312 185.579 7.94711 187.744 11.9437C189.908 15.9403 184.518 17.6911 185.04 22.1896C185.561 26.688 190.864 26.3517 190.947 30.8786C191.029 35.4054 185.576 35.4537 185.577 39.9812C185.577 44.5088 191 44.5086 191 49.0361C191 53.5637 185.577 53.5637 185.577 58.0912C185.577 62.6188 191 62.6188 191 67.1463C191 71.6739 185.577 71.6739 185.577 76.2014C185.577 80.729 191 80.729 191 85.2565C191 89.7841 185.577 89.7841 185.577 94.3116C185.577 98.8392 191 98.8392 191 103.367C191 107.894 185.577 107.894 185.577 112.422C185.577 116.949 191 116.949 191 121.477C191 126.004 185.577 126.004 185.577 130.532C185.577 135.06 191 135.06 191 139.587C191 144.115 185.577 144.115 185.577 148.642C185.577 153.17 191 153.17 191 157.697C191 162.225 185.577 162.225 185.577 166.752C185.577 171.28 191 171.28 191 175.808C191 180.335 185.577 180.335 185.577 184.863C185.577 189.39 191 189.39 191 193.918C191 198.445 185.577 198.445 185.577 202.973C185.577 207.5 191 207.5 191 212.028C191 216.555 185.577 216.555 185.577 221.083C185.577 225.611 191 225.611 191 230.138C191 234.666 185.577 234.666 185.577 239.193C185.577 243.721 191 243.721 191 248.248C191 252.776 185.604 252.737 185.537 257.264C185.469 261.791 190.971 262.104 190.515 266.609C190.06 271.115 185.2 269.884 183.245 273.984C181.29 278.083 184.78 281.823 180.687 283.9C176.594 285.978 174.861 280.665 170.282 281.161C165.703 281.658 166.034 286.873 161.428 286.951C156.823 287.028 156.776 281.669 152.169 281.67C147.563 281.67 147.563 287 142.957 287C138.35 287 138.35 281.67 133.744 281.67C129.137 281.67 129.137 287 124.531 287C119.924 287 119.924 281.67 115.318 281.67C110.711 281.67 110.711 287 106.105 287C101.498 287 101.498 281.67 96.892 281.67C92.2855 281.67 92.2855 287 87.679 287C83.0726 287 83.0726 281.67 78.4661 281.67C73.8597 281.67 73.8597 287 69.2532 287C64.6467 287 64.6467 281.67 60.0403 281.67C55.4338 281.67 55.4338 287 50.8274 287C46.2209 287 46.2209 281.67 41.6144 281.67C37.008 281.67 36.9701 287.026 32.364 286.963C27.758 286.9 28.0453 281.67 23.46 281.237C18.8747 280.803 17.3342 286.168 13.1406 284.295C8.94697 282.421 12.2081 278.548 10.0436 274.552C7.87903 270.555 3.09321 271.912 2.57171 267.414C2.0502 262.915 7.55824 262.553 7.47592 258.026C7.39359 253.499 2.00036 253.547 2.00002 249.019C1.99968 244.492 7.42327 244.491 7.42327 239.964C7.42327 235.436 2 235.436 2 230.909C2 226.381 7.42327 226.381 7.42327 221.854C7.42327 217.326 2 217.326 2 212.799C2 208.271 7.42327 208.271 7.42327 203.743C7.42327 199.216 2 199.216 2 194.688C2 190.161 7.42327 190.161 7.42327 185.633C7.42327 181.106 2 181.106 2 176.578C2 172.051 7.42327 172.051 7.42327 167.523C7.42327 162.995 2 162.995 2 158.468C2 153.94 7.42327 153.94 7.42327 149.413C7.42327 144.885 2 144.885 2 140.358C2 135.83 7.42327 135.83 7.42327 131.303C7.42327 126.775 2 126.775 2 122.247C2 117.72 7.42327 117.72 7.42327 113.192C7.42327 108.665 2 108.665 2 104.137C2 99.6097 7.42327 99.6097 7.42327 95.0822C7.42327 90.5546 2 90.5546 2 86.0271C2 81.4995 7.42327 81.4995 7.42327 76.972C7.42327 72.4444 2 72.4444 2 67.9169C2 63.3893 7.42327 63.3893 7.42327 58.8618C7.42327 54.3342 2 54.3342 2 49.8067C2 45.2791 7.42327 45.2791 7.42327 40.7516Z" stroke="url(#paint0_linear_1541_2503)" stroke-width="3"/>
<g filter="url(#filter1_i_1541_2503)">
<rect x="18" y="18" width="157" height="253" rx="4" fill="#EDECDD"/>
</g>
<rect x="16.5" y="16.5" width="160" height="256" rx="5.5" stroke="url(#paint1_linear_1541_2503)" stroke-width="3"/>
<defs>
<filter id="filter0_i_1541_2503" x="0.5" y="0.5" width="192" height="292" filterUnits="userSpaceOnUse" color-interpolation-filters="sRGB">
<feFlood flood-opacity="0" result="BackgroundImageFix"/>
<feBlend mode="normal" in="SourceGraphic" in2="BackgroundImageFix" result="shape"/>
<feColorMatrix in="SourceAlpha" type="matrix" values="0 0 0 0 0 0 0 0 0 0 0 0 0 0 0 0 0 0 127 0" result="hardAlpha"/>
<feOffset dy="4"/>
<feGaussianBlur stdDeviation="2"/>
<feComposite in2="hardAlpha" operator="arithmetic" k2="-1" k3="1"/>
<feColorMatrix type="matrix" values="0 0 0 0 0 0 0 0 0 0 0 0 0 0 0 0 0 0 0.25 0"/>
<feBlend mode="normal" in2="shape" result="effect1_innerShadow_1541_2503"/>
</filter>
<filter id="filter1_i_1541_2503" x="15" y="15" width="163" height="263" filterUnits="userSpaceOnUse" color-interpolation-filters="sRGB">
<feFlood flood-opacity="0" result="BackgroundImageFix"/>
<feBlend mode="normal" in="SourceGraphic" in2="BackgroundImageFix" result="shape"/>
<feColorMatrix in="SourceAlpha" type="matrix" values="0 0 0 0 0 0 0 0 0 0 0 0 0 0 0 0 0 0 127 0" result="hardAlpha"/>
<feOffset dy="4"/>
<feGaussianBlur stdDeviation="2"/>
<feComposite in2="hardAlpha" operator="arithmetic" k2="-1" k3="1"/>
<feColorMatrix type="matrix" values="0 0 0 0 0 0 0 0 0 0 0 0 0 0 0 0 0 0 0.25 0"/>
<feBlend mode="normal" in2="shape" result="effect1_innerShadow_1541_2503"/>
</filter>
<linearGradient id="paint0_linear_1541_2503" x1="8.88413" y1="2" x2="186.58" y2="292.544" gradientUnits="userSpaceOnUse">
<stop stop-color="#CCC6AF"/>
<stop offset="0.144052" stop-color="#D0B185"/>
<stop offset="0.36115" stop-color="#D8C99D"/>
<stop offset="0.494366" stop-color="#EBDFC1"/>
<stop offset="0.598666" stop-color="#D3CBBA"/>
<stop offset="0.828212" stop-color="#D7C49C"/>
<stop offset="1" stop-color="#9D886A"/>
</linearGradient>
<linearGradient id="paint1_linear_1541_2503" x1="23.7186" y1="18" x2="186.018" y2="266.321" gradientUnits="userSpaceOnUse">
<stop stop-color="#CCC6AF"/>
<stop offset="0.144052" stop-color="#D0B185"/>
<stop offset="0.36115" stop-color="#D8C99D"/>
<stop offset="0.494366" stop-color="#EBDFC1"/>
<stop offset="0.598666" stop-color="#D3CBBA"/>
<stop offset="0.828212" stop-color="#D7C49C"/>
<stop offset="1" stop-color="#9D886A"/>
</linearGradient>
</defs>
</svg>
