<svg width="74" height="74" viewBox="0 0 74 74" fill="none" xmlns="http://www.w3.org/2000/svg">
<circle cx="37" cy="37" r="37" fill="#E9E9E9"/>
<path d="M36.9991 39.2207C39.618 39.2207 43.0582 39.7871 45.5831 40.2861C47.5986 40.6847 48.9991 42.4757 48.9991 44.5303C48.999 46.9986 46.9978 48.9999 44.5294 49H29.4698C27.0014 49 25.0003 46.9987 25.0001 44.5303C25.0001 42.4756 26.4005 40.6846 28.4161 40.2861C30.9409 39.7872 34.3803 39.2208 36.9991 39.2207ZM36.9982 25C40.5664 25.0002 43.4591 27.7861 43.4591 31.2227C43.4591 34.6592 40.5664 37.4451 36.9982 37.4453C33.4297 37.4453 30.5363 34.6594 30.5363 31.2227C30.5363 27.786 33.4297 25 36.9982 25Z" fill="black" fill-opacity="0.5"/>
</svg>
