<svg width="16" height="16" viewBox="0 0 16 16" fill="none" xmlns="http://www.w3.org/2000/svg">
<path d="M15.7131 14.3274C16.0956 14.71 16.0956 15.3304 15.7131 15.7129C15.5218 15.9042 15.271 16 15.0204 16C14.7698 16 14.519 15.9042 14.3277 15.7129L8.00012 9.38549L1.67252 15.7129C1.48123 15.9042 1.23042 16 0.979854 16C0.729288 16 0.478477 15.9042 0.287184 15.7129C-0.0954014 15.3304 -0.0954014 14.71 0.287184 14.3274L6.61454 7.99994L0.286939 1.67249C-0.0956463 1.28991 -0.0956463 0.669509 0.286939 0.286932C0.669524 -0.0956441 1.28994 -0.0956441 1.67252 0.286932L8.00012 6.61438L14.3275 0.287177C14.7101 -0.0953992 15.3305 -0.0953992 15.7131 0.287177C16.0956 0.669754 16.0956 1.29015 15.7131 1.67273L9.38546 8.00018L15.7131 14.3276V14.3274Z" fill="#1C1C1E"/>
</svg>
