<svg width="20" height="20" viewBox="0 0 20 20" fill="none" xmlns="http://www.w3.org/2000/svg">
<g clip-path="url(#clip0_2439_2227)">
<path d="M10 0C16.6667 0 20 3.33333 20 10C20 16.6667 16.6667 20 10 20C3.33333 20 0 16.6667 0 10C0 3.33333 3.33333 0 10 0Z" fill="#E1241B"/>
<path d="M5.48625 13.0125L5.87625 14.01H5.61375L5.01938 13.0125H5.48625ZM12.4881 11.1919V11.6094H13.34V12.6506H13.6038V12.9069H12.5363C12.5363 12.9069 12.66 13.3819 13.4875 13.7344V14.01C13.4875 14.01 12.8125 13.85 12.2844 13.2906C12.2844 13.2906 11.9844 13.8144 11.2769 14.01V13.7381L11.3044 13.7206C11.4275 13.6406 11.9231 13.2944 11.9969 12.9025H11.2769V12.6469H12.0244V11.8675H11.5212V11.6094H12.0244V11.1919H12.4881ZM14.7631 12.1012V13.33C14.7656 13.4037 14.8069 13.7188 15.3144 13.7225L15.7769 13.7238H16.5869L17.0075 13.7231L17.3106 13.7225H17.4275V13.9444H15.1125C14.9297 13.9362 14.7568 13.8589 14.6287 13.7281C14.6287 13.7281 14.485 13.9244 14.0175 14.01V13.7844C14.0175 13.7844 14.3394 13.7081 14.3394 13.3425V12.3625H14.0175V12.1H14.7631V12.1012ZM9.36188 13.0125L9.75187 14.01H9.48937L8.895 13.0125H9.36188ZM7.61875 11.2075L7.5425 11.4025H9.75187V11.6587H7.4425L7.13375 12.4919H7.88562V12.0894H8.34625V12.4919H9.62313V12.7481H8.34625V13.3481C8.34625 13.5669 8.285 13.7312 8.16187 13.8375C8.03875 13.9444 7.84562 14.0019 7.58125 14.01V13.765C7.68313 13.7631 7.75938 13.74 7.81 13.6962C7.86 13.6525 7.88562 13.5863 7.88562 13.4344V12.7475H6.545L6.97688 11.6587H6.43188V11.4025H7.07875L7.15563 11.2075H7.61875ZM7.28938 13.0125L6.69375 14.01H6.43125L6.82188 13.0125H7.28938ZM5.76437 11.8325V12.7475H4.45375V13.3475C4.45375 13.5675 4.39187 13.7312 4.27 13.8375C4.14687 13.9444 3.95312 14.0019 3.68875 14.01V13.765C3.79062 13.7631 3.8675 13.74 3.9175 13.6962C3.9675 13.6525 3.9925 13.58 3.9925 13.4344V12.7475H2.685V11.8325H5.765H5.76437ZM3.43 13.0125L2.835 14.01H2.5725L2.9625 13.0125H3.43ZM11.105 11.1919V11.8275L11.4175 11.8575V12.1469C11.4175 12.1469 11.2331 12.1012 11.1094 12.0875V14.01H10.6838V11.1912H11.105V11.1919ZM15.8125 11.1837C15.8125 11.1837 15.8581 11.4056 15.9081 11.4675H16.4C16.4 11.4675 16.4837 11.3094 16.5 11.1837H16.9375C16.9375 11.1837 16.8856 11.3713 16.8375 11.4675H17.2394V11.955C17.2394 11.955 17.1994 12.235 16.9137 12.2369L16.8363 12.2375H16.35V12.5487H17.3475V13.1569C17.3475 13.1569 17.3337 13.4106 17.0119 13.4106H16.5725V13.1769H16.7944C16.7944 13.1769 16.9256 13.1744 16.9244 13.0619V12.78H16.3475V13.595H15.9081V12.7825H15.8394C15.8394 12.7825 15.7425 13.3244 14.9369 13.5106V13.2744C14.9369 13.2744 15.3681 13.0806 15.4406 12.7906H15.415C15.3256 12.7894 15.0369 12.7631 15.0369 12.4888V12H15.9006V11.7081H15.0387V11.4719H15.4762C15.4762 11.4719 15.4388 11.4462 15.3669 11.1844H15.8125V11.1837ZM10.5656 11.7575V11.9662C10.5644 12.2369 10.555 12.6894 10.5094 12.8088H10.2281C10.2281 12.8088 10.3156 12.3787 10.3044 11.7575H10.5656ZM12.9 11.8656H12.4963V12.6469H12.9V11.8656ZM15.9 12.2369H15.4544V12.4131C15.4544 12.535 15.5906 12.5444 15.5906 12.5444H15.9006V12.2369H15.9ZM5.32 12.0887H3.12875V12.4919H5.32V12.0887ZM16.8275 11.7037H16.3481V12.0012H16.7119C16.7119 12.0012 16.8256 11.9931 16.8275 11.9113L16.8281 11.89V11.7037H16.8275ZM14.6275 11.2356C14.6275 11.2356 14.8431 11.5194 14.8913 11.8656H14.4788C14.4788 11.8656 14.38 11.4319 14.2313 11.2356H14.6269H14.6275ZM4.45563 11.2075V11.4025H5.87625V11.6587H2.5725V11.4025H3.99375V11.2075H4.45625H4.45563ZM6.8 4.88875C7.13125 4.88875 7.4 5.1575 7.4 5.48875V7.47437C7.4 8.41812 6.93375 9.23063 6.08187 9.62188C5.73625 9.78063 5.32562 9.87063 4.85812 9.87063C4.00687 9.87063 3.04563 9.45625 2.5 8.74563L3.78437 7.75875C3.97187 8.14625 4.49188 8.39188 4.82188 8.39188C5.56438 8.39188 5.74312 7.71812 5.74312 7.395V4.88875H6.8ZM10.4912 3.125C11.6206 3.125 12.6156 3.70187 13.1975 4.57625V3.125H14.8538V8.17H17.5V9.62188H13.1975V8.17062C12.9013 8.61716 12.4991 8.98339 12.0269 9.23663C11.5547 9.48987 11.0271 9.62222 10.4912 9.62188H7.7225V5.48875C7.7225 5.1575 7.99125 4.88875 8.3225 4.88875H9.37875V8.17H10.4912C10.745 8.20037 11.0023 8.1766 11.2463 8.10025C11.4902 8.0239 11.7151 7.89671 11.9063 7.72706C12.0974 7.55741 12.2505 7.34917 12.3553 7.11606C12.4601 6.88295 12.5142 6.63027 12.5142 6.37469C12.5142 6.11911 12.4601 5.86643 12.3553 5.63332C12.2505 5.40021 12.0974 5.19196 11.9063 5.02231C11.7151 4.85267 11.4902 4.72548 11.2463 4.64913C11.0023 4.57278 10.745 4.549 10.4912 4.57938L8.3225 4.57687C8.16337 4.57687 8.01076 4.51366 7.89824 4.40114C7.78571 4.28862 7.7225 4.136 7.7225 3.97687V3.125H10.4912ZM7.4 3.125V3.9775C7.4 4.30875 7.13125 4.5775 6.8 4.5775H5.74375V3.125H7.4ZM6.505 16.2081H7.31313V16H6.505V15.6269H7.37813V15.4269H6.2575V16.8169H7.39375V16.6094H6.505V16.2075V16.2081ZM8.5575 15.7875H8.28125L8.0425 16.1238L7.80438 15.7875H7.51188L7.89312 16.2875L7.49625 16.8175H7.78L8.02688 16.4663L8.28937 16.8175H8.57312L8.17625 16.2881L8.5575 15.7881V15.7875ZM9.45125 16.3019C9.44062 16.5394 9.3525 16.6575 9.18437 16.6619C9.00312 16.6525 8.91188 16.5519 8.90688 16.3538C8.90688 16.0925 8.99437 15.9625 9.17438 15.9581C9.36062 15.9625 9.45125 16.0756 9.45125 16.3019ZM9.2075 15.7581C9.1509 15.7571 9.09475 15.7683 9.04287 15.791C8.99099 15.8136 8.9446 15.8472 8.90688 15.8894V15.7875H8.69125V17.1925H8.915V16.7406C8.97813 16.7969 9.06813 16.8281 9.18375 16.8325C9.49813 16.8219 9.66562 16.6344 9.6825 16.2719C9.66 15.9513 9.50063 15.7787 9.2075 15.7581ZM10.42 15.7581C10.3094 15.7581 10.2137 15.8081 10.1356 15.9069V15.7881H9.9125V16.8175H10.1437V16.2225C10.1544 16.0781 10.2375 16.0013 10.3956 15.9875H10.4912V15.7656H10.4488C10.4397 15.7613 10.43 15.7587 10.42 15.7581ZM11.3562 16.2063H10.8019C10.8238 16.0569 10.9144 15.9756 11.0756 15.9581C11.2381 15.9581 11.3306 16.0394 11.3569 16.2063H11.3562ZM11.5912 16.3606C11.58 15.9712 11.415 15.7687 11.0987 15.7581C10.7525 15.7687 10.5706 15.9612 10.56 16.3331C10.5712 16.6537 10.7413 16.8219 11.0675 16.8325C11.2019 16.8325 11.3006 16.8144 11.37 16.7775C11.4218 16.7463 11.4667 16.7048 11.5019 16.6556C11.5371 16.6063 11.5617 16.5504 11.5744 16.4913L11.5806 16.4637H11.3581L11.3525 16.4787C11.3125 16.5975 11.2275 16.6575 11.0919 16.6619C10.9025 16.6619 10.8069 16.5712 10.8 16.3844H11.5919L11.5912 16.3606ZM12.3494 16.2144L12.1619 16.1769C12.0487 16.1619 12.0081 16.1344 11.9938 16.1137C11.9856 16.1019 11.9838 16.0887 11.9875 16.0675C11.9875 16.0425 11.9875 15.9644 12.175 15.9506C12.4106 15.9575 12.4106 16.0625 12.4106 16.0969V16.12H12.6369L12.6344 16.095C12.6112 15.8763 12.4656 15.7637 12.1981 15.7581C11.9219 15.7737 11.7762 15.8894 11.7644 16.1031C11.7581 16.2381 11.8494 16.325 12.0331 16.3619L12.2506 16.4056C12.3412 16.4269 12.4481 16.4644 12.4431 16.5206C12.4338 16.6112 12.3619 16.6575 12.2238 16.6619C12.0475 16.6619 11.9575 16.6013 11.9475 16.4769L11.9456 16.4563H11.7325V16.4787C11.7325 16.7131 11.8975 16.8325 12.2244 16.8325C12.5006 16.8219 12.6494 16.7113 12.6669 16.5019C12.6725 16.3581 12.5656 16.2606 12.3494 16.2144ZM13.4244 16.2144L13.2375 16.1769C13.1244 16.1619 13.0831 16.1344 13.0688 16.1137C13.0612 16.1019 13.0594 16.0887 13.0638 16.0675C13.0638 16.0425 13.0638 15.9644 13.25 15.9506C13.4863 15.9575 13.4862 16.0625 13.4862 16.0969V16.12H13.7125L13.71 16.095C13.6869 15.8763 13.5413 15.7637 13.2738 15.7581C12.9975 15.7737 12.8513 15.8894 12.84 16.1031C12.8338 16.2381 12.9244 16.325 13.1088 16.3619L13.3263 16.4056C13.4169 16.4269 13.5237 16.4644 13.5187 16.5206C13.5094 16.6112 13.4375 16.6575 13.2994 16.6619C13.1231 16.6619 13.0325 16.6013 13.0231 16.4769L13.0212 16.4563H12.8075V16.4787C12.8075 16.7131 12.9731 16.8325 13.3 16.8325C13.5763 16.8219 13.725 16.7113 13.7419 16.5019C13.7481 16.3581 13.6412 16.2606 13.425 16.2144" fill="#FEFEFE"/>
</g>
<defs>
<clipPath id="clip0_2439_2227">
<rect width="20" height="20" fill="white"/>
</clipPath>
</defs>
</svg>
