<svg width="16" height="16" viewBox="0 0 16 16" fill="none" xmlns="http://www.w3.org/2000/svg">
<g clip-path="url(#clip0_212_1894)">
<path d="M13.6 0H2.4C1.76348 0 1.15303 0.252856 0.702944 0.702944C0.252856 1.15303 0 1.76348 0 2.4L0 13.6C0.00158415 14.236 0.254949 14.8456 0.704694 15.2953C1.15444 15.7451 1.76397 15.9984 2.4 16H13.6C14.236 15.9984 14.8456 15.7451 15.2953 15.2953C15.7451 14.8456 15.9984 14.236 16 13.6V2.4C16 1.76348 15.7471 1.15303 15.2971 0.702944C14.847 0.252856 14.2365 0 13.6 0ZM12.095 1.114V6.75H3.906V1.114H12.095ZM14.886 13.6C14.8856 13.7685 14.852 13.9352 14.7872 14.0908C14.7224 14.2463 14.6275 14.3875 14.5081 14.5063C14.3887 14.6252 14.247 14.7194 14.0912 14.7835C13.9354 14.8476 13.7685 14.8804 13.6 14.88H2.4C2.23151 14.8804 2.0646 14.8476 1.90879 14.7835C1.75298 14.7194 1.61132 14.6252 1.4919 14.5063C1.37249 14.3875 1.27765 14.2463 1.21281 14.0908C1.14797 13.9352 1.11439 13.7685 1.114 13.6V2.4C1.114 1.69 1.69 1.115 2.4 1.114H2.79V7.31C2.79 7.38301 2.80443 7.45529 2.83246 7.5227C2.86048 7.59011 2.90156 7.65132 2.95332 7.7028C3.00508 7.75428 3.06651 7.79503 3.13407 7.82269C3.20163 7.85036 3.274 7.8644 3.347 7.864H12.651C12.7241 7.86453 12.7966 7.85059 12.8642 7.82298C12.9319 7.79538 12.9935 7.75465 13.0453 7.70316C13.0972 7.65166 13.1384 7.59041 13.1664 7.52293C13.1945 7.45546 13.209 7.38309 13.209 7.31V1.114H13.6C14.31 1.114 14.885 1.69 14.886 2.4V13.6ZM4 10.286H12C12.1516 10.286 12.2969 10.3462 12.4041 10.4534C12.5113 10.5606 12.5715 10.7059 12.5715 10.8575C12.5715 11.0091 12.5113 11.1544 12.4041 11.2616C12.2969 11.3688 12.1516 11.429 12 11.429H4C3.84843 11.429 3.70307 11.3688 3.59589 11.2616C3.48871 11.1544 3.4285 11.0091 3.4285 10.8575C3.4285 10.7059 3.48871 10.5606 3.59589 10.4534C3.70307 10.3462 3.84843 10.286 4 10.286Z" fill="#1C1C1E"/>
</g>
<defs>
<clipPath id="clip0_212_1894">
<rect width="16" height="16" fill="white"/>
</clipPath>
</defs>
</svg>
