<svg width="17" height="17" viewBox="0 0 17 17" fill="none" xmlns="http://www.w3.org/2000/svg">
<path d="M8.4668 16.9336C7.29915 16.9336 6.20345 16.7122 5.17969 16.2695C4.15592 15.8324 3.25667 15.2264 2.48193 14.4517C1.70719 13.6714 1.09847 12.7721 0.655762 11.7539C0.218587 10.7301 0 9.63444 0 8.4668C0 7.29915 0.218587 6.20345 0.655762 5.17969C1.09847 4.15592 1.70719 3.25667 2.48193 2.48193C3.25667 1.70719 4.15592 1.10124 5.17969 0.664062C6.20345 0.221354 7.29915 0 8.4668 0C9.63444 0 10.7301 0.221354 11.7539 0.664062C12.7777 1.10124 13.6769 1.70719 14.4517 2.48193C15.2264 3.25667 15.8324 4.15592 16.2695 5.17969C16.7122 6.20345 16.9336 7.29915 16.9336 8.4668C16.9336 9.63444 16.7122 10.7301 16.2695 11.7539C15.8324 12.7721 15.2264 13.6714 14.4517 14.4517C13.6769 15.2264 12.7777 15.8324 11.7539 16.2695C10.7301 16.7122 9.63444 16.9336 8.4668 16.9336ZM5.67773 11.9531C5.87695 11.9531 6.04574 11.8867 6.18408 11.7539L8.4751 9.44629L10.7744 11.7539C10.9017 11.8867 11.0649 11.9531 11.2642 11.9531C11.4578 11.9531 11.6211 11.8867 11.7539 11.7539C11.8867 11.6156 11.9531 11.4523 11.9531 11.2642C11.9531 11.0594 11.8867 10.8962 11.7539 10.7744L9.44629 8.4751L11.7622 6.16748C11.895 6.02913 11.9614 5.86589 11.9614 5.67773C11.9614 5.48958 11.895 5.3291 11.7622 5.19629C11.6294 5.06348 11.4689 4.99707 11.2808 4.99707C11.0981 4.99707 10.9404 5.06348 10.8076 5.19629L8.4751 7.51221L6.15918 5.20459C6.02083 5.07731 5.86035 5.01367 5.67773 5.01367C5.48958 5.01367 5.3291 5.08008 5.19629 5.21289C5.06348 5.34017 4.99707 5.50065 4.99707 5.69434C4.99707 5.87695 5.06348 6.03744 5.19629 6.17578L7.50391 8.4751L5.19629 10.7827C5.06348 10.9155 4.99707 11.076 4.99707 11.2642C4.99707 11.4523 5.06348 11.6156 5.19629 11.7539C5.3291 11.8867 5.48958 11.9531 5.67773 11.9531Z" fill="#3C3C43" fill-opacity="0.3"/>
</svg>
