<svg width="193" height="288" viewBox="0 0 193 288" fill="none" xmlns="http://www.w3.org/2000/svg">
<g filter="url(#filter0_i_1541_2503)">
<path fill-rule="evenodd" clip-rule="evenodd" d="M6.95197 40.2516C6.95197 35.724 1.47329 35.6848 1.54088 31.1578C1.60847 26.6307 6.95464 26.9229 7.41236 22.4175C7.87009 17.9121 2.39402 16.3539 4.35913 12.2543C6.32424 8.15458 10.2545 11.413 14.3691 9.33561C18.4837 7.2582 17.1271 2.5366 21.73 2.0403C26.3329 1.54401 26.6908 6.95611 31.3209 6.87893C35.9511 6.80176 35.9049 1.5002 40.5358 1.50001C45.1666 1.49982 45.1667 6.83037 49.7976 6.83037C54.4284 6.83037 54.4284 1.5 59.0592 1.5C63.6901 1.5 63.6901 6.83037 68.3209 6.83037C72.9517 6.83037 72.9517 1.5 77.5826 1.5C82.2134 1.5 82.2134 6.83037 86.8442 6.83037C91.4751 6.83037 91.4751 1.5 96.1059 1.5C100.737 1.5 100.737 6.83037 105.368 6.83037C109.998 6.83037 109.998 1.5 114.629 1.5C119.26 1.5 119.26 6.83037 123.891 6.83037C128.522 6.83037 128.522 1.5 133.153 1.5C137.783 1.5 137.783 6.83037 142.414 6.83037C147.045 6.83037 147.045 1.5 151.676 1.5C156.307 1.5 156.269 6.80434 160.9 6.86718C165.53 6.93002 165.838 1.5244 170.448 1.95749C175.057 2.39059 173.829 7.18449 178.044 9.05785C182.26 10.9312 186.05 7.44711 188.226 11.4437C190.402 15.4403 184.984 17.1911 185.508 21.6896C186.033 26.188 191.363 25.8517 191.446 30.3786C191.529 34.9054 186.048 34.9537 186.048 39.4812C186.048 44.0088 191.5 44.0086 191.5 48.5361C191.5 53.0637 186.048 53.0637 186.048 57.5912C186.048 62.1188 191.5 62.1188 191.5 66.6463C191.5 71.1739 186.048 71.1739 186.048 75.7014C186.048 80.229 191.5 80.229 191.5 84.7565C191.5 89.2841 186.048 89.2841 186.048 93.8116C186.048 98.3392 191.5 98.3392 191.5 102.867C191.5 107.394 186.048 107.394 186.048 111.922C186.048 116.449 191.5 116.449 191.5 120.977C191.5 125.504 186.048 125.504 186.048 130.032C186.048 134.56 191.5 134.56 191.5 139.087C191.5 143.615 186.048 143.615 186.048 148.142C186.048 152.67 191.5 152.67 191.5 157.197C191.5 161.725 186.048 161.725 186.048 166.252C186.048 170.78 191.5 170.78 191.5 175.308C191.5 179.835 186.048 179.835 186.048 184.363C186.048 188.89 191.5 188.89 191.5 193.418C191.5 197.945 186.048 197.945 186.048 202.473C186.048 207 191.5 207 191.5 211.528C191.5 216.055 186.048 216.055 186.048 220.583C186.048 225.111 191.5 225.111 191.5 229.638C191.5 234.166 186.048 234.166 186.048 238.693C186.048 243.221 191.5 243.221 191.5 247.748C191.5 252.276 186.075 252.237 186.008 256.764C185.94 261.291 191.471 261.604 191.013 266.109C190.555 270.615 185.669 269.384 183.704 273.484C181.739 277.583 185.247 281.323 181.132 283.4C177.018 285.478 175.275 280.165 170.672 280.661C166.069 281.158 166.402 286.373 161.772 286.451C157.142 286.528 157.095 281.169 152.464 281.17C147.833 281.17 147.833 286.5 143.202 286.5C138.572 286.5 138.572 281.17 133.941 281.17C129.31 281.17 129.31 286.5 124.679 286.5C120.048 286.5 120.048 281.17 115.417 281.17C110.787 281.17 110.787 286.5 106.156 286.5C101.525 286.5 101.525 281.17 96.894 281.17C92.2632 281.17 92.2632 286.5 87.6324 286.5C83.0015 286.5 83.0015 281.17 78.3707 281.17C73.7399 281.17 73.7399 286.5 69.109 286.5C64.4782 286.5 64.4782 281.17 59.8474 281.17C55.2165 281.17 55.2165 286.5 50.5857 286.5C45.9549 286.5 45.9549 281.17 41.324 281.17C36.6932 281.17 36.6551 286.526 32.0247 286.463C27.3943 286.4 27.6832 281.17 23.0736 280.737C18.464 280.303 16.9154 285.668 12.6995 283.795C8.48372 281.921 11.7621 278.048 9.58612 274.052C7.41014 270.055 2.599 271.412 2.07473 266.914C1.55047 262.415 7.08765 262.053 7.00489 257.526C6.92213 252.999 1.50036 253.047 1.50002 248.519C1.49968 243.992 6.95197 243.991 6.95197 239.464C6.95197 234.936 1.5 234.936 1.5 230.409C1.5 225.881 6.95197 225.881 6.95197 221.354C6.95197 216.826 1.5 216.826 1.5 212.299C1.5 207.771 6.95197 207.771 6.95197 203.243C6.95197 198.716 1.5 198.716 1.5 194.188C1.5 189.661 6.95197 189.661 6.95197 185.133C6.95197 180.606 1.5 180.606 1.5 176.078C1.5 171.551 6.95197 171.551 6.95197 167.023C6.95197 162.495 1.5 162.495 1.5 157.968C1.5 153.44 6.95197 153.44 6.95197 148.913C6.95197 144.385 1.5 144.385 1.5 139.858C1.5 135.33 6.95197 135.33 6.95197 130.803C6.95197 126.275 1.5 126.275 1.5 121.747C1.5 117.22 6.95197 117.22 6.95197 112.692C6.95197 108.165 1.5 108.165 1.5 103.637C1.5 99.1097 6.95197 99.1097 6.95197 94.5822C6.95197 90.0546 1.5 90.0546 1.5 85.5271C1.5 80.9995 6.95197 80.9995 6.95197 76.472C6.95197 71.9444 1.5 71.9444 1.5 67.4169C1.5 62.8893 6.95197 62.8893 6.95197 58.3618C6.95197 53.8342 1.5 53.8342 1.5 49.3067C1.5 44.7791 6.95197 44.7791 6.95197 40.2516Z" fill="#EDECDD"/>
</g>
<path fill-rule="evenodd" clip-rule="evenodd" d="M6.95197 40.2516C6.95197 35.724 1.47329 35.6848 1.54088 31.1578C1.60847 26.6307 6.95464 26.9229 7.41236 22.4175C7.87009 17.9121 2.39402 16.3539 4.35913 12.2543C6.32424 8.15458 10.2545 11.413 14.3691 9.33561C18.4837 7.2582 17.1271 2.5366 21.73 2.0403C26.3329 1.54401 26.6908 6.95611 31.3209 6.87893C35.9511 6.80176 35.9049 1.5002 40.5358 1.50001C45.1666 1.49982 45.1667 6.83037 49.7976 6.83037C54.4284 6.83037 54.4284 1.5 59.0592 1.5C63.6901 1.5 63.6901 6.83037 68.3209 6.83037C72.9517 6.83037 72.9517 1.5 77.5826 1.5C82.2134 1.5 82.2134 6.83037 86.8442 6.83037C91.4751 6.83037 91.4751 1.5 96.1059 1.5C100.737 1.5 100.737 6.83037 105.368 6.83037C109.998 6.83037 109.998 1.5 114.629 1.5C119.26 1.5 119.26 6.83037 123.891 6.83037C128.522 6.83037 128.522 1.5 133.153 1.5C137.783 1.5 137.783 6.83037 142.414 6.83037C147.045 6.83037 147.045 1.5 151.676 1.5C156.307 1.5 156.269 6.80434 160.9 6.86718C165.53 6.93002 165.838 1.5244 170.448 1.95749C175.057 2.39059 173.829 7.18449 178.044 9.05785C182.26 10.9312 186.05 7.44711 188.226 11.4437C190.402 15.4403 184.984 17.1911 185.508 21.6896C186.033 26.188 191.363 25.8517 191.446 30.3786C191.529 34.9054 186.048 34.9537 186.048 39.4812C186.048 44.0088 191.5 44.0086 191.5 48.5361C191.5 53.0637 186.048 53.0637 186.048 57.5912C186.048 62.1188 191.5 62.1188 191.5 66.6463C191.5 71.1739 186.048 71.1739 186.048 75.7014C186.048 80.229 191.5 80.229 191.5 84.7565C191.5 89.2841 186.048 89.2841 186.048 93.8116C186.048 98.3392 191.5 98.3392 191.5 102.867C191.5 107.394 186.048 107.394 186.048 111.922C186.048 116.449 191.5 116.449 191.5 120.977C191.5 125.504 186.048 125.504 186.048 130.032C186.048 134.56 191.5 134.56 191.5 139.087C191.5 143.615 186.048 143.615 186.048 148.142C186.048 152.67 191.5 152.67 191.5 157.197C191.5 161.725 186.048 161.725 186.048 166.252C186.048 170.78 191.5 170.78 191.5 175.308C191.5 179.835 186.048 179.835 186.048 184.363C186.048 188.89 191.5 188.89 191.5 193.418C191.5 197.945 186.048 197.945 186.048 202.473C186.048 207 191.5 207 191.5 211.528C191.5 216.055 186.048 216.055 186.048 220.583C186.048 225.111 191.5 225.111 191.5 229.638C191.5 234.166 186.048 234.166 186.048 238.693C186.048 243.221 191.5 243.221 191.5 247.748C191.5 252.276 186.075 252.237 186.008 256.764C185.94 261.291 191.471 261.604 191.013 266.109C190.555 270.615 185.669 269.384 183.704 273.484C181.739 277.583 185.247 281.323 181.132 283.4C177.018 285.478 175.275 280.165 170.672 280.661C166.069 281.158 166.402 286.373 161.772 286.451C157.142 286.528 157.095 281.169 152.464 281.17C147.833 281.17 147.833 286.5 143.202 286.5C138.572 286.5 138.572 281.17 133.941 281.17C129.31 281.17 129.31 286.5 124.679 286.5C120.048 286.5 120.048 281.17 115.417 281.17C110.787 281.17 110.787 286.5 106.156 286.5C101.525 286.5 101.525 281.17 96.894 281.17C92.2632 281.17 92.2632 286.5 87.6324 286.5C83.0015 286.5 83.0015 281.17 78.3707 281.17C73.7399 281.17 73.7399 286.5 69.109 286.5C64.4782 286.5 64.4782 281.17 59.8474 281.17C55.2165 281.17 55.2165 286.5 50.5857 286.5C45.9549 286.5 45.9549 281.17 41.324 281.17C36.6932 281.17 36.6551 286.526 32.0247 286.463C27.3943 286.4 27.6832 281.17 23.0736 280.737C18.464 280.303 16.9154 285.668 12.6995 283.795C8.48372 281.921 11.7621 278.048 9.58612 274.052C7.41014 270.055 2.599 271.412 2.07473 266.914C1.55047 262.415 7.08765 262.053 7.00489 257.526C6.92213 252.999 1.50036 253.047 1.50002 248.519C1.49968 243.992 6.95197 243.991 6.95197 239.464C6.95197 234.936 1.5 234.936 1.5 230.409C1.5 225.881 6.95197 225.881 6.95197 221.354C6.95197 216.826 1.5 216.826 1.5 212.299C1.5 207.771 6.95197 207.771 6.95197 203.243C6.95197 198.716 1.5 198.716 1.5 194.188C1.5 189.661 6.95197 189.661 6.95197 185.133C6.95197 180.606 1.5 180.606 1.5 176.078C1.5 171.551 6.95197 171.551 6.95197 167.023C6.95197 162.495 1.5 162.495 1.5 157.968C1.5 153.44 6.95197 153.44 6.95197 148.913C6.95197 144.385 1.5 144.385 1.5 139.858C1.5 135.33 6.95197 135.33 6.95197 130.803C6.95197 126.275 1.5 126.275 1.5 121.747C1.5 117.22 6.95197 117.22 6.95197 112.692C6.95197 108.165 1.5 108.165 1.5 103.637C1.5 99.1097 6.95197 99.1097 6.95197 94.5822C6.95197 90.0546 1.5 90.0546 1.5 85.5271C1.5 80.9995 6.95197 80.9995 6.95197 76.472C6.95197 71.9444 1.5 71.9444 1.5 67.4169C1.5 62.8893 6.95197 62.8893 6.95197 58.3618C6.95197 53.8342 1.5 53.8342 1.5 49.3067C1.5 44.7791 6.95197 44.7791 6.95197 40.2516Z" stroke="url(#paint0_linear_1541_2503)" stroke-width="3"/>
<g filter="url(#filter1_i_1541_2503)">
<rect x="18.5" y="17.5" width="157" height="253" rx="4" fill="#EDECDD"/>
</g>
<rect x="17" y="16" width="160" height="256" rx="5.5" stroke="url(#paint1_linear_1541_2503)" stroke-width="3"/>
<defs>
<filter id="filter0_i_1541_2503" x="0" y="0" width="193" height="292" filterUnits="userSpaceOnUse" color-interpolation-filters="sRGB">
<feFlood flood-opacity="0" result="BackgroundImageFix"/>
<feBlend mode="normal" in="SourceGraphic" in2="BackgroundImageFix" result="shape"/>
<feColorMatrix in="SourceAlpha" type="matrix" values="0 0 0 0 0 0 0 0 0 0 0 0 0 0 0 0 0 0 127 0" result="hardAlpha"/>
<feOffset dy="4"/>
<feGaussianBlur stdDeviation="2"/>
<feComposite in2="hardAlpha" operator="arithmetic" k2="-1" k3="1"/>
<feColorMatrix type="matrix" values="0 0 0 0 0 0 0 0 0 0 0 0 0 0 0 0 0 0 0.25 0"/>
<feBlend mode="normal" in2="shape" result="effect1_innerShadow_1541_2503"/>
</filter>
<filter id="filter1_i_1541_2503" x="15.5" y="14.5" width="163" height="263" filterUnits="userSpaceOnUse" color-interpolation-filters="sRGB">
<feFlood flood-opacity="0" result="BackgroundImageFix"/>
<feBlend mode="normal" in="SourceGraphic" in2="BackgroundImageFix" result="shape"/>
<feColorMatrix in="SourceAlpha" type="matrix" values="0 0 0 0 0 0 0 0 0 0 0 0 0 0 0 0 0 0 127 0" result="hardAlpha"/>
<feOffset dy="4"/>
<feGaussianBlur stdDeviation="2"/>
<feComposite in2="hardAlpha" operator="arithmetic" k2="-1" k3="1"/>
<feColorMatrix type="matrix" values="0 0 0 0 0 0 0 0 0 0 0 0 0 0 0 0 0 0 0.25 0"/>
<feBlend mode="normal" in2="shape" result="effect1_innerShadow_1541_2503"/>
</filter>
<linearGradient id="paint0_linear_1541_2503" x1="8.42055" y1="1.5" x2="185.688" y2="292.876" gradientUnits="userSpaceOnUse">
<stop stop-color="#CCC6AF"/>
<stop offset="0.144052" stop-color="#D0B185"/>
<stop offset="0.36115" stop-color="#D8C99D"/>
<stop offset="0.494366" stop-color="#EBDFC1"/>
<stop offset="0.598666" stop-color="#D3CBBA"/>
<stop offset="0.828212" stop-color="#D7C49C"/>
<stop offset="1" stop-color="#9D886A"/>
</linearGradient>
<linearGradient id="paint1_linear_1541_2503" x1="24.2186" y1="17.5" x2="186.518" y2="265.821" gradientUnits="userSpaceOnUse">
<stop stop-color="#CCC6AF"/>
<stop offset="0.144052" stop-color="#D0B185"/>
<stop offset="0.36115" stop-color="#D8C99D"/>
<stop offset="0.494366" stop-color="#EBDFC1"/>
<stop offset="0.598666" stop-color="#D3CBBA"/>
<stop offset="0.828212" stop-color="#D7C49C"/>
<stop offset="1" stop-color="#9D886A"/>
</linearGradient>
</defs>
</svg>
