<svg width="188" height="289" viewBox="0 0 188 289" fill="none" xmlns="http://www.w3.org/2000/svg">
<mask id="path-1-inside-1_5624_11614" fill="white">
<path d="M174.594 288.782L182.138 288.782C185.369 288.782 188 286.351 188 283.34L188 275.874C185.814 275.638 184.131 273.933 184.131 271.847C184.131 269.761 185.833 268.055 188 267.82L188 256.66C185.814 256.424 184.131 254.719 184.131 252.633C184.131 250.547 185.833 248.842 188 248.606L188 237.446C185.814 237.211 184.131 235.505 184.131 233.419C184.131 231.333 185.833 229.628 188 229.392L188 218.233C185.814 217.997 184.131 216.291 184.131 214.205C184.131 212.119 185.833 210.414 188 210.178L188 199.019C185.814 198.783 184.131 197.078 184.131 194.991C184.131 192.905 185.833 191.2 188 190.964L188 179.787C185.814 179.551 184.131 177.846 184.131 175.759C184.131 173.673 185.833 171.968 188 171.732L188 160.573C185.814 160.337 184.131 158.632 184.131 156.546C184.131 154.459 185.833 152.754 188 152.518L188 141.359C185.814 141.123 184.131 139.418 184.131 137.332C184.131 135.245 185.833 133.54 188 133.304L188 122.145C185.814 121.909 184.131 120.204 184.131 118.118C184.131 116.032 185.833 114.326 188 114.091L188 102.931C185.814 102.695 184.131 100.99 184.131 98.904C184.131 96.8178 185.833 95.1125 188 94.8767L188 83.7174C185.814 83.4815 184.131 81.7763 184.131 79.6901C184.131 77.6039 185.833 75.8987 188 75.6628L188 64.5035C185.814 64.2677 184.131 62.5624 184.131 60.4762C184.131 58.39 185.833 56.6848 188 56.449L188 45.2896C185.814 45.0538 184.131 43.3486 184.131 41.2624C184.131 39.1762 185.833 37.4709 188 37.2351L188 30.4453C188 27.4339 185.369 25.0031 182.138 25.0031L174.613 25.0031C174.613 27.2525 172.64 29.0666 170.221 29.0666C167.803 29.0666 165.849 27.2525 165.83 25.0031L155.886 25.0031C155.886 27.2525 153.913 29.0666 151.495 29.0666C149.077 29.0666 147.123 27.2525 147.104 25.0031L137.16 25.0031C137.16 27.2525 135.187 29.0666 132.768 29.0666C130.35 29.0666 128.396 27.2525 128.377 25.0031L116.209 25.0031C116.402 23.8965 116.538 22.7717 116.538 20.7531C116.538 9.28812 106.536 4.65683e-06 94.1935 4.11733e-06C81.851 3.57782e-06 71.8494 9.28812 71.8494 20.7531C71.8494 22.7717 71.9848 23.8965 72.1782 25.0031L62.312 25.0031C62.312 27.2525 60.3388 29.0666 57.9206 29.0666C55.5024 29.0666 53.5485 27.2525 53.5291 25.0031L43.5855 25.0031C43.5855 27.2525 41.6123 29.0666 39.1941 29.0666C36.7759 29.0666 34.822 27.2525 34.8026 25.0031L24.859 25.0031C24.859 27.2525 22.8858 29.0666 20.4676 29.0666C18.0494 29.0666 16.0955 27.2525 16.0762 25.0031L5.86171 25.0031C2.631 25.0031 1.40596e-05 27.4339 1.3928e-05 30.4453L1.36328e-05 37.1988C2.39886 37.217 4.35275 39.031 4.35275 41.2805C4.35275 43.53 2.39886 45.3259 1.32759e-05 45.3622L1.27921e-05 56.4308C2.39886 56.449 4.35275 58.263 4.35275 60.5125C4.35275 62.762 2.39886 64.5579 1.24353e-05 64.5942L1.19515e-05 75.6628C2.39886 75.681 4.35275 77.495 4.35275 79.7445C4.35275 81.9758 2.39886 83.7899 1.15946e-05 83.8262L1.11108e-05 94.8948C2.39886 94.913 4.35275 96.7271 4.35275 98.9765C4.35275 101.208 2.39886 103.022 1.0754e-05 103.058L1.02701e-05 114.127C2.39886 114.145 4.35275 115.959 4.35275 118.209C4.35275 120.44 2.39886 122.254 9.91331e-06 122.29L9.42949e-06 133.359C2.39886 133.377 4.35275 135.191 4.35275 137.441C4.35275 139.69 2.39886 141.486 9.07266e-06 141.522L8.58883e-06 152.591C2.39886 152.609 4.35275 154.423 4.35275 156.673C4.35275 158.922 2.39886 160.718 8.232e-06 160.754L7.74817e-06 171.823C2.39886 171.841 4.35275 173.655 4.35274 175.905C4.35274 178.154 2.39886 179.95 7.39134e-06 179.986L6.90752e-06 191.055C2.39886 191.073 4.35274 192.887 4.35274 195.137C4.35274 197.386 2.39886 199.182 6.55068e-06 199.218L6.06686e-06 210.287C2.39886 210.305 4.35274 212.119 4.35274 214.369C4.35274 216.618 2.39886 218.414 5.71003e-06 218.45L5.2262e-06 229.519C2.39885 229.537 4.35274 231.351 4.35274 233.601C4.35274 235.832 2.39885 237.646 4.86937e-06 237.682L4.38554e-06 248.751C2.39885 248.769 4.35274 250.583 4.35274 252.833C4.35274 255.064 2.39885 256.878 4.02871e-06 256.914L3.54489e-06 267.983C2.39885 268.001 4.35274 269.815 4.35274 272.065C4.35274 274.296 2.39885 276.11 3.18805e-06 276.146L2.86409e-06 283.558C2.73245e-06 286.569 2.63098 289 5.8617 289L16.0955 289C16.2116 286.859 18.1075 285.136 20.4676 285.136C22.8278 285.136 24.7043 286.841 24.8397 289L34.822 289C34.9381 286.859 36.8339 285.136 39.1941 285.136C41.5542 285.136 43.4307 286.841 43.5662 289L53.5485 289C53.6646 286.859 55.5604 285.136 57.9206 285.136C60.2807 285.136 62.1572 286.841 62.2926 289L72.2749 289C72.391 286.859 74.2869 285.136 76.647 285.136C79.0072 285.136 80.8837 286.841 81.0191 289L91.0014 289C91.1175 286.859 93.0134 285.136 95.3735 285.136C97.7337 285.136 99.6102 286.841 99.7456 289L109.689 289C109.805 286.859 111.701 285.136 114.061 285.136C116.421 285.136 118.298 286.841 118.433 289L128.416 289C128.532 286.859 130.428 285.136 132.788 285.136C135.148 285.136 137.024 286.841 137.16 289L147.142 289C147.258 286.859 149.154 285.136 151.514 285.136C153.874 285.136 155.751 286.841 155.886 289L165.869 289C165.985 286.859 167.881 285.136 170.241 285.136C172.601 285.136 174.458 286.624 174.594 288.782ZM88.8154 19.1567C88.8154 16.4538 91.1562 14.2769 94.0193 14.2769C96.8825 14.2769 99.2426 16.4538 99.2426 19.1568C99.2426 22.7173 96.9018 24.8942 94.0387 24.8942C91.1756 24.8942 88.8154 22.7173 88.8154 19.1567Z"/>
</mask>
<g filter="url(#filter0_i_5624_11614)">
<path d="M174.594 288.782L182.138 288.782C185.369 288.782 188 286.351 188 283.34L188 275.874C185.814 275.638 184.131 273.933 184.131 271.847C184.131 269.761 185.833 268.055 188 267.82L188 256.66C185.814 256.424 184.131 254.719 184.131 252.633C184.131 250.547 185.833 248.842 188 248.606L188 237.446C185.814 237.211 184.131 235.505 184.131 233.419C184.131 231.333 185.833 229.628 188 229.392L188 218.233C185.814 217.997 184.131 216.291 184.131 214.205C184.131 212.119 185.833 210.414 188 210.178L188 199.019C185.814 198.783 184.131 197.078 184.131 194.991C184.131 192.905 185.833 191.2 188 190.964L188 179.787C185.814 179.551 184.131 177.846 184.131 175.759C184.131 173.673 185.833 171.968 188 171.732L188 160.573C185.814 160.337 184.131 158.632 184.131 156.546C184.131 154.459 185.833 152.754 188 152.518L188 141.359C185.814 141.123 184.131 139.418 184.131 137.332C184.131 135.245 185.833 133.54 188 133.304L188 122.145C185.814 121.909 184.131 120.204 184.131 118.118C184.131 116.032 185.833 114.326 188 114.091L188 102.931C185.814 102.695 184.131 100.99 184.131 98.904C184.131 96.8178 185.833 95.1125 188 94.8767L188 83.7174C185.814 83.4815 184.131 81.7763 184.131 79.6901C184.131 77.6039 185.833 75.8987 188 75.6628L188 64.5035C185.814 64.2677 184.131 62.5624 184.131 60.4762C184.131 58.39 185.833 56.6848 188 56.449L188 45.2896C185.814 45.0538 184.131 43.3486 184.131 41.2624C184.131 39.1762 185.833 37.4709 188 37.2351L188 30.4453C188 27.4339 185.369 25.0031 182.138 25.0031L174.613 25.0031C174.613 27.2525 172.64 29.0666 170.221 29.0666C167.803 29.0666 165.849 27.2525 165.83 25.0031L155.886 25.0031C155.886 27.2525 153.913 29.0666 151.495 29.0666C149.077 29.0666 147.123 27.2525 147.104 25.0031L137.16 25.0031C137.16 27.2525 135.187 29.0666 132.768 29.0666C130.35 29.0666 128.396 27.2525 128.377 25.0031L116.209 25.0031C116.402 23.8965 116.538 22.7717 116.538 20.7531C116.538 9.28812 106.536 4.65683e-06 94.1935 4.11733e-06C81.851 3.57782e-06 71.8494 9.28812 71.8494 20.7531C71.8494 22.7717 71.9848 23.8965 72.1782 25.0031L62.312 25.0031C62.312 27.2525 60.3388 29.0666 57.9206 29.0666C55.5024 29.0666 53.5485 27.2525 53.5291 25.0031L43.5855 25.0031C43.5855 27.2525 41.6123 29.0666 39.1941 29.0666C36.7759 29.0666 34.822 27.2525 34.8026 25.0031L24.859 25.0031C24.859 27.2525 22.8858 29.0666 20.4676 29.0666C18.0494 29.0666 16.0955 27.2525 16.0762 25.0031L5.86171 25.0031C2.631 25.0031 1.40596e-05 27.4339 1.3928e-05 30.4453L1.36328e-05 37.1988C2.39886 37.217 4.35275 39.031 4.35275 41.2805C4.35275 43.53 2.39886 45.3259 1.32759e-05 45.3622L1.27921e-05 56.4308C2.39886 56.449 4.35275 58.263 4.35275 60.5125C4.35275 62.762 2.39886 64.5579 1.24353e-05 64.5942L1.19515e-05 75.6628C2.39886 75.681 4.35275 77.495 4.35275 79.7445C4.35275 81.9758 2.39886 83.7899 1.15946e-05 83.8262L1.11108e-05 94.8948C2.39886 94.913 4.35275 96.7271 4.35275 98.9765C4.35275 101.208 2.39886 103.022 1.0754e-05 103.058L1.02701e-05 114.127C2.39886 114.145 4.35275 115.959 4.35275 118.209C4.35275 120.44 2.39886 122.254 9.91331e-06 122.29L9.42949e-06 133.359C2.39886 133.377 4.35275 135.191 4.35275 137.441C4.35275 139.69 2.39886 141.486 9.07266e-06 141.522L8.58883e-06 152.591C2.39886 152.609 4.35275 154.423 4.35275 156.673C4.35275 158.922 2.39886 160.718 8.232e-06 160.754L7.74817e-06 171.823C2.39886 171.841 4.35275 173.655 4.35274 175.905C4.35274 178.154 2.39886 179.95 7.39134e-06 179.986L6.90752e-06 191.055C2.39886 191.073 4.35274 192.887 4.35274 195.137C4.35274 197.386 2.39886 199.182 6.55068e-06 199.218L6.06686e-06 210.287C2.39886 210.305 4.35274 212.119 4.35274 214.369C4.35274 216.618 2.39886 218.414 5.71003e-06 218.45L5.2262e-06 229.519C2.39885 229.537 4.35274 231.351 4.35274 233.601C4.35274 235.832 2.39885 237.646 4.86937e-06 237.682L4.38554e-06 248.751C2.39885 248.769 4.35274 250.583 4.35274 252.833C4.35274 255.064 2.39885 256.878 4.02871e-06 256.914L3.54489e-06 267.983C2.39885 268.001 4.35274 269.815 4.35274 272.065C4.35274 274.296 2.39885 276.11 3.18805e-06 276.146L2.86409e-06 283.558C2.73245e-06 286.569 2.63098 289 5.8617 289L16.0955 289C16.2116 286.859 18.1075 285.136 20.4676 285.136C22.8278 285.136 24.7043 286.841 24.8397 289L34.822 289C34.9381 286.859 36.8339 285.136 39.1941 285.136C41.5542 285.136 43.4307 286.841 43.5662 289L53.5485 289C53.6646 286.859 55.5604 285.136 57.9206 285.136C60.2807 285.136 62.1572 286.841 62.2926 289L72.2749 289C72.391 286.859 74.2869 285.136 76.647 285.136C79.0072 285.136 80.8837 286.841 81.0191 289L91.0014 289C91.1175 286.859 93.0134 285.136 95.3735 285.136C97.7337 285.136 99.6102 286.841 99.7456 289L109.689 289C109.805 286.859 111.701 285.136 114.061 285.136C116.421 285.136 118.298 286.841 118.433 289L128.416 289C128.532 286.859 130.428 285.136 132.788 285.136C135.148 285.136 137.024 286.841 137.16 289L147.142 289C147.258 286.859 149.154 285.136 151.514 285.136C153.874 285.136 155.751 286.841 155.886 289L165.869 289C165.985 286.859 167.881 285.136 170.241 285.136C172.601 285.136 174.458 286.624 174.594 288.782ZM88.8154 19.1567C88.8154 16.4538 91.1562 14.2769 94.0193 14.2769C96.8825 14.2769 99.2426 16.4538 99.2426 19.1568C99.2426 22.7173 96.9018 24.8942 94.0387 24.8942C91.1756 24.8942 88.8154 22.7173 88.8154 19.1567Z" fill="white"/>
</g>
<path d="M174.594 288.782L182.138 288.782C185.369 288.782 188 286.351 188 283.34L188 275.874C185.814 275.638 184.131 273.933 184.131 271.847C184.131 269.761 185.833 268.055 188 267.82L188 256.66C185.814 256.424 184.131 254.719 184.131 252.633C184.131 250.547 185.833 248.842 188 248.606L188 237.446C185.814 237.211 184.131 235.505 184.131 233.419C184.131 231.333 185.833 229.628 188 229.392L188 218.233C185.814 217.997 184.131 216.291 184.131 214.205C184.131 212.119 185.833 210.414 188 210.178L188 199.019C185.814 198.783 184.131 197.078 184.131 194.991C184.131 192.905 185.833 191.2 188 190.964L188 179.787C185.814 179.551 184.131 177.846 184.131 175.759C184.131 173.673 185.833 171.968 188 171.732L188 160.573C185.814 160.337 184.131 158.632 184.131 156.546C184.131 154.459 185.833 152.754 188 152.518L188 141.359C185.814 141.123 184.131 139.418 184.131 137.332C184.131 135.245 185.833 133.54 188 133.304L188 122.145C185.814 121.909 184.131 120.204 184.131 118.118C184.131 116.032 185.833 114.326 188 114.091L188 102.931C185.814 102.695 184.131 100.99 184.131 98.904C184.131 96.8178 185.833 95.1125 188 94.8767L188 83.7174C185.814 83.4815 184.131 81.7763 184.131 79.6901C184.131 77.6039 185.833 75.8987 188 75.6628L188 64.5035C185.814 64.2677 184.131 62.5624 184.131 60.4762C184.131 58.39 185.833 56.6848 188 56.449L188 45.2896C185.814 45.0538 184.131 43.3486 184.131 41.2624C184.131 39.1762 185.833 37.4709 188 37.2351L188 30.4453C188 27.4339 185.369 25.0031 182.138 25.0031L174.613 25.0031C174.613 27.2525 172.64 29.0666 170.221 29.0666C167.803 29.0666 165.849 27.2525 165.83 25.0031L155.886 25.0031C155.886 27.2525 153.913 29.0666 151.495 29.0666C149.077 29.0666 147.123 27.2525 147.104 25.0031L137.16 25.0031C137.16 27.2525 135.187 29.0666 132.768 29.0666C130.35 29.0666 128.396 27.2525 128.377 25.0031L116.209 25.0031C116.402 23.8965 116.538 22.7717 116.538 20.7531C116.538 9.28812 106.536 4.65683e-06 94.1935 4.11733e-06C81.851 3.57782e-06 71.8494 9.28812 71.8494 20.7531C71.8494 22.7717 71.9848 23.8965 72.1782 25.0031L62.312 25.0031C62.312 27.2525 60.3388 29.0666 57.9206 29.0666C55.5024 29.0666 53.5485 27.2525 53.5291 25.0031L43.5855 25.0031C43.5855 27.2525 41.6123 29.0666 39.1941 29.0666C36.7759 29.0666 34.822 27.2525 34.8026 25.0031L24.859 25.0031C24.859 27.2525 22.8858 29.0666 20.4676 29.0666C18.0494 29.0666 16.0955 27.2525 16.0762 25.0031L5.86171 25.0031C2.631 25.0031 1.40596e-05 27.4339 1.3928e-05 30.4453L1.36328e-05 37.1988C2.39886 37.217 4.35275 39.031 4.35275 41.2805C4.35275 43.53 2.39886 45.3259 1.32759e-05 45.3622L1.27921e-05 56.4308C2.39886 56.449 4.35275 58.263 4.35275 60.5125C4.35275 62.762 2.39886 64.5579 1.24353e-05 64.5942L1.19515e-05 75.6628C2.39886 75.681 4.35275 77.495 4.35275 79.7445C4.35275 81.9758 2.39886 83.7899 1.15946e-05 83.8262L1.11108e-05 94.8948C2.39886 94.913 4.35275 96.7271 4.35275 98.9765C4.35275 101.208 2.39886 103.022 1.0754e-05 103.058L1.02701e-05 114.127C2.39886 114.145 4.35275 115.959 4.35275 118.209C4.35275 120.44 2.39886 122.254 9.91331e-06 122.29L9.42949e-06 133.359C2.39886 133.377 4.35275 135.191 4.35275 137.441C4.35275 139.69 2.39886 141.486 9.07266e-06 141.522L8.58883e-06 152.591C2.39886 152.609 4.35275 154.423 4.35275 156.673C4.35275 158.922 2.39886 160.718 8.232e-06 160.754L7.74817e-06 171.823C2.39886 171.841 4.35275 173.655 4.35274 175.905C4.35274 178.154 2.39886 179.95 7.39134e-06 179.986L6.90752e-06 191.055C2.39886 191.073 4.35274 192.887 4.35274 195.137C4.35274 197.386 2.39886 199.182 6.55068e-06 199.218L6.06686e-06 210.287C2.39886 210.305 4.35274 212.119 4.35274 214.369C4.35274 216.618 2.39886 218.414 5.71003e-06 218.45L5.2262e-06 229.519C2.39885 229.537 4.35274 231.351 4.35274 233.601C4.35274 235.832 2.39885 237.646 4.86937e-06 237.682L4.38554e-06 248.751C2.39885 248.769 4.35274 250.583 4.35274 252.833C4.35274 255.064 2.39885 256.878 4.02871e-06 256.914L3.54489e-06 267.983C2.39885 268.001 4.35274 269.815 4.35274 272.065C4.35274 274.296 2.39885 276.11 3.18805e-06 276.146L2.86409e-06 283.558C2.73245e-06 286.569 2.63098 289 5.8617 289L16.0955 289C16.2116 286.859 18.1075 285.136 20.4676 285.136C22.8278 285.136 24.7043 286.841 24.8397 289L34.822 289C34.9381 286.859 36.8339 285.136 39.1941 285.136C41.5542 285.136 43.4307 286.841 43.5662 289L53.5485 289C53.6646 286.859 55.5604 285.136 57.9206 285.136C60.2807 285.136 62.1572 286.841 62.2926 289L72.2749 289C72.391 286.859 74.2869 285.136 76.647 285.136C79.0072 285.136 80.8837 286.841 81.0191 289L91.0014 289C91.1175 286.859 93.0134 285.136 95.3735 285.136C97.7337 285.136 99.6102 286.841 99.7456 289L109.689 289C109.805 286.859 111.701 285.136 114.061 285.136C116.421 285.136 118.298 286.841 118.433 289L128.416 289C128.532 286.859 130.428 285.136 132.788 285.136C135.148 285.136 137.024 286.841 137.16 289L147.142 289C147.258 286.859 149.154 285.136 151.514 285.136C153.874 285.136 155.751 286.841 155.886 289L165.869 289C165.985 286.859 167.881 285.136 170.241 285.136C172.601 285.136 174.458 286.624 174.594 288.782ZM88.8154 19.1567C88.8154 16.4538 91.1562 14.2769 94.0193 14.2769C96.8825 14.2769 99.2426 16.4538 99.2426 19.1568C99.2426 22.7173 96.9018 24.8942 94.0387 24.8942C91.1756 24.8942 88.8154 22.7173 88.8154 19.1567Z" stroke="url(#paint0_linear_5624_11614)" stroke-width="4" mask="url(#path-1-inside-1_5624_11614)"/>
<path d="M171 267C171 269.761 168.761 272 166 272L22 272C19.2386 272 17 269.761 17 267L17 47C17 44.2386 19.2386 42 22 42L166 42C168.761 42 171 44.2386 171 47L171 267Z" fill="white" stroke="url(#paint1_linear_5624_11614)" stroke-width="2"/>
<defs>
<filter id="filter0_i_5624_11614" x="0" y="8.21774e-06" width="188" height="292" filterUnits="userSpaceOnUse" color-interpolation-filters="sRGB">
<feFlood flood-opacity="0" result="BackgroundImageFix"/>
<feBlend mode="normal" in="SourceGraphic" in2="BackgroundImageFix" result="shape"/>
<feColorMatrix in="SourceAlpha" type="matrix" values="0 0 0 0 0 0 0 0 0 0 0 0 0 0 0 0 0 0 127 0" result="hardAlpha"/>
<feOffset dy="3"/>
<feGaussianBlur stdDeviation="2"/>
<feComposite in2="hardAlpha" operator="arithmetic" k2="-1" k3="1"/>
<feColorMatrix type="matrix" values="0 0 0 0 0 0 0 0 0 0 0 0 0 0 0 0 0 0 0.2 0"/>
<feBlend mode="normal" in2="shape" result="effect1_innerShadow_5624_11614"/>
</filter>
<linearGradient id="paint0_linear_5624_11614" x1="188" y1="10.5265" x2="-58.2074" y2="75.4862" gradientUnits="userSpaceOnUse">
<stop stop-color="#CCC6AF"/>
<stop offset="0.144052" stop-color="#D0B185"/>
<stop offset="0.36115" stop-color="#D8C99D"/>
<stop offset="0.494366" stop-color="#EBDFC1"/>
<stop offset="0.598666" stop-color="#D3CBBA"/>
<stop offset="0.828212" stop-color="#D7C49C"/>
<stop offset="1" stop-color="#C2AA87"/>
</linearGradient>
<linearGradient id="paint1_linear_5624_11614" x1="170" y1="51.3047" x2="-28.4123" y2="104.953" gradientUnits="userSpaceOnUse">
<stop stop-color="#CCC6AF"/>
<stop offset="0.144052" stop-color="#D0B185"/>
<stop offset="0.36115" stop-color="#D8C99D"/>
<stop offset="0.494366" stop-color="#EBDFC1"/>
<stop offset="0.598666" stop-color="#D3CBBA"/>
<stop offset="0.828212" stop-color="#D7C49C"/>
<stop offset="1" stop-color="#C2AA87"/>
</linearGradient>
</defs>
</svg>
