<svg width="44" height="44" viewBox="0 0 44 44" fill="none" xmlns="http://www.w3.org/2000/svg">
<rect x="0.6" y="0.6" width="42.8" height="42.8" rx="21.4" stroke="black" stroke-opacity="0.1" stroke-width="1.2"/>
<path d="M22.0635 14.0585C22.4189 14.0586 22.7378 14.1552 23.0684 14.3046C23.3878 14.4489 23.7556 14.6605 24.1992 14.9159L27.8545 17.0204C28.4604 17.3692 28.9718 17.662 29.3232 17.9403C29.6784 18.2217 30 18.5901 30 19.118C29.9999 19.646 29.6784 20.0144 29.3232 20.2958C28.9719 20.574 28.4603 20.8659 27.8545 21.2147L27.0801 21.66L27.7275 22.0331C28.3333 22.3818 28.8449 22.6738 29.1963 22.952C29.5515 23.2334 29.8739 23.6018 29.874 24.1298C29.874 24.6578 29.5515 25.0261 29.1963 25.3075C28.8448 25.5858 28.3334 25.8786 27.7275 26.2274L24.0732 28.3319C23.6296 28.5873 23.2619 28.7989 22.9424 28.9432C22.6116 29.0926 22.2922 29.1893 21.9365 29.1893C21.581 29.1893 21.2623 29.0926 20.9316 28.9432C20.612 28.7989 20.2447 28.5865 19.8008 28.3309L16.1465 26.2274C15.5406 25.8786 15.0292 25.5858 14.6777 25.3075C14.3224 25.0261 13.999 24.6579 13.999 24.1298C13.9991 23.6016 14.3224 23.2334 14.6777 22.952C15.0292 22.6738 15.5407 22.3819 16.1465 22.0331L16.9199 21.5868L16.2734 21.2147C15.6677 20.866 15.1562 20.574 14.8047 20.2958C14.4494 20.0144 14.1261 19.6462 14.126 19.118C14.126 18.5898 14.4493 18.2217 14.8047 17.9403C15.1562 17.6621 15.6676 17.3692 16.2734 17.0204L19.9268 14.9169C20.3705 14.6614 20.7381 14.4489 21.0576 14.3046C21.3884 14.1551 21.7078 14.0585 22.0635 14.0585ZM16.7031 23.0009C16.0646 23.3685 15.642 23.6135 15.3711 23.828C15.106 24.038 15.116 24.1189 15.1162 24.1298C15.1162 24.1397 15.104 24.221 15.3711 24.4325C15.6421 24.647 16.0647 24.8921 16.7031 25.2596L20.3574 27.3632C20.8201 27.6296 21.1335 27.8091 21.3916 27.9257C21.6382 28.037 21.7948 28.0721 21.9365 28.0721C22.0783 28.0721 22.2349 28.037 22.4814 27.9257C22.7395 27.8091 23.053 27.6295 23.5156 27.3632L27.1699 25.2596C27.8082 24.8922 28.231 24.6469 28.502 24.4325C28.7691 24.221 28.7578 24.1397 28.7578 24.1298C28.758 24.1189 28.7672 24.038 28.502 23.828C28.231 23.6135 27.8084 23.3684 27.1699 23.0009L25.9609 22.3046L24.1992 23.3192C23.7554 23.5747 23.3879 23.7871 23.0684 23.9315C22.7378 24.0809 22.4189 24.1766 22.0635 24.1766C21.7078 24.1766 21.3884 24.0809 21.0576 23.9315C20.738 23.7871 20.3706 23.5748 19.9268 23.3192L18.0391 22.2313L16.7031 23.0009ZM22.0635 15.1757C21.9217 15.1757 21.7643 15.2107 21.5176 15.3221C21.2595 15.4388 20.946 15.6183 20.4834 15.8846L16.8301 17.9882C16.1914 18.3558 15.768 18.6008 15.4971 18.8153C15.2299 19.0268 15.2432 19.1081 15.2432 19.118C15.243 19.1289 15.232 19.2099 15.4971 19.4198C15.768 19.6343 16.1914 19.8792 16.8301 20.2469L20.4834 22.3505C20.9459 22.6167 21.2595 22.7963 21.5176 22.913C21.7643 23.0244 21.9217 23.0594 22.0635 23.0594C22.2052 23.0594 22.362 23.0242 22.6084 22.913C22.8664 22.7963 23.1801 22.6168 23.6426 22.3505L27.2959 20.2469C27.9345 19.8793 28.3579 19.6343 28.6289 19.4198C28.8939 19.2099 28.8849 19.1289 28.8848 19.118C28.8848 19.1081 28.896 19.0268 28.6289 18.8153C28.3579 18.6008 27.9345 18.3558 27.2959 17.9882L23.6426 15.8846C23.1799 15.6183 22.8665 15.4388 22.6084 15.3221C22.362 15.2109 22.2052 15.1757 22.0635 15.1757Z" fill="#1C1C1E"/>
</svg>
