<svg width="24" height="24" viewBox="0 0 24 24" fill="none" xmlns="http://www.w3.org/2000/svg">
<g clip-path="url(#clip0_958_1598)">
<path d="M8.49429 1.71436C3.82457 1.71436 0 5.06407 0 9.31721C0 11.7721 1.272 13.7881 3.39943 15.3515L2.55086 18.0412L5.51829 16.4726C6.58114 16.6938 7.43314 16.9218 8.49429 16.9218C8.76171 16.9218 9.02571 16.9081 9.288 16.8875C9.11573 16.2772 9.02748 15.6462 9.02571 15.0121C9.02571 11.1069 12.2143 7.93721 16.248 7.93721C16.5257 7.93721 16.7966 7.95778 17.0657 7.98864C16.3303 4.38864 12.672 1.71436 8.49429 1.71436ZM5.64171 7.84807C5.004 7.84807 4.48629 7.30464 4.48629 6.63264C4.48629 5.96236 5.004 5.41721 5.64171 5.41721C6.27943 5.41721 6.79714 5.96236 6.79714 6.63436C6.79714 7.30293 6.27943 7.84807 5.64171 7.84807ZM11.5731 7.84807C10.9371 7.84807 10.4194 7.30464 10.4194 6.63264C10.4194 5.96236 10.9371 5.41721 11.5749 5.41721C12.2109 5.41721 12.7286 5.96236 12.7286 6.63436C12.7286 7.30293 12.2109 7.84807 11.5749 7.84807H11.5731ZM24 14.9058C24 16.9218 22.7297 18.7064 21.024 20.0538L21.6634 22.2858L19.3354 20.9435C18.4851 21.1664 17.6314 21.3926 16.7846 21.3926C12.744 21.3926 9.56057 18.4852 9.56057 14.9058C9.56057 11.3349 12.744 8.42064 16.7846 8.42064C20.6006 8.42064 24 11.3315 24 14.9058ZM14.5509 13.9132C15.0823 13.9132 15.5109 13.4589 15.5109 12.9018C15.5109 12.3412 15.0823 11.8886 14.5509 11.8886C14.0194 11.8886 13.5874 12.3412 13.5874 12.9001C13.5874 13.4606 14.0177 13.9132 14.5509 13.9132ZM19.224 13.9064C19.7554 13.9064 20.1874 13.4538 20.1874 12.8949C20.1874 12.3344 19.7554 11.8818 19.224 11.8818C18.6926 11.8818 18.2623 12.3344 18.2623 12.8932C18.2623 13.4538 18.6926 13.9064 19.224 13.9064Z" fill="white"/>
</g>
<defs>
<clipPath id="clip0_958_1598">
<rect width="24" height="24" fill="white"/>
</clipPath>
</defs>
</svg>
