<svg width="10" height="2" viewBox="0 0 10 2" fill="none" xmlns="http://www.w3.org/2000/svg">
<path d="M0.744141 1.50586C0.615234 1.50586 0.494141 1.47266 0.380859 1.40625C0.267578 1.33594 0.175781 1.24414 0.105469 1.13086C0.0351562 1.01367 0 0.886719 0 0.75C0 0.613281 0.0351562 0.488281 0.105469 0.375C0.175781 0.261719 0.267578 0.171875 0.380859 0.105469C0.494141 0.0351562 0.615234 0 0.744141 0H9.15234C9.28516 0 9.4082 0.0351562 9.52148 0.105469C9.63477 0.171875 9.72461 0.261719 9.79102 0.375C9.86133 0.488281 9.89648 0.613281 9.89648 0.75C9.89648 0.886719 9.86133 1.01367 9.79102 1.13086C9.72461 1.24414 9.63477 1.33594 9.52148 1.40625C9.4082 1.47266 9.28516 1.50586 9.15234 1.50586H0.744141Z" fill="black"/>
</svg>
