<svg width="16" height="16" viewBox="0 0 16 16" fill="none" xmlns="http://www.w3.org/2000/svg">
<g clip-path="url(#clip0_212_1898)">
<path d="M6.375 14.75H1.5625C1.47962 14.75 1.40013 14.7171 1.34153 14.6585C1.28292 14.5999 1.25 14.5204 1.25 14.4375V1.5625C1.25 1.47962 1.28292 1.40013 1.34153 1.34153C1.40013 1.28292 1.47962 1.25 1.5625 1.25H6.375C6.54076 1.25 6.69973 1.18415 6.81694 1.06694C6.93415 0.949731 7 0.79076 7 0.625C7 0.45924 6.93415 0.300269 6.81694 0.183058C6.69973 0.065848 6.54076 0 6.375 0H0.625C0.45924 0 0.300269 0.065848 0.183058 0.183058C0.065848 0.300269 0 0.45924 0 0.625V15.375C0 15.5408 0.065848 15.6997 0.183058 15.8169C0.300269 15.9342 0.45924 16 0.625 16H6.375C6.54076 16 6.69973 15.9342 6.81694 15.8169C6.93415 15.6997 7 15.5408 7 15.375C7 15.2092 6.93415 15.0503 6.81694 14.9331C6.69973 14.8158 6.54076 14.75 6.375 14.75Z" fill="white"/>
<path d="M16 7.93779L15.9991 7.93029C15.9991 7.9242 15.9978 7.9181 15.9969 7.91217C15.9969 7.91013 15.9969 7.9081 15.9961 7.90607V7.90248C15.9759 7.77146 15.8205 7.5567 15.8205 7.5567L13.4455 4.18295C13.3874 4.12491 13.3185 4.07887 13.2427 4.04746C13.1669 4.01605 13.0856 3.99988 13.0035 3.99988C12.9214 3.99988 12.8402 4.01605 12.7643 4.04746C12.6885 4.07887 12.6196 4.12491 12.5616 4.18295C12.5035 4.24098 12.4575 4.30989 12.4261 4.38572C12.3947 4.46155 12.3785 4.54282 12.3785 4.6249C12.3785 4.70698 12.3947 4.78825 12.4261 4.86409C12.4575 4.93992 12.5035 5.00882 12.5616 5.06685L14.1447 7.37529H5.62844C5.46268 7.37529 5.30371 7.44114 5.1865 7.55835C5.06929 7.67556 5.00344 7.83453 5.00344 8.00029C5.00344 8.16605 5.06929 8.32502 5.1865 8.44223C5.30371 8.55944 5.46268 8.62529 5.62844 8.62529L14.1424 8.62488L12.5558 10.9334C12.4977 10.9915 12.4517 11.0604 12.4203 11.1362C12.3889 11.212 12.3727 11.2933 12.3727 11.3754C12.3727 11.4574 12.3889 11.5387 12.4203 11.6146C12.4517 11.6904 12.4977 11.7593 12.5558 11.8173C12.673 11.9345 12.8319 12.0003 12.9977 12.0003C13.1634 12.0003 13.3223 11.9345 13.4395 11.8173L15.8203 8.4442C15.8203 8.4442 15.9364 8.29896 15.9675 8.21134C15.9986 8.12372 16.0097 8.03026 16 7.93779Z" fill="white"/>
</g>
<defs>
<clipPath id="clip0_212_1898">
<rect width="16" height="16" fill="white"/>
</clipPath>
</defs>
</svg>
