<svg width="137" height="137" viewBox="0 0 137 137" fill="none" xmlns="http://www.w3.org/2000/svg">
<path d="M12.6568 66.3816C10.6844 66.3816 8.98783 68.6866 8.98783 70.9952C8.98783 73.3038 11.1987 75.3841 15.0641 75.3841C16.4664 75.3841 18.0835 77.8754 18.0835 79.9227C18.0835 81.9692 16.312 84.7035 14.4894 84.7035H5.6094C1.69196 84.7035 0 86.6485 0 89.1865C0 91.7244 1.07529 93.9581 5.63681 93.9581H49.3107L37.1965 66.3816H12.6577H12.6568ZM124.656 79.0019C125.96 79.0019 127.082 77.478 127.082 75.9496C127.082 74.4211 125.619 73.0471 123.058 73.0471C122.122 73.0471 121.062 71.4017 121.062 70.046C121.062 68.6911 122.24 66.8868 123.436 66.8868H129.298C131.905 66.8868 133.037 65.6014 133.037 63.9232C133.037 62.2449 132.326 60.7686 129.298 60.7686H101.931L102.632 78.9973L124.656 79.0019Z" fill="#F5F5F5"/>
<path d="M54.92 119.433H31.3158C31.0678 119.433 30.83 119.334 30.6546 119.159C30.4792 118.983 30.3807 118.746 30.3807 118.498C30.3807 118.25 30.4792 118.012 30.6546 117.836C30.83 117.661 31.0678 117.563 31.3158 117.563H54.92C55.0428 117.563 55.1644 117.587 55.2778 117.634C55.3912 117.681 55.4943 117.749 55.5811 117.836C55.6679 117.923 55.7368 118.026 55.7838 118.139C55.8308 118.253 55.8549 118.374 55.8549 118.497C55.8549 118.62 55.8308 118.741 55.7838 118.855C55.7368 118.968 55.6679 119.071 55.5811 119.158C55.4943 119.245 55.3912 119.314 55.2778 119.361C55.1644 119.408 55.0428 119.432 54.92 119.432V119.433ZM33.6527 114.758H11.6847C11.4368 114.758 11.1991 114.659 11.0239 114.484C10.8486 114.309 10.7501 114.071 10.7501 113.823C10.7501 113.575 10.8486 113.338 11.0239 113.162C11.1991 112.987 11.4368 112.889 11.6847 112.889H33.6527C33.9006 112.889 34.1383 112.987 34.3136 113.162C34.4889 113.338 34.5873 113.575 34.5873 113.823C34.5873 114.071 34.4889 114.309 34.3136 114.484C34.1383 114.659 33.9006 114.758 33.6527 114.758ZM25.7073 119.432H22.4348C22.187 119.432 21.9494 119.333 21.7742 119.158C21.599 118.983 21.5006 118.745 21.5006 118.497C21.5006 118.249 21.599 118.012 21.7742 117.836C21.9494 117.661 22.187 117.563 22.4348 117.563H25.7073C25.8301 117.563 25.9516 117.587 26.065 117.634C26.1785 117.681 26.2815 117.749 26.3684 117.836C26.4552 117.923 26.524 118.026 26.571 118.139C26.618 118.253 26.6422 118.374 26.6422 118.497C26.6422 118.62 26.618 118.741 26.571 118.855C26.524 118.968 26.4552 119.071 26.3684 119.158C26.2815 119.245 26.1785 119.314 26.065 119.361C25.9516 119.408 25.8301 119.432 25.7073 119.432ZM17.761 119.432H13.0871C12.8392 119.432 12.6016 119.333 12.4264 119.158C12.2512 118.983 12.1528 118.745 12.1528 118.497C12.1528 118.249 12.2512 118.012 12.4264 117.836C12.6016 117.661 12.8392 117.563 13.0871 117.563H17.761C17.8837 117.563 18.0053 117.587 18.1187 117.634C18.2321 117.681 18.3352 117.749 18.422 117.836C18.5088 117.923 18.5777 118.026 18.6247 118.139C18.6717 118.253 18.6959 118.374 18.6959 118.497C18.6959 118.62 18.6717 118.741 18.6247 118.855C18.5777 118.968 18.5088 119.071 18.422 119.158C18.3352 119.245 18.2321 119.314 18.1187 119.361C18.0053 119.408 17.8837 119.432 17.761 119.432ZM8.41317 119.432H3.73928C3.49146 119.432 3.25382 119.333 3.07862 119.158C2.90342 118.983 2.80499 118.745 2.80499 118.497C2.80499 118.249 2.90342 118.012 3.07862 117.836C3.25382 117.661 3.49146 117.563 3.73928 117.563H8.41317C8.53593 117.563 8.6575 117.587 8.77092 117.634C8.88435 117.681 8.98741 117.749 9.07423 117.836C9.16105 117.923 9.22992 118.026 9.2769 118.139C9.32389 118.253 9.34808 118.374 9.34808 118.497C9.34808 118.62 9.32389 118.741 9.2769 118.855C9.22992 118.968 9.16105 119.071 9.07423 119.158C8.98741 119.245 8.88435 119.314 8.77092 119.361C8.6575 119.408 8.53593 119.432 8.41317 119.432ZM132.041 114.758H104.931C104.684 114.758 104.446 114.659 104.271 114.484C104.095 114.309 103.997 114.071 103.997 113.823C103.997 113.575 104.095 113.338 104.271 113.162C104.446 112.987 104.684 112.889 104.931 112.889H132.041C132.289 112.889 132.527 112.987 132.702 113.162C132.877 113.338 132.976 113.575 132.976 113.823C132.976 114.071 132.877 114.309 132.702 114.484C132.527 114.659 132.289 114.758 132.041 114.758ZM136.014 119.432H131.849C131.601 119.432 131.364 119.333 131.189 119.158C131.013 118.983 130.915 118.745 130.915 118.497C130.915 118.249 131.013 118.012 131.189 117.836C131.364 117.661 131.601 117.563 131.849 117.563H136.014C136.262 117.563 136.5 117.661 136.675 117.836C136.85 118.012 136.949 118.249 136.949 118.497C136.949 118.745 136.85 118.983 136.675 119.158C136.5 119.333 136.262 119.432 136.014 119.432ZM127.175 119.432H122.501C122.254 119.432 122.016 119.333 121.841 119.158C121.666 118.983 121.567 118.745 121.567 118.497C121.567 118.249 121.666 118.012 121.841 117.836C122.016 117.661 122.254 117.563 122.501 117.563H127.175C127.298 117.563 127.42 117.587 127.533 117.634C127.647 117.681 127.75 117.749 127.836 117.836C127.923 117.923 127.992 118.026 128.039 118.139C128.086 118.253 128.11 118.374 128.11 118.497C128.11 118.62 128.086 118.741 128.039 118.855C127.992 118.968 127.923 119.071 127.836 119.158C127.75 119.245 127.647 119.314 127.533 119.361C127.42 119.408 127.298 119.432 127.175 119.432ZM117.828 119.432H113.154C112.906 119.432 112.668 119.333 112.493 119.158C112.318 118.983 112.219 118.745 112.219 118.497C112.219 118.249 112.318 118.012 112.493 117.836C112.668 117.661 112.906 117.563 113.154 117.563H117.828C117.95 117.563 118.072 117.587 118.185 117.634C118.299 117.681 118.402 117.749 118.489 117.836C118.575 117.923 118.644 118.026 118.691 118.139C118.738 118.253 118.762 118.374 118.762 118.497C118.762 118.62 118.738 118.741 118.691 118.855C118.644 118.968 118.575 119.071 118.489 119.158C118.402 119.245 118.299 119.314 118.185 119.361C118.072 119.408 117.95 119.432 117.828 119.432ZM106.862 119.432H90.9107C90.6628 119.432 90.4252 119.333 90.25 119.158C90.0748 118.983 89.9764 118.745 89.9764 118.497C89.9764 118.249 90.0748 118.012 90.25 117.836C90.4252 117.661 90.6628 117.563 90.9107 117.563H106.863C106.985 117.563 107.107 117.587 107.22 117.634C107.334 117.681 107.437 117.749 107.524 117.836C107.611 117.923 107.679 118.026 107.726 118.139C107.773 118.253 107.798 118.374 107.798 118.497C107.798 118.62 107.773 118.741 107.726 118.855C107.679 118.968 107.611 119.071 107.524 119.158C107.437 119.245 107.334 119.314 107.22 119.361C107.107 119.408 106.985 119.432 106.863 119.432H106.862Z" fill="#D1D1D1"/>
<path d="M30.5027 64.3115L35.0551 110.949L71.6148 118.605V73.6876L30.5027 64.3115Z" fill="white"/>
<path d="M72.5312 119.759L34.1671 111.719L29.4466 63.1094L72.5312 72.9249V119.759ZM35.8965 110.176L70.662 117.458V74.4296L31.5588 65.5075L35.8965 110.176Z" fill="#D1D1D1"/>
<path d="M109.307 63.0439L71.5117 74.1257V118.501L106.858 110.654L109.307 63.0439Z" fill="white"/>
<path d="M70.5779 119.665V73.4253L110.307 61.7734L107.754 111.407L70.5779 119.665ZM72.4471 74.8276V117.328L105.965 109.887L108.302 64.3068L72.4471 74.8276Z" fill="#D1D1D1"/>
<path d="M109.292 63.2646L72.3677 73.1131L90.2739 91.0284L119.678 81.8058L109.292 63.2646Z" fill="white"/>
<path d="M90.0309 92.0892L70.5779 72.6262L109.751 62.1748L121.057 82.344L90.0309 92.0892ZM74.1903 73.5983L90.5498 89.9578L118.299 81.2404L108.83 64.3482L74.1903 73.5992V73.5983Z" fill="#D1D1D1"/>
<path d="M108.835 64.3574L112.644 79.6042L90.4932 89.9231L118.323 81.2578L108.834 64.3565L108.835 64.3574ZM72.3759 74.1729V117.646L106.099 109.859L75.2509 113.579L72.3759 74.1729ZM108.086 63.2867L70.6383 53.7891L31.927 63.2538L72.1612 73.3598L108.086 63.2867Z" fill="#F5F5F5"/>
<path d="M72.1804 74.3273L71.9374 74.2661L31.7032 64.1618V62.342L70.6428 52.8252L111.708 63.24L72.1804 74.3264V74.3273ZM35.8171 63.2638L72.153 72.3923L104.465 63.3296L70.6337 54.7519L35.8171 63.2638Z" fill="#D1D1D1"/>
<path d="M57.9577 62.6421C57.7124 62.6526 57.4728 62.5663 57.2904 62.4019C57.1081 62.2374 56.9977 62.0079 56.983 61.7628C56.9682 61.5176 57.0503 61.2766 57.2117 61.0914C57.373 60.9063 57.6005 60.7919 57.8453 60.7729C59.4715 60.5719 61.0146 60.3527 62.4315 60.1142C62.6701 60.085 62.9109 60.1488 63.1036 60.2925C63.2964 60.4361 63.4264 60.6485 63.4666 60.8855C63.5069 61.1225 63.4542 61.3659 63.3196 61.5651C63.185 61.7643 62.9789 61.904 62.744 61.9551C61.3042 62.1981 59.7337 62.4229 58.0701 62.6284L57.9577 62.6421ZM67.1657 61.0488C66.9379 61.0475 66.7184 60.9631 66.5485 60.8113C66.3786 60.6595 66.27 60.451 66.243 60.2247C66.2161 59.9985 66.2727 59.7703 66.4023 59.5829C66.5318 59.3954 66.7253 59.2618 66.9465 59.2071C68.4182 58.8595 69.8629 58.4064 71.2695 57.8513C71.3841 57.7991 71.508 57.7707 71.6339 57.7676C71.7597 57.7645 71.8849 57.7869 72.0018 57.8333C72.1188 57.8798 72.2252 57.9495 72.3146 58.0381C72.404 58.1267 72.4746 58.2324 72.5222 58.349C72.5697 58.4655 72.5932 58.5905 72.5912 58.7164C72.5893 58.8422 72.5619 58.9664 72.5108 59.0814C72.4597 59.1964 72.3859 59.3 72.2938 59.3858C72.2017 59.4716 72.0932 59.5379 71.9748 59.5807C70.483 60.1702 68.9506 60.6514 67.3896 61.0205C67.3146 61.0388 67.2379 61.0479 67.1612 61.0479H67.1657V61.0488ZM75.5323 57.1734C75.3527 57.1733 75.1769 57.1214 75.026 57.024C74.8751 56.9265 74.7554 56.7876 74.6814 56.624C74.6074 56.4603 74.5821 56.2788 74.6086 56.1011C74.635 55.9234 74.7122 55.7571 74.8307 55.6222C75.0364 55.392 75.208 55.1336 75.3405 54.8547C75.6948 54.1164 75.8831 53.3093 75.8923 52.4904C75.8923 52.3159 75.8831 52.1405 75.8639 51.9669C75.8475 51.8424 75.8561 51.7159 75.8894 51.5948C75.9226 51.4737 75.9798 51.3605 76.0575 51.2619C76.1352 51.1633 76.2319 51.0812 76.3419 51.0206C76.4518 50.9599 76.5728 50.9219 76.6977 50.9088C76.8226 50.8957 76.9488 50.9077 77.0689 50.9442C77.1891 50.9806 77.3007 51.0408 77.3972 51.1211C77.4938 51.2014 77.5732 51.3003 77.6309 51.4118C77.6886 51.5233 77.7234 51.6453 77.7331 51.7705C77.7587 52.0098 77.7706 52.2501 77.7706 52.4904C77.7562 53.5781 77.5059 54.6497 77.037 55.6313C76.8305 56.0726 76.561 56.4818 76.2376 56.8464C76.1504 56.9483 76.0423 57.0303 75.9206 57.0867C75.7989 57.1431 75.6665 57.1727 75.5323 57.1734ZM75.0088 48.5364C74.8544 48.537 74.7023 48.4994 74.566 48.4269C74.4297 48.3543 74.3134 48.2491 74.2277 48.1207C73.7525 47.4289 73.2618 46.7478 72.7559 46.078C72.3254 45.5102 71.9045 44.9351 71.4934 44.3531C71.3514 44.1498 71.296 43.8985 71.3393 43.6543C71.3827 43.4102 71.5212 43.1932 71.7245 43.0512C71.9278 42.9093 72.1792 42.8538 72.4233 42.8972C72.6674 42.9405 72.8844 43.0791 73.0264 43.2824C73.4192 43.8488 73.8449 44.4134 74.256 44.9606C74.775 45.6522 75.3076 46.363 75.789 47.0829C75.8827 47.2236 75.9365 47.387 75.9446 47.5558C75.9528 47.7246 75.915 47.8925 75.8353 48.0415C75.7557 48.1906 75.6371 48.3152 75.4922 48.4022C75.3473 48.4892 75.1815 48.5352 75.0125 48.5355H75.0088V48.5364ZM70.1102 40.6184C69.6936 40.6184 69.3273 40.3416 69.2131 39.9405C68.9731 39.1158 68.8501 38.2615 68.8476 37.4026C68.8522 36.5301 68.9764 35.6613 69.2176 34.8226C69.2928 34.5891 69.4554 34.3939 69.6714 34.2776C69.8874 34.1614 70.14 34.1334 70.3762 34.1993C70.6125 34.2652 70.814 34.42 70.9387 34.6312C71.0633 34.8424 71.1013 35.0937 71.0448 35.3324C70.8507 36.0055 70.7502 36.7021 70.7461 37.4026C70.7475 38.0879 70.8465 38.7696 71.0402 39.4271C71.0808 39.5687 71.0873 39.718 71.0592 39.8627C71.031 40.0073 70.9691 40.1433 70.8784 40.2594C70.7877 40.3756 70.6709 40.4687 70.5374 40.531C70.4039 40.5934 70.2575 40.6234 70.1102 40.6184ZM72.1996 31.8544C72.0318 31.8495 71.8684 31.7995 71.7265 31.7096C71.5847 31.6198 71.4697 31.4934 71.3937 31.3437C71.3176 31.1941 71.2832 31.0267 71.2942 30.8592C71.3051 30.6917 71.361 30.5302 71.4559 30.3917C72.4123 29.0549 73.5301 27.8413 74.7841 26.7785C74.9732 26.6466 75.2045 26.5893 75.4334 26.6176C75.6622 26.6459 75.8725 26.7578 76.0239 26.9318C76.1752 27.1058 76.2568 27.3296 76.2531 27.5602C76.2494 27.7908 76.1606 28.0118 76.0037 28.1809C74.8731 29.1441 73.8655 30.2428 73.0035 31.4524C72.9158 31.5789 72.7982 31.6818 72.6611 31.752C72.524 31.8221 72.3718 31.8573 72.2178 31.8544H72.1996ZM79.1775 25.7507C78.9718 25.7506 78.7719 25.6827 78.6087 25.5574C78.4455 25.4321 78.3283 25.2565 78.2751 25.0578C78.2219 24.8591 78.2357 24.6484 78.3145 24.4583C78.3932 24.2683 78.5325 24.1095 78.7107 24.0067C80.1015 23.2153 81.5443 22.5191 83.0292 21.9228C83.2574 21.8383 83.5096 21.846 83.7322 21.9444C83.9548 22.0427 84.1303 22.2239 84.2215 22.4496C84.3126 22.6752 84.3123 22.9275 84.2205 23.1529C84.1287 23.3783 83.9528 23.559 83.7299 23.6568C82.3238 24.2209 80.9575 24.8799 79.6407 25.6292C79.5046 25.706 79.352 25.748 79.1967 25.7507H79.1784H79.1775ZM87.7963 22.2033C87.5708 22.2039 87.3527 22.123 87.1823 21.9755C87.0118 21.828 86.9003 21.6238 86.8685 21.4006C86.8367 21.1774 86.8866 20.9502 87.0091 20.761C87.1316 20.5717 87.3183 20.4331 87.535 20.3706C89.0534 19.9313 90.5874 19.5476 92.1339 19.2204C92.3758 19.1659 92.6293 19.2097 92.8389 19.3421C93.0484 19.4746 93.1967 19.6848 93.2513 19.9266C93.3058 20.1684 93.262 20.422 93.1296 20.6315C92.9971 20.8411 92.7869 20.9894 92.5451 21.0439C91.0439 21.3598 89.5553 21.7322 88.0822 22.1603C87.9956 22.1856 87.9057 22.1983 87.8154 22.1978L87.7972 22.2033H87.7963ZM103.081 16.7108L96.5557 22.1704L94.5787 16.4258L103.081 16.7108Z" fill="#D1D1D1"/>
<path d="M30.3529 62.7314L16.8647 84.9471L57.5795 96.1631L71.9045 73.5245L30.3529 62.7314Z" fill="white"/>
<path d="M57.9997 97.2303L15.424 85.5218L29.9134 61.6562L73.3817 72.9253L57.9997 97.2303ZM18.3082 84.3716L57.1629 95.0578L70.4327 74.0856L30.7923 63.8023L18.3082 84.3716Z" fill="#D1D1D1"/>
</svg>
