<svg width="56" height="56" viewBox="0 0 56 56" fill="none" xmlns="http://www.w3.org/2000/svg">
<path d="M28 0C43.464 0 55.9999 12.536 56 28C56 43.4641 43.4641 56 28 56C12.536 55.9999 0 43.464 0 28C9.58649e-05 12.5361 12.5361 9.58708e-05 28 0ZM39.251 20.0098C39.0009 19.9457 38.7374 19.9471 38.4883 20.0146C38.2391 20.0822 38.0132 20.2133 37.835 20.3936L24.6025 33.1025C24.5787 33.1262 24.5492 33.1453 24.5176 33.1582C24.4861 33.1709 24.4521 33.1777 24.418 33.1777C24.3838 33.1777 24.3499 33.171 24.3184 33.1582C24.2868 33.1454 24.2582 33.1261 24.2344 33.1025L18.1934 27.3047C18.0382 27.1549 17.8521 27.0378 17.6475 26.96C17.4429 26.8822 17.2238 26.8453 17.0039 26.8525C16.784 26.8598 16.5677 26.91 16.3691 27.001C16.1705 27.092 15.9938 27.2221 15.8496 27.3818C15.5897 27.6961 15.4612 28.0919 15.4893 28.4922C15.5174 28.8925 15.6996 29.2688 16.001 29.5469L23.5859 37.0107C24.3859 37.7786 24.8899 37.1647 25.3779 36.6963L40.043 22.6201C40.1926 22.4774 40.3116 22.308 40.3926 22.1211C40.4736 21.934 40.5158 21.7329 40.5156 21.5303C40.5101 21.1783 40.383 20.8377 40.1543 20.5625C39.9255 20.2873 39.6074 20.0931 39.251 20.0098Z" fill="#07C060"/>
</svg>
