<svg width="24" height="24" viewBox="0 0 24 24" fill="none" xmlns="http://www.w3.org/2000/svg">
<path d="M20.25 0.0830078C21.7682 0.0830756 23 1.31574 23 2.83398V21.1709C23.005 22.6842 21.7682 23.9218 20.2549 23.9219H3.74609C2.22786 23.9219 0.995117 22.6892 0.995117 21.1709V2.83398C0.995117 1.31574 2.22786 0.0830285 3.74609 0.0830078H20.25ZM3.74609 1.91211C3.24347 1.91213 2.82935 2.32555 2.8291 2.82812V21.166C2.8291 21.6737 3.24332 22.083 3.74609 22.083H20.25C20.7577 22.0829 21.167 21.6737 21.167 21.166V2.82812C21.1667 2.32555 20.7575 1.91218 20.25 1.91211H3.74609ZM18.3867 16.5713C18.8942 16.5715 19.3027 16.9807 19.3027 17.4883C19.3027 17.9959 18.8942 18.405 18.3867 18.4053H5.56934C5.06178 18.405 4.65332 17.9959 4.65332 17.4883C4.65338 16.9808 5.06182 16.5715 5.56934 16.5713H18.3867ZM15.6943 11.1045C16.202 11.1045 16.6112 11.5138 16.6113 12.0215C16.6113 12.5292 16.2021 12.9385 15.6943 12.9385H5.57422C5.06669 12.9382 4.6582 12.5291 4.6582 12.0215C4.65829 11.514 5.06674 11.1047 5.57422 11.1045H15.6943ZM6.0332 4.70117C6.79229 4.70122 7.4082 5.31805 7.4082 6.07715C7.40799 6.83607 6.79216 7.4521 6.0332 7.45215C5.27421 7.45215 4.65841 6.8361 4.6582 6.07715C4.6582 5.31802 5.27408 4.70117 6.0332 4.70117ZM11.9727 4.70117C12.7318 4.70117 13.3486 5.31802 13.3486 6.07715C13.3484 6.8361 12.7317 7.45215 11.9727 7.45215C11.2138 7.45192 10.5979 6.83596 10.5977 6.07715C10.5977 5.31816 11.2137 4.7014 11.9727 4.70117ZM17.9375 4.70117C18.6966 4.70117 19.3125 5.31802 19.3125 6.07715C19.3123 6.8361 18.6965 7.45215 17.9375 7.45215C17.1786 7.45205 16.5627 6.83604 16.5625 6.07715C16.5625 5.31808 17.1785 4.70127 17.9375 4.70117Z" fill="#1C1C1E"/>
</svg>
