<svg width="16" height="16" viewBox="0 0 16 16" fill="none" xmlns="http://www.w3.org/2000/svg">
<path d="M15.5 14.1721C15.776 14.1721 15.9998 14.3961 16 14.6721C16 14.9482 15.7761 15.1721 15.5 15.1721H0.5C0.223858 15.1721 0 14.9482 0 14.6721C0.000182879 14.3961 0.22397 14.1721 0.5 14.1721H15.5ZM11.2236 0.448431C12.0091 -0.191843 13.1673 -0.146654 13.8994 0.585149L14.0361 0.737493C14.6343 1.47066 14.6342 2.52863 14.0361 3.26191L13.8994 3.41425L5.8125 11.5012C5.03147 12.2817 3.76528 12.2819 2.98438 11.5012C2.20333 10.7201 2.20333 9.45311 2.98438 8.67206L11.0713 0.585149L11.2236 0.448431ZM13.1924 1.29218C12.802 0.902107 12.1688 0.902154 11.7783 1.29218L3.69141 9.3791C3.30099 9.76951 3.3012 10.4026 3.69141 10.7932C4.08193 11.1837 4.71494 11.1837 5.10547 10.7932L13.1924 2.70624C13.5825 2.31569 13.5828 1.68257 13.1924 1.29218Z" fill="#1C1C1E"/>
</svg>
