<svg width="16" height="16" viewBox="0 0 16 16" fill="none" xmlns="http://www.w3.org/2000/svg">
<path d="M12.667 0C14.5077 0.000175762 15.9998 1.49232 16 3.33301V8.66699C15.9998 10.5077 14.5077 11.9998 12.667 12H12C12 14.2091 10.2091 16 8 16H4C1.79086 16 0 14.2091 0 12V8C6.44256e-08 5.79086 1.79086 4 4 4V3.33301C4.00018 1.49232 5.49232 0.000175956 7.33301 0H12.667ZM4 5.33301C2.52724 5.33301 1.33301 6.52724 1.33301 8V12C1.33301 13.4728 2.52724 14.667 4 14.667H8C9.47276 14.667 10.667 13.4728 10.667 12V8C10.667 6.52724 9.47276 5.33301 8 5.33301H4ZM8 4C10.2091 4 12 5.79086 12 8V10.667H12.667C13.7713 10.6668 14.6668 9.7713 14.667 8.66699V3.33301C14.6668 2.2287 13.7713 1.33318 12.667 1.33301H7.33301C6.2287 1.33318 5.33318 2.2287 5.33301 3.33301V4H8Z" fill="#0088FF"/>
</svg>
