<svg width="12" height="9" viewBox="0 0 12 9" fill="none" xmlns="http://www.w3.org/2000/svg">
<path d="M7 0C7.55228 0 8 0.447715 8 1H8.98535C9.3083 1 9.61112 1.15616 9.79883 1.41895L11.8135 4.23926C11.9346 4.40882 12 4.61194 12 4.82031V7C12 7.55228 11.5523 8 11 8H9.91309C9.70703 8.58234 9.15293 9 8.5 9C7.84522 9 7.28961 8.58005 7.08496 7.99512C7.05692 7.99748 7.02865 8 7 8H4.91309C4.70703 8.58234 4.15293 9 3.5 9C2.84707 9 2.29297 8.58234 2.08691 8H1C0.447715 8 0 7.55228 0 7V1C0 0.447715 0.447715 0 1 0H7ZM3.5 6.75C3.44713 6.75 3.39548 6.75522 3.3457 6.76562C3.30556 6.77417 3.26693 6.78699 3.22949 6.80176C3.21813 6.80616 3.2064 6.80952 3.19531 6.81445C3.16465 6.82833 3.13574 6.84555 3.10742 6.86328C3.09215 6.87272 3.07702 6.8821 3.0625 6.89258C3.06082 6.89381 3.05929 6.89524 3.05762 6.89648L2.96973 6.96973C2.834 7.10545 2.75 7.29289 2.75 7.5C2.75 7.71933 2.84601 7.91462 2.99609 8.05176C3.01721 8.07117 3.0393 8.0895 3.0625 8.10645C3.07621 8.11635 3.09011 8.12578 3.10449 8.13477C3.1336 8.15318 3.1637 8.17025 3.19531 8.18457C3.20641 8.18952 3.21812 8.19285 3.22949 8.19727C3.26697 8.21207 3.30551 8.22483 3.3457 8.2334C3.39554 8.24383 3.44706 8.25 3.5 8.25C3.55261 8.25 3.60377 8.2437 3.65332 8.2334C3.69354 8.22488 3.73202 8.21203 3.76953 8.19727C3.78091 8.19286 3.7926 8.1895 3.80371 8.18457C3.83536 8.17027 3.86539 8.15316 3.89453 8.13477C3.90916 8.12565 3.92356 8.11652 3.9375 8.10645C3.9607 8.0895 3.98279 8.07117 4.00391 8.05176C4.15399 7.91462 4.25 7.71933 4.25 7.5C4.25 7.29289 4.166 7.10545 4.03027 6.96973L3.94238 6.89648C3.94071 6.89524 3.93918 6.89381 3.9375 6.89258C3.92298 6.8821 3.90785 6.87272 3.89258 6.86328C3.86585 6.84654 3.8384 6.83069 3.80957 6.81738L3.79199 6.80859C3.78482 6.80556 3.77682 6.80457 3.76953 6.80176C3.73206 6.78703 3.69349 6.77413 3.65332 6.76562C3.60383 6.75535 3.55254 6.75 3.5 6.75ZM8.5 6.75C8.45329 6.75 8.40763 6.75452 8.36328 6.7627C8.36134 6.76306 8.35936 6.76329 8.35742 6.76367C8.22356 6.78944 8.10416 6.85274 8.00586 6.93945C8.00395 6.94114 8.00189 6.94264 8 6.94434C7.84753 7.08162 7.75 7.27868 7.75 7.5C7.75 7.77139 7.89543 8.007 8.11133 8.13867C8.13715 8.15468 8.16364 8.1698 8.19141 8.18262C8.20418 8.1884 8.21733 8.19317 8.23047 8.19824C8.26786 8.21299 8.30659 8.22487 8.34668 8.2334C8.39623 8.2437 8.44739 8.25 8.5 8.25C8.55261 8.25 8.60377 8.2437 8.65332 8.2334C8.69354 8.22488 8.73202 8.21203 8.76953 8.19727C8.78091 8.19286 8.7926 8.1895 8.80371 8.18457C8.83536 8.17027 8.86539 8.15316 8.89453 8.13477C8.90916 8.12565 8.92356 8.11652 8.9375 8.10645C8.9607 8.0895 8.98279 8.07117 9.00391 8.05176C9.15399 7.91462 9.25 7.71933 9.25 7.5C9.25 7.29289 9.166 7.10545 9.03027 6.96973L8.94238 6.89648C8.94071 6.89524 8.93918 6.89381 8.9375 6.89258C8.92298 6.8821 8.90785 6.87272 8.89258 6.86328C8.86585 6.84654 8.8384 6.83069 8.80957 6.81738L8.79199 6.80859C8.78481 6.80556 8.77682 6.80457 8.76953 6.80176C8.73206 6.78703 8.69349 6.77413 8.65332 6.76562C8.60383 6.75535 8.55254 6.75 8.5 6.75ZM1 7H2.08691C2.29297 6.41766 2.84707 6 3.5 6C4.15293 6 4.70703 6.41766 4.91309 7H7V1H1V7ZM8 6.08691C8.15653 6.03153 8.3245 6 8.5 6C9.15293 6 9.70703 6.41766 9.91309 7H11V4.82031L8.98535 2H8V6.08691Z" fill="#1C1C1E"/>
</svg>
