<svg width="221" height="289" viewBox="0 0 221 289" fill="none" xmlns="http://www.w3.org/2000/svg">
<g filter="url(#filter0_i_3924_2617)">
<path fill-rule="evenodd" clip-rule="evenodd" d="M8.22672 40.7516C8.22672 36.224 1.96949 36.1848 2.04669 31.6578C2.12389 27.1307 8.22977 27.4229 8.75254 22.9175C9.27532 18.4121 3.02107 16.8539 5.26543 12.7543C7.50979 8.65458 11.9986 11.913 16.6979 9.83561C21.3972 7.7582 19.8478 3.0366 25.1048 2.5403C30.3618 2.04401 30.7705 7.45611 36.0587 7.37893C41.3468 7.30176 41.2941 2.0002 46.583 2.00001C51.8719 1.99982 51.872 7.33037 57.1609 7.33037C62.4498 7.33037 62.4498 2 67.7387 2C73.0276 2 73.0276 7.33037 78.3165 7.33037C83.6054 7.33037 83.6054 2 88.8943 2C94.1832 2 94.1832 7.33037 99.4721 7.33037C104.761 7.33037 104.761 2 110.05 2C115.339 2 115.339 7.33037 120.628 7.33037C125.917 7.33037 125.917 2 131.205 2C136.494 2 136.494 7.33037 141.783 7.33037C147.072 7.33037 147.072 2 152.361 2C157.65 2 157.65 7.33037 162.939 7.33037C168.228 7.33037 168.228 2 173.517 2C178.806 2 178.763 7.30434 184.051 7.36718C189.339 7.43002 189.692 2.0244 194.956 2.45749C200.221 2.89059 198.817 7.68449 203.632 9.55785C208.447 11.4312 212.776 7.94711 215.261 11.9437C217.746 15.9403 211.558 17.6911 212.157 22.1896C212.756 26.688 218.844 26.3517 218.939 30.8786C219.033 35.4054 212.773 35.4537 212.773 39.9812C212.774 44.5088 219 44.5086 219 49.0361C219 53.5637 212.773 53.5637 212.773 58.0912C212.773 62.6188 219 62.6188 219 67.1463C219 71.6739 212.773 71.6739 212.773 76.2014C212.773 80.729 219 80.729 219 85.2565C219 89.7841 212.773 89.7841 212.773 94.3116C212.773 98.8392 219 98.8392 219 103.367C219 107.894 212.773 107.894 212.773 112.422C212.773 116.949 219 116.949 219 121.477C219 126.004 212.773 126.004 212.773 130.532C212.773 135.06 219 135.06 219 139.587C219 144.115 212.773 144.115 212.773 148.642C212.773 153.17 219 153.17 219 157.697C219 162.225 212.773 162.225 212.773 166.752C212.773 171.28 219 171.28 219 175.808C219 180.335 212.773 180.335 212.773 184.863C212.773 189.39 219 189.39 219 193.918C219 198.445 212.773 198.445 212.773 202.973C212.773 207.5 219 207.5 219 212.028C219 216.555 212.773 216.555 212.773 221.083C212.773 225.611 219 225.611 219 230.138C219 234.666 212.773 234.666 212.773 239.193C212.773 243.721 219 243.721 219 248.248C219 252.776 212.804 252.737 212.727 257.264C212.65 261.791 218.966 262.104 218.444 266.609C217.921 271.115 212.341 269.884 210.096 273.984C207.852 278.083 211.858 281.823 207.159 283.9C202.46 285.978 200.47 280.665 195.213 281.161C189.956 281.658 190.336 286.873 185.047 286.951C179.759 287.028 179.706 281.669 174.417 281.67C169.128 281.67 169.128 287 163.839 287C158.55 287 158.55 281.67 153.261 281.67C147.972 281.67 147.972 287 142.683 287C137.395 287 137.395 281.67 132.106 281.67C126.817 281.67 126.817 287 121.528 287C116.239 287 116.239 281.67 110.95 281.67C105.661 281.67 105.661 287 100.372 287C95.0833 287 95.0833 281.67 89.7944 281.67C84.5055 281.67 84.5055 287 79.2166 287C73.9277 287 73.9277 281.67 68.6388 281.67C63.3499 281.67 63.3499 287 58.061 287C52.7721 287 52.7721 281.67 47.4832 281.67C42.1944 281.67 42.1508 287.026 36.8624 286.963C31.574 286.9 31.9039 281.67 26.6393 281.237C21.3746 280.803 19.606 286.168 14.7911 284.295C9.97615 282.421 13.7204 278.548 11.2352 274.552C8.75 270.555 3.25517 271.912 2.6564 267.414C2.05764 262.915 8.38168 262.553 8.28716 258.026C8.19264 253.499 2.00041 253.547 2.00002 249.019C1.99964 244.492 8.22672 244.491 8.22672 239.964C8.22672 235.436 2 235.436 2 230.909C2 226.381 8.22672 226.381 8.22672 221.854C8.22672 217.326 2 217.326 2 212.799C2 208.271 8.22672 208.271 8.22672 203.743C8.22672 199.216 2 199.216 2 194.688C2 190.161 8.22672 190.161 8.22672 185.633C8.22672 181.106 2 181.106 2 176.578C2 172.051 8.22672 172.051 8.22672 167.523C8.22672 162.995 2 162.995 2 158.468C2 153.94 8.22672 153.94 8.22672 149.413C8.22672 144.885 2 144.885 2 140.358C2 135.83 8.22672 135.83 8.22672 131.303C8.22672 126.775 2 126.775 2 122.247C2 117.72 8.22672 117.72 8.22672 113.192C8.22672 108.665 2 108.665 2 104.137C2 99.6097 8.22672 99.6097 8.22672 95.0822C8.22672 90.5546 2 90.5546 2 86.0271C2 81.4995 8.22672 81.4995 8.22672 76.972C8.22672 72.4444 2 72.4444 2 67.9169C2 63.3893 8.22672 63.3893 8.22672 58.8618C8.22672 54.3342 2 54.3342 2 49.8067C2 45.2791 8.22672 45.2791 8.22672 40.7516Z" fill="#EDECDD"/>
</g>
<path fill-rule="evenodd" clip-rule="evenodd" d="M8.22672 40.7516C8.22672 36.224 1.96949 36.1848 2.04669 31.6578C2.12389 27.1307 8.22977 27.4229 8.75254 22.9175C9.27532 18.4121 3.02107 16.8539 5.26543 12.7543C7.50979 8.65458 11.9986 11.913 16.6979 9.83561C21.3972 7.7582 19.8478 3.0366 25.1048 2.5403C30.3618 2.04401 30.7705 7.45611 36.0587 7.37893C41.3468 7.30176 41.2941 2.0002 46.583 2.00001C51.8719 1.99982 51.872 7.33037 57.1609 7.33037C62.4498 7.33037 62.4498 2 67.7387 2C73.0276 2 73.0276 7.33037 78.3165 7.33037C83.6054 7.33037 83.6054 2 88.8943 2C94.1832 2 94.1832 7.33037 99.4721 7.33037C104.761 7.33037 104.761 2 110.05 2C115.339 2 115.339 7.33037 120.628 7.33037C125.917 7.33037 125.917 2 131.205 2C136.494 2 136.494 7.33037 141.783 7.33037C147.072 7.33037 147.072 2 152.361 2C157.65 2 157.65 7.33037 162.939 7.33037C168.228 7.33037 168.228 2 173.517 2C178.806 2 178.763 7.30434 184.051 7.36718C189.339 7.43002 189.692 2.0244 194.956 2.45749C200.221 2.89059 198.817 7.68449 203.632 9.55785C208.447 11.4312 212.776 7.94711 215.261 11.9437C217.746 15.9403 211.558 17.6911 212.157 22.1896C212.756 26.688 218.844 26.3517 218.939 30.8786C219.033 35.4054 212.773 35.4537 212.773 39.9812C212.774 44.5088 219 44.5086 219 49.0361C219 53.5637 212.773 53.5637 212.773 58.0912C212.773 62.6188 219 62.6188 219 67.1463C219 71.6739 212.773 71.6739 212.773 76.2014C212.773 80.729 219 80.729 219 85.2565C219 89.7841 212.773 89.7841 212.773 94.3116C212.773 98.8392 219 98.8392 219 103.367C219 107.894 212.773 107.894 212.773 112.422C212.773 116.949 219 116.949 219 121.477C219 126.004 212.773 126.004 212.773 130.532C212.773 135.06 219 135.06 219 139.587C219 144.115 212.773 144.115 212.773 148.642C212.773 153.17 219 153.17 219 157.697C219 162.225 212.773 162.225 212.773 166.752C212.773 171.28 219 171.28 219 175.808C219 180.335 212.773 180.335 212.773 184.863C212.773 189.39 219 189.39 219 193.918C219 198.445 212.773 198.445 212.773 202.973C212.773 207.5 219 207.5 219 212.028C219 216.555 212.773 216.555 212.773 221.083C212.773 225.611 219 225.611 219 230.138C219 234.666 212.773 234.666 212.773 239.193C212.773 243.721 219 243.721 219 248.248C219 252.776 212.804 252.737 212.727 257.264C212.65 261.791 218.966 262.104 218.444 266.609C217.921 271.115 212.341 269.884 210.096 273.984C207.852 278.083 211.858 281.823 207.159 283.9C202.46 285.978 200.47 280.665 195.213 281.161C189.956 281.658 190.336 286.873 185.047 286.951C179.759 287.028 179.706 281.669 174.417 281.67C169.128 281.67 169.128 287 163.839 287C158.55 287 158.55 281.67 153.261 281.67C147.972 281.67 147.972 287 142.683 287C137.395 287 137.395 281.67 132.106 281.67C126.817 281.67 126.817 287 121.528 287C116.239 287 116.239 281.67 110.95 281.67C105.661 281.67 105.661 287 100.372 287C95.0833 287 95.0833 281.67 89.7944 281.67C84.5055 281.67 84.5055 287 79.2166 287C73.9277 287 73.9277 281.67 68.6388 281.67C63.3499 281.67 63.3499 287 58.061 287C52.7721 287 52.7721 281.67 47.4832 281.67C42.1944 281.67 42.1508 287.026 36.8624 286.963C31.574 286.9 31.9039 281.67 26.6393 281.237C21.3746 280.803 19.606 286.168 14.7911 284.295C9.97615 282.421 13.7204 278.548 11.2352 274.552C8.75 270.555 3.25517 271.912 2.6564 267.414C2.05764 262.915 8.38168 262.553 8.28716 258.026C8.19264 253.499 2.00041 253.547 2.00002 249.019C1.99964 244.492 8.22672 244.491 8.22672 239.964C8.22672 235.436 2 235.436 2 230.909C2 226.381 8.22672 226.381 8.22672 221.854C8.22672 217.326 2 217.326 2 212.799C2 208.271 8.22672 208.271 8.22672 203.743C8.22672 199.216 2 199.216 2 194.688C2 190.161 8.22672 190.161 8.22672 185.633C8.22672 181.106 2 181.106 2 176.578C2 172.051 8.22672 172.051 8.22672 167.523C8.22672 162.995 2 162.995 2 158.468C2 153.94 8.22672 153.94 8.22672 149.413C8.22672 144.885 2 144.885 2 140.358C2 135.83 8.22672 135.83 8.22672 131.303C8.22672 126.775 2 126.775 2 122.247C2 117.72 8.22672 117.72 8.22672 113.192C8.22672 108.665 2 108.665 2 104.137C2 99.6097 8.22672 99.6097 8.22672 95.0822C8.22672 90.5546 2 90.5546 2 86.0271C2 81.4995 8.22672 81.4995 8.22672 76.972C8.22672 72.4444 2 72.4444 2 67.9169C2 63.3893 8.22672 63.3893 8.22672 58.8618C8.22672 54.3342 2 54.3342 2 49.8067C2 45.2791 8.22672 45.2791 8.22672 40.7516Z" stroke="url(#paint0_linear_3924_2617)" stroke-width="3"/>
<g filter="url(#filter1_i_3924_2617)">
<rect x="18" y="18" width="185" height="253" rx="4" fill="#EDECDD"/>
</g>
<rect x="16.5" y="16.5" width="188" height="256" rx="5.5" stroke="url(#paint1_linear_3924_2617)" stroke-width="3"/>
<defs>
<filter id="filter0_i_3924_2617" x="0.5" y="0.5" width="220" height="292" filterUnits="userSpaceOnUse" color-interpolation-filters="sRGB">
<feFlood flood-opacity="0" result="BackgroundImageFix"/>
<feBlend mode="normal" in="SourceGraphic" in2="BackgroundImageFix" result="shape"/>
<feColorMatrix in="SourceAlpha" type="matrix" values="0 0 0 0 0 0 0 0 0 0 0 0 0 0 0 0 0 0 127 0" result="hardAlpha"/>
<feOffset dy="4"/>
<feGaussianBlur stdDeviation="2"/>
<feComposite in2="hardAlpha" operator="arithmetic" k2="-1" k3="1"/>
<feColorMatrix type="matrix" values="0 0 0 0 0 0 0 0 0 0 0 0 0 0 0 0 0 0 0.25 0"/>
<feBlend mode="normal" in2="shape" result="effect1_innerShadow_3924_2617"/>
</filter>
<filter id="filter1_i_3924_2617" x="15" y="15" width="191" height="263" filterUnits="userSpaceOnUse" color-interpolation-filters="sRGB">
<feFlood flood-opacity="0" result="BackgroundImageFix"/>
<feBlend mode="normal" in="SourceGraphic" in2="BackgroundImageFix" result="shape"/>
<feColorMatrix in="SourceAlpha" type="matrix" values="0 0 0 0 0 0 0 0 0 0 0 0 0 0 0 0 0 0 127 0" result="hardAlpha"/>
<feOffset dy="4"/>
<feGaussianBlur stdDeviation="2"/>
<feComposite in2="hardAlpha" operator="arithmetic" k2="-1" k3="1"/>
<feColorMatrix type="matrix" values="0 0 0 0 0 0 0 0 0 0 0 0 0 0 0 0 0 0 0.25 0"/>
<feBlend mode="normal" in2="shape" result="effect1_innerShadow_3924_2617"/>
</filter>
<linearGradient id="paint0_linear_3924_2617" x1="9.904" y1="2" x2="175.558" y2="312.981" gradientUnits="userSpaceOnUse">
<stop stop-color="#CCC6AF"/>
<stop offset="0.144052" stop-color="#D0B185"/>
<stop offset="0.36115" stop-color="#D8C99D"/>
<stop offset="0.494366" stop-color="#EBDFC1"/>
<stop offset="0.598666" stop-color="#D3CBBA"/>
<stop offset="0.828212" stop-color="#D7C49C"/>
<stop offset="1" stop-color="#9D886A"/>
</linearGradient>
<linearGradient id="paint1_linear_3924_2617" x1="24.7384" y1="18" x2="175.063" y2="289.017" gradientUnits="userSpaceOnUse">
<stop stop-color="#CCC6AF"/>
<stop offset="0.144052" stop-color="#D0B185"/>
<stop offset="0.36115" stop-color="#D8C99D"/>
<stop offset="0.494366" stop-color="#EBDFC1"/>
<stop offset="0.598666" stop-color="#D3CBBA"/>
<stop offset="0.828212" stop-color="#D7C49C"/>
<stop offset="1" stop-color="#9D886A"/>
</linearGradient>
</defs>
</svg>
