<svg width="16" height="16" viewBox="0 0 16 16" fill="none" xmlns="http://www.w3.org/2000/svg">
<path d="M9.45095 9.45088C9.50969 9.39205 9.57945 9.34538 9.65624 9.31354C9.73303 9.28169 9.81534 9.26529 9.89847 9.26528C10.0663 9.26528 10.2274 9.3321 10.346 9.45088L13.7372 12.8408L13.7359 10.7931L13.7461 10.6793C13.8043 10.3572 14.099 10.1329 14.4251 10.1625C14.7512 10.192 15.0005 10.4656 15 10.7931V14.3803C14.9991 14.407 14.9966 14.4335 14.9925 14.46L14.9887 14.4803C14.9848 14.5061 14.9789 14.5313 14.971 14.5562L14.9608 14.5853L14.9507 14.6105C14.9194 14.6869 14.873 14.7561 14.8142 14.814L14.8522 14.771L14.8497 14.7735L14.8332 14.7925L14.8142 14.814L14.804 14.8242L14.794 14.8345C14.7114 14.9085 14.6113 14.9602 14.5032 14.9848L14.44 14.9937L14.368 15H10.7921L10.6783 14.9887C10.3786 14.9339 10.1606 14.6729 10.16 14.3681L10.1701 14.2544C10.2251 13.9541 10.4866 13.7361 10.7919 13.7362L12.8394 13.7337L9.45221 10.3459L9.37893 10.2574C9.20498 10.0064 9.23543 9.66712 9.45095 9.45088ZM6.54762 9.45088C6.76367 9.66676 6.79449 10.0061 6.62089 10.2573L6.54762 10.3458L3.15896 13.7332L5.20666 13.7357C5.51194 13.7355 5.77368 13.9537 5.8285 14.2538L5.83871 14.3676C5.83818 14.6723 5.62033 14.9334 5.32061 14.9882L5.20684 14.9995H1.63223L1.55645 14.9919L1.49571 14.9832C1.37827 14.9562 1.27061 14.8971 1.18471 14.8126L1.16572 14.7924L1.14816 14.7721L1.16572 14.7911L1.13042 14.7506L1.14565 14.7696L1.13813 14.7596C1.11259 14.7281 1.09016 14.6943 1.07112 14.6585L1.05088 14.6105C1.03349 14.5683 1.02082 14.5242 1.01308 14.4792L1.00806 14.459C1.0043 14.4326 1.00215 14.4059 1.00161 14.3792V10.792C1.00108 10.4645 1.25045 10.191 1.57651 10.1614C1.90257 10.1318 2.19727 10.3561 2.2555 10.6783L2.26571 10.792L2.26445 12.8408L5.65562 9.45088C5.90231 9.20418 6.30254 9.20418 6.54923 9.45088H6.54762ZM5.20917 1L5.32293 1.01021C5.62319 1.06503 5.84122 1.32678 5.84104 1.63206L5.82975 1.74582C5.77476 2.04608 5.51319 2.26411 5.20792 2.26393L3.16021 2.26644L6.54887 5.65389L6.62214 5.74239C6.80595 6.01148 6.75507 6.37606 6.5048 6.58459C6.25434 6.79295 5.88655 6.777 5.65526 6.54751L2.26284 3.15881L2.2641 5.20654L2.25388 5.3203C2.19566 5.64242 1.90096 5.86672 1.5749 5.83716C1.24884 5.8076 0.999463 5.53403 1 5.20654V1.61934C1 1.59157 1.00251 1.56505 1.00627 1.53854L1.01003 1.51829C1.01433 1.49249 1.0206 1.46723 1.02902 1.44251C1.05913 1.34521 1.11251 1.25672 1.18453 1.18471L1.14655 1.2277L1.13902 1.23792L1.16679 1.20495L1.14906 1.22394L1.16554 1.20639L1.20603 1.16464C1.26049 1.11573 1.32283 1.0765 1.39055 1.04837L1.44107 1.02938C1.50288 1.01021 1.5672 1.00036 1.63187 1.00036L1.56737 1.00287H1.57615L1.60267 1.00036H5.20917V1ZM14.398 1L14.4233 1.00251H14.4308C14.4744 1.0077 14.5175 1.01666 14.5596 1.02902L14.6102 1.04801L14.6569 1.06951L14.7114 1.10104C14.7488 1.12487 14.7836 1.15282 14.8149 1.18453L14.8352 1.20603L14.8492 1.22358L14.8529 1.22609L14.8617 1.23756L14.9034 1.29435C14.9455 1.36297 14.9747 1.43893 14.9894 1.51811L14.9932 1.53836C14.997 1.56487 14.9995 1.59139 14.9995 1.6179V5.20761C14.9966 5.53242 14.7481 5.80223 14.4247 5.83161C14.1012 5.86099 13.8081 5.64045 13.747 5.32138L13.7368 5.20761V3.15773L10.3471 6.54769C10.116 6.77969 9.74584 6.79689 9.49448 6.5871C9.24296 6.37731 9.19333 6.01022 9.38019 5.74114L9.45221 5.65407L12.8421 2.26662L10.7946 2.26411C10.489 2.26483 10.2265 2.04662 10.1715 1.746L10.1602 1.63223C10.16 1.32696 10.3781 1.06521 10.6785 1.01039L10.7923 1.00018H14.398V1Z" fill="white"/>
</svg>
