<svg width="34" height="34" viewBox="0 0 34 34" fill="none" xmlns="http://www.w3.org/2000/svg">
<path d="M28.5221 26.7652C29.0937 27.3429 29.0937 28.2797 28.5221 28.8574C28.2364 29.1463 27.8617 29.2909 27.4873 29.2909C27.113 29.2909 26.7383 29.1463 26.4526 28.8574L16.9997 19.303L7.54682 28.8574C7.26105 29.1463 6.88636 29.2909 6.51203 29.2909C6.13771 29.2909 5.76302 29.1463 5.47724 28.8574C4.9057 28.2797 4.9057 27.3429 5.47724 26.7652L14.9297 17.2108L5.47688 7.65642C4.90533 7.07874 4.90533 6.14194 5.47688 5.56425C6.04843 4.98656 6.97527 4.98656 7.54682 5.56425L16.9997 15.1187L26.4522 5.56462C27.0237 4.98693 27.9506 4.98693 28.5221 5.56462C29.0937 6.14231 29.0937 7.07911 28.5221 7.65679L19.0693 17.2112L28.5221 26.7656V26.7652Z" fill="white"/>
</svg>
