<svg width="16" height="16" viewBox="0 0 16 16" fill="none" xmlns="http://www.w3.org/2000/svg">
<path d="M0.108024 7.47458L2.7858 10.1424C2.85644 10.2128 2.95141 10.2522 3.05032 10.2522C3.14924 10.2522 3.24421 10.2128 3.31485 10.1424L5.98658 7.48072C6.05248 7.41532 6.09262 7.32771 6.09944 7.23435C6.10626 7.14099 6.07929 7.04831 6.02361 6.97374L5.98658 6.93149L5.49758 6.44447C5.42694 6.3741 5.33197 6.33468 5.23305 6.33468C5.13414 6.33468 5.03917 6.3741 4.96853 6.44447L3.70484 7.70272C3.76386 6.67059 4.10871 5.67643 4.69962 4.83489C5.29053 3.99334 6.10343 3.33869 7.04459 2.94641C7.98575 2.55413 9.01683 2.44021 10.0189 2.61778C11.0211 2.79535 11.9534 3.25718 12.7084 3.95001C13.4634 4.64284 14.0104 5.53847 14.2863 6.5336C14.5621 7.52873 14.5556 8.58284 14.2675 9.57438C13.9794 10.5659 13.4214 11.4545 12.6579 12.1377C11.8944 12.8208 10.9564 13.2707 9.95222 13.4355L9.8313 13.454C9.7981 13.4583 9.76484 13.4622 9.73153 13.4655C9.63519 13.4756 9.54635 13.5229 9.48334 13.5977C9.42033 13.6724 9.38797 13.7689 9.39294 13.8672L9.43299 14.6354C9.43551 14.6858 9.44777 14.7352 9.46908 14.7807C9.49038 14.8263 9.52031 14.8672 9.55716 14.901C9.59401 14.9348 9.63705 14.9609 9.68383 14.9778C9.73061 14.9947 9.78021 15.0021 9.82979 14.9995L9.84792 14.998L10.0338 14.9764C11.3264 14.7957 12.5421 14.2465 13.5403 13.3926C14.5386 12.5387 15.2784 11.4149 15.6743 10.1514C16.0702 8.88782 16.1059 7.53614 15.7773 6.25281C15.4488 4.96947 14.7693 3.80695 13.8176 2.89982C12.8659 1.99268 11.681 1.37801 10.3998 1.12697C9.1187 0.875921 7.79381 0.998762 6.57852 1.48127C5.36323 1.96378 4.30724 2.78622 3.53277 3.8534C2.75829 4.92059 2.29702 6.18887 2.20233 7.51145L1.13137 6.4437C1.06073 6.37333 0.965755 6.33391 0.86684 6.33391C0.767924 6.33391 0.672952 6.37333 0.602312 6.4437L0.113314 6.93149C0.0417636 7.0028 0.00101069 7.10007 1.85461e-05 7.20192C-0.000973594 7.30377 0.0378763 7.40184 0.108024 7.47458Z" fill="white"/>
</svg>
