<svg width="289" height="195" viewBox="0 0 289 195" fill="none" xmlns="http://www.w3.org/2000/svg">
<g filter="url(#filter0_i_1541_2476)">
<path fill-rule="evenodd" clip-rule="evenodd" d="M40.7516 187.519C36.224 187.519 36.1848 193.027 31.6578 192.959C27.1307 192.891 27.4229 187.517 22.9175 187.057C18.4121 186.596 16.8539 192.101 12.7543 190.126C8.65458 188.15 11.913 184.199 9.83561 180.063C7.7582 175.927 3.0366 177.291 2.5403 172.664C2.04401 168.036 7.45611 167.677 7.37893 163.022C7.30176 158.368 2.0002 158.414 2.00001 153.759C1.99982 149.104 7.33037 149.103 7.33037 144.448C7.33037 139.793 2 139.793 2 135.138C2 130.483 7.33037 130.483 7.33037 125.827C7.33037 121.172 2 121.172 2 116.517C2 111.862 7.33037 111.862 7.33037 107.207C7.33037 102.551 2 102.551 2 97.8962C2 93.241 7.33037 93.241 7.33037 88.5858C7.33037 83.9306 2 83.9306 2 79.2754C2 74.6202 7.33037 74.6202 7.33037 69.965C7.33037 65.3098 2 65.3097 2 60.6545C2 55.9993 7.33037 55.9994 7.33037 51.3441C7.33037 46.6889 2 46.6889 2 42.0337C2 37.3785 7.30434 37.4163 7.36718 32.7615C7.43002 28.1068 2.0244 27.7968 2.45749 23.1629C2.89059 18.5291 7.68449 19.7643 9.55785 15.5263C11.4312 11.2883 7.94711 7.47823 11.9437 5.29077C15.9403 3.10332 17.6911 8.5502 22.1896 8.02318C26.688 7.49615 26.3517 2.13725 30.8786 2.05406C35.4054 1.97087 35.4537 7.481 39.9812 7.48067C44.5088 7.48033 44.5086 2 49.0361 2C53.5637 2 53.5637 7.48065 58.0912 7.48065C62.6188 7.48065 62.6188 2 67.1463 2C71.6739 2 71.6739 7.48065 76.2014 7.48065C80.729 7.48065 80.729 2 85.2565 2C89.7841 2 89.7841 7.48065 94.3116 7.48065C98.8392 7.48065 98.8392 2 103.367 2C107.894 2 107.894 7.48065 112.422 7.48065C116.949 7.48065 116.949 2 121.477 2C126.004 2 126.004 7.48065 130.532 7.48065C135.06 7.48065 135.06 2 139.587 2C144.115 2 144.115 7.48065 148.642 7.48065C153.17 7.48065 153.17 2 157.697 2C162.225 2 162.225 7.48065 166.752 7.48065C171.28 7.48065 171.28 2 175.808 2C180.335 2 180.335 7.48065 184.863 7.48065C189.39 7.48065 189.39 2 193.918 2C198.445 2 198.445 7.48065 202.973 7.48065C207.5 7.48065 207.5 2 212.028 2C216.555 2 216.555 7.48065 221.083 7.48065C225.611 7.48065 225.611 2 230.138 2C234.666 2 234.666 7.48065 239.193 7.48065C243.721 7.48065 243.721 2 248.248 2C252.776 2 252.737 7.45322 257.264 7.52116C261.791 7.58911 262.104 2.02951 266.609 2.48967C271.115 2.94983 269.884 7.8615 273.984 9.83699C278.083 11.8125 281.823 8.28598 283.9 12.4222C285.978 16.5584 280.665 18.3102 281.161 22.9373C281.658 27.5645 286.873 27.23 286.951 31.8846C287.028 36.5391 281.669 36.5863 281.67 41.2415C281.67 45.8968 287 45.8966 287 50.5518C287 55.207 281.67 55.207 281.67 59.8623C281.67 64.5175 287 64.5175 287 69.1727C287 73.8279 281.67 73.8279 281.67 78.4831C281.67 83.1383 287 83.1383 287 87.7935C287 92.4487 281.67 92.4487 281.67 97.1039C281.67 101.759 287 101.759 287 106.414C287 111.07 281.67 111.07 281.67 115.725C281.67 120.38 287 120.38 287 125.035C287 129.69 281.67 129.69 281.67 134.346C281.67 139.001 287 139.001 287 143.656C287 148.311 281.67 148.311 281.67 152.966C281.67 157.622 287.026 157.66 286.963 162.315C286.9 166.969 281.67 166.679 281.237 171.313C280.803 175.947 286.168 177.504 284.295 181.742C282.421 185.98 278.548 182.684 274.552 184.871C270.555 187.059 271.912 191.895 267.414 192.422C262.915 192.949 262.553 187.383 258.026 187.466C253.499 187.549 253.547 193 249.019 193C244.492 193 244.491 187.519 239.964 187.519C235.436 187.519 235.436 193 230.909 193C226.381 193 226.381 187.519 221.854 187.519C217.326 187.519 217.326 193 212.799 193C208.271 193 208.271 187.519 203.743 187.519C199.216 187.519 199.216 193 194.688 193C190.161 193 190.161 187.519 185.633 187.519C181.106 187.519 181.106 193 176.578 193C172.051 193 172.051 187.519 167.523 187.519C162.995 187.519 162.995 193 158.468 193C153.94 193 153.94 187.519 149.413 187.519C144.885 187.519 144.885 193 140.358 193C135.83 193 135.83 187.519 131.303 187.519C126.775 187.519 126.775 193 122.247 193C117.72 193 117.72 187.519 113.192 187.519C108.665 187.519 108.665 193 104.137 193C99.6097 193 99.6097 187.519 95.0822 187.519C90.5546 187.519 90.5546 193 86.0271 193C81.4995 193 81.4995 187.519 76.972 187.519C72.4444 187.519 72.4444 193 67.9169 193C63.3893 193 63.3893 187.519 58.8618 187.519C54.3342 187.519 54.3342 193 49.8067 193C45.2791 193 45.2791 187.519 40.7516 187.519Z" fill="#EDECDD"/>
</g>
<path fill-rule="evenodd" clip-rule="evenodd" d="M40.7516 187.519C36.224 187.519 36.1848 193.027 31.6578 192.959C27.1307 192.891 27.4229 187.517 22.9175 187.057C18.4121 186.596 16.8539 192.101 12.7543 190.126C8.65458 188.15 11.913 184.199 9.83561 180.063C7.7582 175.927 3.0366 177.291 2.5403 172.664C2.04401 168.036 7.45611 167.677 7.37893 163.022C7.30176 158.368 2.0002 158.414 2.00001 153.759C1.99982 149.104 7.33037 149.103 7.33037 144.448C7.33037 139.793 2 139.793 2 135.138C2 130.483 7.33037 130.483 7.33037 125.827C7.33037 121.172 2 121.172 2 116.517C2 111.862 7.33037 111.862 7.33037 107.207C7.33037 102.551 2 102.551 2 97.8962C2 93.241 7.33037 93.241 7.33037 88.5858C7.33037 83.9306 2 83.9306 2 79.2754C2 74.6202 7.33037 74.6202 7.33037 69.965C7.33037 65.3098 2 65.3097 2 60.6545C2 55.9993 7.33037 55.9994 7.33037 51.3441C7.33037 46.6889 2 46.6889 2 42.0337C2 37.3785 7.30434 37.4163 7.36718 32.7615C7.43002 28.1068 2.0244 27.7968 2.45749 23.1629C2.89059 18.5291 7.68449 19.7643 9.55785 15.5263C11.4312 11.2883 7.94711 7.47823 11.9437 5.29077C15.9403 3.10332 17.6911 8.5502 22.1896 8.02318C26.688 7.49615 26.3517 2.13725 30.8786 2.05406C35.4054 1.97087 35.4537 7.481 39.9812 7.48067C44.5088 7.48033 44.5086 2 49.0361 2C53.5637 2 53.5637 7.48065 58.0912 7.48065C62.6188 7.48065 62.6188 2 67.1463 2C71.6739 2 71.6739 7.48065 76.2014 7.48065C80.729 7.48065 80.729 2 85.2565 2C89.7841 2 89.7841 7.48065 94.3116 7.48065C98.8392 7.48065 98.8392 2 103.367 2C107.894 2 107.894 7.48065 112.422 7.48065C116.949 7.48065 116.949 2 121.477 2C126.004 2 126.004 7.48065 130.532 7.48065C135.06 7.48065 135.06 2 139.587 2C144.115 2 144.115 7.48065 148.642 7.48065C153.17 7.48065 153.17 2 157.697 2C162.225 2 162.225 7.48065 166.752 7.48065C171.28 7.48065 171.28 2 175.808 2C180.335 2 180.335 7.48065 184.863 7.48065C189.39 7.48065 189.39 2 193.918 2C198.445 2 198.445 7.48065 202.973 7.48065C207.5 7.48065 207.5 2 212.028 2C216.555 2 216.555 7.48065 221.083 7.48065C225.611 7.48065 225.611 2 230.138 2C234.666 2 234.666 7.48065 239.193 7.48065C243.721 7.48065 243.721 2 248.248 2C252.776 2 252.737 7.45322 257.264 7.52116C261.791 7.58911 262.104 2.02951 266.609 2.48967C271.115 2.94983 269.884 7.8615 273.984 9.83699C278.083 11.8125 281.823 8.28598 283.9 12.4222C285.978 16.5584 280.665 18.3102 281.161 22.9373C281.658 27.5645 286.873 27.23 286.951 31.8846C287.028 36.5391 281.669 36.5863 281.67 41.2415C281.67 45.8968 287 45.8966 287 50.5518C287 55.207 281.67 55.207 281.67 59.8623C281.67 64.5175 287 64.5175 287 69.1727C287 73.8279 281.67 73.8279 281.67 78.4831C281.67 83.1383 287 83.1383 287 87.7935C287 92.4487 281.67 92.4487 281.67 97.1039C281.67 101.759 287 101.759 287 106.414C287 111.07 281.67 111.07 281.67 115.725C281.67 120.38 287 120.38 287 125.035C287 129.69 281.67 129.69 281.67 134.346C281.67 139.001 287 139.001 287 143.656C287 148.311 281.67 148.311 281.67 152.966C281.67 157.622 287.026 157.66 286.963 162.315C286.9 166.969 281.67 166.679 281.237 171.313C280.803 175.947 286.168 177.504 284.295 181.742C282.421 185.98 278.548 182.684 274.552 184.871C270.555 187.059 271.912 191.895 267.414 192.422C262.915 192.949 262.553 187.383 258.026 187.466C253.499 187.549 253.547 193 249.019 193C244.492 193 244.491 187.519 239.964 187.519C235.436 187.519 235.436 193 230.909 193C226.381 193 226.381 187.519 221.854 187.519C217.326 187.519 217.326 193 212.799 193C208.271 193 208.271 187.519 203.743 187.519C199.216 187.519 199.216 193 194.688 193C190.161 193 190.161 187.519 185.633 187.519C181.106 187.519 181.106 193 176.578 193C172.051 193 172.051 187.519 167.523 187.519C162.995 187.519 162.995 193 158.468 193C153.94 193 153.94 187.519 149.413 187.519C144.885 187.519 144.885 193 140.358 193C135.83 193 135.83 187.519 131.303 187.519C126.775 187.519 126.775 193 122.247 193C117.72 193 117.72 187.519 113.192 187.519C108.665 187.519 108.665 193 104.137 193C99.6097 193 99.6097 187.519 95.0822 187.519C90.5546 187.519 90.5546 193 86.0271 193C81.4995 193 81.4995 187.519 76.972 187.519C72.4444 187.519 72.4444 193 67.9169 193C63.3893 193 63.3893 187.519 58.8618 187.519C54.3342 187.519 54.3342 193 49.8067 193C45.2791 193 45.2791 187.519 40.7516 187.519Z" stroke="url(#paint0_linear_1541_2476)" stroke-width="3"/>
<g filter="url(#filter1_i_1541_2476)">
<rect x="18" y="177" width="159" height="253" rx="4" transform="rotate(-90 18 177)" fill="#EDECDD"/>
</g>
<rect x="16.5" y="178.5" width="162" height="256" rx="5.5" transform="rotate(-90 16.5 178.5)" stroke="url(#paint1_linear_1541_2476)" stroke-width="3"/>
<defs>
<filter id="filter0_i_1541_2476" x="0.5" y="0.5" width="288" height="198" filterUnits="userSpaceOnUse" color-interpolation-filters="sRGB">
<feFlood flood-opacity="0" result="BackgroundImageFix"/>
<feBlend mode="normal" in="SourceGraphic" in2="BackgroundImageFix" result="shape"/>
<feColorMatrix in="SourceAlpha" type="matrix" values="0 0 0 0 0 0 0 0 0 0 0 0 0 0 0 0 0 0 127 0" result="hardAlpha"/>
<feOffset dy="4"/>
<feGaussianBlur stdDeviation="2"/>
<feComposite in2="hardAlpha" operator="arithmetic" k2="-1" k3="1"/>
<feColorMatrix type="matrix" values="0 0 0 0 0 0 0 0 0 0 0 0 0 0 0 0 0 0 0.25 0"/>
<feBlend mode="normal" in2="shape" result="effect1_innerShadow_1541_2476"/>
</filter>
<filter id="filter1_i_1541_2476" x="15" y="15" width="259" height="169" filterUnits="userSpaceOnUse" color-interpolation-filters="sRGB">
<feFlood flood-opacity="0" result="BackgroundImageFix"/>
<feBlend mode="normal" in="SourceGraphic" in2="BackgroundImageFix" result="shape"/>
<feColorMatrix in="SourceAlpha" type="matrix" values="0 0 0 0 0 0 0 0 0 0 0 0 0 0 0 0 0 0 127 0" result="hardAlpha"/>
<feOffset dy="4"/>
<feGaussianBlur stdDeviation="2"/>
<feComposite in2="hardAlpha" operator="arithmetic" k2="-1" k3="1"/>
<feColorMatrix type="matrix" values="0 0 0 0 0 0 0 0 0 0 0 0 0 0 0 0 0 0 0.25 0"/>
<feBlend mode="normal" in2="shape" result="effect1_innerShadow_1541_2476"/>
</filter>
<linearGradient id="paint0_linear_1541_2476" x1="2" y1="186.043" x2="294.201" y2="9.20497" gradientUnits="userSpaceOnUse">
<stop stop-color="#CCC6AF"/>
<stop offset="0.144052" stop-color="#D0B185"/>
<stop offset="0.36115" stop-color="#D8C99D"/>
<stop offset="0.494366" stop-color="#EBDFC1"/>
<stop offset="0.598666" stop-color="#D3CBBA"/>
<stop offset="0.828212" stop-color="#D7C49C"/>
<stop offset="1" stop-color="#9D886A"/>
</linearGradient>
<linearGradient id="paint1_linear_1541_2476" x1="23.7914" y1="177" x2="185.257" y2="427.193" gradientUnits="userSpaceOnUse">
<stop stop-color="#CCC6AF"/>
<stop offset="0.144052" stop-color="#D0B185"/>
<stop offset="0.36115" stop-color="#D8C99D"/>
<stop offset="0.494366" stop-color="#EBDFC1"/>
<stop offset="0.598666" stop-color="#D3CBBA"/>
<stop offset="0.828212" stop-color="#D7C49C"/>
<stop offset="1" stop-color="#9D886A"/>
</linearGradient>
</defs>
</svg>
