<svg width="16" height="16" viewBox="0 0 16 16" fill="none" xmlns="http://www.w3.org/2000/svg">
<g clip-path="url(#clip0_212_1549)">
<path d="M6.709 0.0107751C6.81285 0.0311091 6.91254 0.0801009 7.00294 0.15433C7.12298 0.252939 7.22287 0.393699 7.29201 0.562533C7.36103 0.731179 7.39743 0.921992 7.39748 1.11624V14.8828C7.39748 15.179 7.31305 15.4635 7.1631 15.6729C7.01316 15.8822 6.80968 16 6.59767 16H0.799819C0.658999 16 0.520286 15.9483 0.398452 15.8496C0.276566 15.7509 0.175444 15.6084 0.105483 15.4375C0.0355672 15.2668 -0.00083933 15.0727 1.46863e-05 14.876C0.000927291 14.6795 0.039064 14.4868 0.110366 14.3174L5.90919 0.550814C5.96237 0.424528 6.03252 0.313913 6.11623 0.225619C6.20004 0.137281 6.29583 0.0729777 6.39748 0.0361658C6.49912 -0.000644296 6.60501 -0.0095435 6.709 0.0107751ZM9.29103 0.0107751C9.39502 -0.00954341 9.50091 -0.000643892 9.60255 0.0361658C9.7042 0.0729777 9.79998 0.137281 9.8838 0.225619C9.96751 0.313913 10.0377 0.424527 10.0908 0.550814L15.8897 14.3174C15.961 14.4868 15.9991 14.6795 16 14.876C16.0009 15.0727 15.9645 15.2668 15.8945 15.4375C15.8246 15.6084 15.7235 15.7509 15.6016 15.8496C15.4797 15.9483 15.341 16 15.2002 16H9.40236C9.19035 16 8.98687 15.8822 8.83693 15.6729C8.68698 15.4635 8.60255 15.179 8.60255 14.8828V1.11624C8.6026 0.921992 8.639 0.731179 8.70802 0.562533C8.77716 0.393699 8.87705 0.252939 8.99708 0.15433C9.08748 0.0801008 9.18718 0.0311093 9.29103 0.0107751ZM1.31544 14.7998H6.19826V3.00003L1.31544 14.7998ZM9.80177 14.7998H14.6846L9.80177 3.00003V14.7998Z" fill="#1C1C1E" fill-opacity="0.7"/>
</g>
<defs>
<clipPath id="clip0_212_1549">
<rect width="16" height="16" fill="white"/>
</clipPath>
</defs>
</svg>
