<svg width="24" height="24" viewBox="0 0 24 24" fill="none" xmlns="http://www.w3.org/2000/svg">
<g clip-path="url(#clip0_4_1522)">
<path d="M11.998 0C13.5557 0 15.0692 0.316631 16.4922 0.945312C17.8605 1.54582 19.0913 2.40892 20.1465 3.50781C21.1951 4.60039 22.0228 5.87348 22.5986 7.29102C23.1262 8.57954 23.4229 9.94706 23.4873 11.3574C23.5 11.4726 23.5059 11.5913 23.5059 11.709V13.9678C23.4897 16.8404 22.4267 19.1101 20.3398 20.6943L20.3389 20.6934C18.801 21.8632 16.7234 22.643 14.0059 23.084C13.9973 23.0993 13.9907 23.1153 13.9814 23.1299L13.9824 23.1309C13.9526 23.182 13.9155 23.2322 13.8848 23.2744L13.8838 23.2764C13.8139 23.369 13.7338 23.4541 13.6484 23.5312L13.6465 23.5322C13.5825 23.5884 13.5137 23.6424 13.4404 23.6904C13.3451 23.7539 13.2408 23.8125 13.1318 23.8574L13.1309 23.8564C13.0196 23.904 12.9058 23.9385 12.79 23.9619L12.7891 23.9609C12.7664 23.966 12.7341 23.9734 12.6992 23.9775L12.7002 23.9785H12.6982C12.6969 23.9787 12.6956 23.9793 12.6943 23.9795L12.6934 23.9785C12.6054 23.9914 12.5151 24 12.4248 24C12.0488 24 11.6989 23.8879 11.4082 23.6943L11.4043 23.6914C11.3699 23.6669 11.3318 23.6397 11.2969 23.6123L11.2959 23.6113C11.2428 23.5689 11.191 23.525 11.1387 23.4736C11.1265 23.4617 11.1149 23.4495 11.1064 23.4404C11.0977 23.4311 11.0917 23.4236 11.085 23.417L11.0811 23.415C11.027 23.3584 10.981 23.299 10.9385 23.2412L10.9316 23.2305L10.9258 23.2197L10.9121 23.1992C10.9089 23.1947 10.9045 23.1887 10.9004 23.1826L10.8984 23.1807C10.8744 23.1436 10.851 23.1032 10.8291 23.0664L10.8242 23.0576C10.819 23.0474 10.813 23.038 10.8066 23.0264C10.8004 23.015 10.7935 23.0007 10.7861 22.9863L10.7852 22.9834C10.671 22.7489 10.6045 22.4832 10.6045 22.2041C10.6046 21.7962 10.7431 21.4197 10.9746 21.1182L11.0791 20.9941L11.1387 20.9316C11.1903 20.878 11.2477 20.8324 11.2959 20.7939L11.4121 20.709C11.4466 20.6874 11.4837 20.6639 11.5244 20.6406C11.5769 20.6098 11.6308 20.5827 11.6855 20.5586L11.8535 20.4951L11.8936 20.4814L11.9053 20.4766L11.9482 20.6191L11.9062 20.4775C12.0681 20.4303 12.2418 20.4033 12.4219 20.4033C12.7238 20.4035 13.0075 20.477 13.2588 20.6064L13.373 20.6699C13.3806 20.6752 13.3891 20.6813 13.4004 20.6885C13.4099 20.6945 13.4228 20.7022 13.4355 20.7109C13.5092 20.7592 13.5793 20.8137 13.6436 20.8701L13.6465 20.873C13.7053 20.9276 13.7689 20.9893 13.8262 21.0596L13.8281 21.0625C13.8568 21.0991 13.8939 21.1464 13.9258 21.1943L13.9395 21.2148C16.2399 20.8161 17.9545 20.1638 19.1855 19.2266C20.1248 18.512 20.7935 17.6064 21.1885 16.5225C21.0959 16.5327 21.0015 16.539 20.9053 16.5391C19.5139 16.5391 18.3703 15.4204 18.3701 14.0479V11.5771C18.3703 10.2047 19.5139 9.08594 20.9053 9.08594C21.0159 9.08597 21.1253 9.09637 21.2324 9.11035C21.1268 8.72858 20.9994 8.35323 20.8496 7.98438C20.361 6.78521 19.6631 5.70609 18.7773 4.78418C18.0022 3.97747 17.1194 3.32379 16.1465 2.83789L15.7227 2.63867C14.5438 2.11688 13.2897 1.85254 11.998 1.85254C10.7065 1.85259 9.45298 2.11685 8.27441 2.6416C7.12953 3.14521 6.09964 3.8682 5.2168 4.78711C4.43865 5.59679 3.80594 6.52118 3.33496 7.54102L3.14355 7.98438C2.99375 8.34818 2.86645 8.72111 2.76074 9.10059C2.84939 9.09123 2.93892 9.08595 3.02832 9.08594C4.41968 9.08594 5.56325 10.2047 5.56348 11.5771V14.0479C5.56333 15.4204 4.41972 16.5391 3.02832 16.5391C1.63703 16.5389 0.494291 15.4203 0.494141 14.0479V11.5771C0.494162 11.4782 0.501102 11.3788 0.513672 11.2822C0.584461 9.89684 0.879818 8.55423 1.39453 7.29102C1.9672 5.87641 2.7949 4.60348 3.84668 3.50781C4.90188 2.41199 6.13151 1.54897 7.50293 0.945312C8.92593 0.319565 10.4398 4.95968e-05 11.998 0ZM20.9053 10.9463C20.5525 10.9463 20.2551 11.2404 20.2549 11.5801V14.0508C20.2551 14.3905 20.5525 14.6865 20.9053 14.6865C21.2615 14.6862 21.5558 14.3906 21.5537 14.0527V11.5801C21.5535 11.2406 21.2578 10.9466 20.9053 10.9463ZM3.03125 10.9434C2.71807 10.9436 2.45214 11.1711 2.39746 11.4541C2.39716 11.4698 2.39704 11.4845 2.39648 11.4971C2.39566 11.5153 2.39454 11.5298 2.39453 11.543C2.39453 11.5522 2.39413 11.5613 2.39355 11.5674C2.39302 11.5726 2.39197 11.5774 2.3916 11.5801V11.5918C2.38838 11.6329 2.38478 11.6682 2.38477 11.7051V13.9043C2.38475 13.9212 2.3836 13.9362 2.38281 13.9443C2.38224 13.9502 2.38191 13.9532 2.38184 13.9541V14.0479C2.38199 14.3874 2.67866 14.6823 3.03125 14.6826C3.38406 14.6826 3.68148 14.3876 3.68164 14.0479V11.5771C3.6814 11.2375 3.38401 10.9434 3.03125 10.9434Z" fill="#1C1C1E"/>
</g>
<defs>
<clipPath id="clip0_4_1522">
<rect width="24" height="24" fill="white"/>
</clipPath>
</defs>
</svg>
