<svg width="27" height="34" viewBox="0 0 27 34" fill="none" xmlns="http://www.w3.org/2000/svg">
<g filter="url(#filter0_i_5951_6293)">
<mask id="path-1-inside-1_5951_6293" fill="white">
<path d="M26.9941 2.28296H26.9956V0.845181C26.9956 0.379589 26.6117 0 26.1383 0H24.3472V0.00593185C24.3472 0.649456 23.8196 1.17139 23.1705 1.17139C22.5213 1.17139 21.9938 0.647972 21.9938 0.00593185V0H20.4571V0.00593185C20.4571 0.649456 19.9296 1.17139 19.2804 1.17139C18.6312 1.17139 18.1037 0.647972 18.1037 0.00593185V0H16.567V0.00593185C16.567 0.649456 16.0395 1.17139 15.3903 1.17139C14.7411 1.17139 14.2136 0.647972 14.2136 0.00593185V0H12.677V0.00593185C12.677 0.649456 12.1494 1.17139 11.5002 1.17139C10.8511 1.17139 10.3235 0.647972 10.3235 0.00593185V0H8.78688V0.00593185C8.78688 0.649456 8.25934 1.17139 7.61017 1.17139C6.96099 1.17139 6.43345 0.647972 6.43345 0.00593185V0H4.90413V0.00593185C4.90413 0.649456 4.37659 1.17139 3.72742 1.17139C3.07824 1.17139 2.5507 0.647972 2.5507 0.00593185V0H0.857259C0.383935 0 0 0.379589 0 0.845181L0 2.27851H0.007327C0.656499 2.27851 1.18404 2.80193 1.18404 3.44397C1.18404 4.08601 0.656499 4.60943 0.007327 4.60943H0L0 6.11955H0.007327C0.656499 6.11955 1.18404 6.64296 1.18404 7.28501C1.18404 7.92705 0.656499 8.45047 0.007327 8.45047H0L0 9.98124H0.007327C0.656499 9.98124 1.18404 10.5032 1.18404 11.1467C1.18404 11.7902 0.656499 12.3122 0.007327 12.3122H0L0 13.8429H0.007327C0.656499 13.8429 1.18404 14.3649 1.18404 15.0084C1.18404 15.6519 0.656499 16.1738 0.007327 16.1738H0L0 17.7046H0.007327C0.656499 17.7046 1.18404 18.2266 1.18404 18.8701C1.18404 19.5136 0.656499 20.0355 0.007327 20.0355H0L0 21.5663H0.007327C0.656499 21.5663 1.18404 22.0897 1.18404 22.7318C1.18404 23.3753 0.656499 23.8972 0.007327 23.8972H0L0 25.428H0.007327C0.656499 25.428 1.18404 25.9514 1.18404 26.5935C1.18404 27.237 0.656499 27.7589 0.007327 27.7589H0L0 29.2838H0.007327C0.656499 29.2838 1.18404 29.8072 1.18404 30.4492C1.18404 31.0927 0.656499 31.6147 0.007327 31.6147H0L0 33.1548C0 33.6204 0.383935 34 0.857259 34H2.55217V33.9941C2.55217 33.3505 3.07971 32.8286 3.72888 32.8286C4.37805 32.8286 4.9056 33.352 4.9056 33.9941V34H6.43492V33.9941C6.43492 33.3505 6.96246 32.8286 7.61163 32.8286C8.2608 32.8286 8.78835 33.352 8.78835 33.9941V34H10.3279V33.9941C10.3279 33.3505 10.8555 32.8286 11.5046 32.8286C12.1538 32.8286 12.6814 33.352 12.6814 33.9941V34H14.218V33.9941C14.218 33.3505 14.7455 32.8286 15.3947 32.8286C16.0439 32.8286 16.5714 33.352 16.5714 33.9941V34H18.1081V33.9941C18.1081 33.3505 18.6356 32.8286 19.2848 32.8286C19.934 32.8286 20.4615 33.352 20.4615 33.9941V34H21.9982V33.9941C21.9982 33.3505 22.5257 32.8286 23.1749 32.8286C23.824 32.8286 24.3516 33.352 24.3516 33.9941V34H26.1427C26.6161 34 27 33.6204 27 33.1548V31.6176H26.9941C26.345 31.6176 25.8174 31.0942 25.8174 30.4522C25.8174 29.8087 26.345 29.2867 26.9941 29.2867H27V27.7619H26.9941C26.345 27.7619 25.8174 27.2385 25.8174 26.5964C25.8174 25.9529 26.345 25.431 26.9941 25.431H27V23.9002H26.9941C26.345 23.9002 25.8174 23.3768 25.8174 22.7347C25.8174 22.0912 26.345 21.5693 26.9941 21.5693H27V20.04H26.9941C26.345 20.04 25.8174 19.5166 25.8174 18.8745C25.8174 18.2325 26.345 17.7091 26.9941 17.7091H27V16.1783H26.9941C26.345 16.1783 25.8174 15.6549 25.8174 15.0128C25.8174 14.3708 26.345 13.8474 26.9941 13.8474H27V12.3166H26.9941C26.345 12.3166 25.8174 11.7932 25.8174 11.1511C25.8174 10.5091 26.345 9.98568 26.9941 9.98568H27L27 8.45491H26.9941C26.345 8.45491 25.8174 7.93298 25.8174 7.28945C25.8174 6.64593 26.345 6.12399 26.9941 6.12399H27V4.61388H26.9941C26.345 4.61388 25.8174 4.09195 25.8174 3.44842C25.8174 2.8049 26.345 2.28296 26.9941 2.28296Z"/>
</mask>
<path d="M27 2.28296V2.03296H26.9956V2.28296V2.53296H27V2.28296ZM26.9956 2.28296V2.78296H27.4956V2.28296H26.9956ZM27 4.61388H27.5V4.11388H27V4.61388ZM27 6.12399V6.62399H27.5V6.12399H27ZM27 8.45491H27.5V7.95491H27V8.45491ZM27 9.98568V10.4857H27.5V9.98568H27ZM27 12.3166H27.5V11.8166H27V12.3166ZM27 13.8474V14.3474H27.5V13.8474H27ZM27 16.1783H27.5V15.6783H27V16.1783ZM27 17.7091V18.2091H27.5V17.7091H27ZM27 20.04H27.5V19.54H27V20.04ZM27 21.5693V22.0693H27.5V21.5693H27ZM27 23.9002H27.5V23.4002H27V23.9002ZM27 25.431V25.931H27.5V25.431H27ZM27 27.7619H27.5V27.2619H27V27.7619ZM27 29.2867V29.7867H27.5V29.2867H27ZM27 31.6176H27.5V31.1176H27V31.6176ZM24.3516 34H23.8516V34.5H24.3516V34ZM21.9982 34V34.5H22.4982V34H21.9982ZM20.4615 34H19.9615V34.5H20.4615V34ZM18.1081 34V34.5H18.6081V34H18.1081ZM16.5714 34H16.0714V34.5H16.5714V34ZM14.218 34V34.5H14.718V34H14.218ZM12.6814 34H12.1814V34.5H12.6814V34ZM10.3279 34V34.5H10.8279V34H10.3279ZM8.78835 34H8.28835V34.5H8.78835V34ZM6.43492 34V34.5H6.93492V34H6.43492ZM4.9056 34H4.4056V34.5H4.9056V34ZM2.55217 34V34.5H3.05217V34H2.55217ZM0 31.6147L0 31.1147H-0.5L-0.5 31.6147H0ZM0 29.2838H-0.5V29.7838H0L0 29.2838ZM0 27.7589L0 27.2589H-0.5L-0.5 27.7589H0ZM0 25.428H-0.5V25.928H0L0 25.428ZM0 23.8972L0 23.3972H-0.5L-0.5 23.8972H0ZM0 21.5663H-0.5L-0.5 22.0663H0L0 21.5663ZM0 20.0355L0 19.5355H-0.5V20.0355H0ZM0 17.7046H-0.5L-0.5 18.2046H0L0 17.7046ZM0 16.1738L0 15.6738H-0.5V16.1738H0ZM0 13.8429H-0.5L-0.5 14.3429H0L0 13.8429ZM0 12.3122L0 11.8122H-0.5L-0.5 12.3122H0ZM0 9.98124H-0.5L-0.5 10.4812H0L0 9.98124ZM0 8.45047L0 7.95047H-0.5L-0.5 8.45047H0ZM0 6.11955H-0.5L-0.5 6.61955H0L0 6.11955ZM0 4.60943L0 4.10943H-0.5L-0.5 4.60943H0ZM0 2.27851H-0.5V2.77851H0L0 2.27851ZM2.5507 0H3.0507V-0.5H2.5507V0ZM4.90413 0V-0.5H4.40413V0H4.90413ZM6.43345 0H6.93345V-0.5H6.43345V0ZM8.78688 0V-0.5H8.28688V0H8.78688ZM10.3235 0H10.8235V-0.5H10.3235V0ZM12.677 0V-0.5H12.177V0H12.677ZM14.2136 0H14.7136V-0.5H14.2136V0ZM16.567 0V-0.5H16.067V0H16.567ZM18.1037 0H18.6037V-0.5H18.1037V0ZM20.4571 0V-0.5H19.9571V0H20.4571ZM21.9938 0H22.4938V-0.5H21.9938V0ZM24.3472 0V-0.5H23.8472V0H24.3472ZM26.9956 2.28296V1.78296H26.9941V2.28296V2.78296H26.9956V2.28296ZM26.9941 2.28296V1.78296C26.0735 1.78296 25.3174 2.52408 25.3174 3.44842H25.8174H26.3174C26.3174 3.08572 26.6164 2.78296 26.9941 2.78296V2.28296ZM25.8174 3.44842H25.3174C25.3174 4.37277 26.0735 5.11388 26.9941 5.11388V4.61388V4.11388C26.6164 4.11388 26.3174 3.81112 26.3174 3.44842H25.8174ZM26.9941 4.61388V5.11388H27V4.61388V4.11388H26.9941V4.61388ZM27 6.12399V5.62399H26.9941V6.12399V6.62399H27V6.12399ZM26.9941 6.12399V5.62399C26.0735 5.62399 25.3174 6.36511 25.3174 7.28945H25.8174H26.3174C26.3174 6.92675 26.6164 6.62399 26.9941 6.62399V6.12399ZM25.8174 7.28945H25.3174C25.3174 8.2138 26.0735 8.95491 26.9941 8.95491V8.45491V7.95491C26.6164 7.95491 26.3174 7.65216 26.3174 7.28945H25.8174ZM26.9941 8.45491V8.95491H27V8.45491V7.95491H26.9941V8.45491ZM27 8.45491H26.5L26.5 9.98568H27H27.5L27.5 8.45491H27ZM27 9.98568L27 9.48568H26.9941L26.9941 9.98568V10.4857H27V9.98568ZM26.9941 9.98568L26.9941 9.48568C26.0731 9.48568 25.3174 10.2287 25.3174 11.1511H25.8174H26.3174C26.3174 10.7895 26.6168 10.4857 26.9941 10.4857V9.98568ZM25.8174 11.1511H25.3174C25.3174 12.0736 26.0731 12.8166 26.9941 12.8166V12.3166V11.8166C26.6168 11.8166 26.3174 11.5128 26.3174 11.1511H25.8174ZM26.9941 12.3166V12.8166H27V12.3166V11.8166H26.9941V12.3166ZM27 12.3166H26.5V13.8474H27H27.5V12.3166H27ZM27 13.8474V13.3474H26.9941V13.8474V14.3474H27V13.8474ZM26.9941 13.8474V13.3474C26.0731 13.3474 25.3174 14.0904 25.3174 15.0128H25.8174H26.3174C26.3174 14.6512 26.6168 14.3474 26.9941 14.3474V13.8474ZM25.8174 15.0128H25.3174C25.3174 15.9353 26.0731 16.6783 26.9941 16.6783V16.1783V15.6783C26.6168 15.6783 26.3174 15.3745 26.3174 15.0128H25.8174ZM26.9941 16.1783V16.6783H27V16.1783V15.6783H26.9941V16.1783ZM27 16.1783H26.5V17.7091H27H27.5V16.1783H27ZM27 17.7091V17.2091H26.9941V17.7091V18.2091H27V17.7091ZM26.9941 17.7091V17.2091C26.0731 17.2091 25.3174 17.9521 25.3174 18.8745H25.8174H26.3174C26.3174 18.5129 26.6168 18.2091 26.9941 18.2091V17.7091ZM25.8174 18.8745H25.3174C25.3174 19.797 26.0731 20.54 26.9941 20.54V20.04V19.54C26.6168 19.54 26.3174 19.2362 26.3174 18.8745H25.8174ZM26.9941 20.04V20.54H27V20.04V19.54H26.9941V20.04ZM27 20.04H26.5V21.5693H27H27.5V20.04H27ZM27 21.5693V21.0693H26.9941V21.5693V22.0693H27V21.5693ZM26.9941 21.5693V21.0693C26.0735 21.0693 25.3174 21.8104 25.3174 22.7347H25.8174H26.3174C26.3174 22.372 26.6164 22.0693 26.9941 22.0693V21.5693ZM25.8174 22.7347H25.3174C25.3174 23.6572 26.0731 24.4002 26.9941 24.4002V23.9002V23.4002C26.6168 23.4002 26.3174 23.0964 26.3174 22.7347H25.8174ZM26.9941 23.9002V24.4002H27V23.9002V23.4002H26.9941V23.9002ZM27 23.9002H26.5V25.431H27H27.5V23.9002H27ZM27 25.431V24.931H26.9941V25.431V25.931H27V25.431ZM26.9941 25.431V24.931C26.0735 24.931 25.3174 25.6721 25.3174 26.5964H25.8174H26.3174C26.3174 26.2337 26.6164 25.931 26.9941 25.931V25.431ZM25.8174 26.5964H25.3174C25.3174 27.5189 26.0731 28.2619 26.9941 28.2619V27.7619V27.2619C26.6168 27.2619 26.3174 26.9581 26.3174 26.5964H25.8174ZM26.9941 27.7619V28.2619H27V27.7619V27.2619H26.9941V27.7619ZM27 27.7619H26.5V29.2867H27H27.5V27.7619H27ZM27 29.2867V28.7867H26.9941V29.2867V29.7867H27V29.2867ZM26.9941 29.2867V28.7867C26.0735 28.7867 25.3174 29.5278 25.3174 30.4522H25.8174H26.3174C26.3174 30.0895 26.6164 29.7867 26.9941 29.7867V29.2867ZM25.8174 30.4522H25.3174C25.3174 31.3746 26.0731 32.1176 26.9941 32.1176V31.6176V31.1176C26.6168 31.1176 26.3174 30.8138 26.3174 30.4522H25.8174ZM26.9941 31.6176V32.1176H27V31.6176V31.1176H26.9941V31.6176ZM27 31.6176H26.5V33.1548H27H27.5V31.6176H27ZM27 33.1548H26.5C26.5 33.338 26.3462 33.5 26.1427 33.5V34V34.5C26.8859 34.5 27.5 33.9028 27.5 33.1548H27ZM24.3516 34H24.8516V33.9941H24.3516H23.8516V34H24.3516ZM24.3516 33.9941H24.8516C24.8516 33.0716 24.0959 32.3286 23.1749 32.3286V32.8286V33.3286C23.5522 33.3286 23.8516 33.6324 23.8516 33.9941H24.3516ZM23.1749 32.8286V32.3286C22.2543 32.3286 21.4982 33.0697 21.4982 33.9941H21.9982H22.4982C22.4982 33.6314 22.7971 33.3286 23.1749 33.3286V32.8286ZM21.9982 33.9941H21.4982V34H21.9982H22.4982V33.9941H21.9982ZM21.9982 34V33.5H20.4615V34V34.5H21.9982V34ZM20.4615 34H20.9615V33.9941H20.4615H19.9615V34H20.4615ZM20.4615 33.9941H20.9615C20.9615 33.0716 20.2058 32.3286 19.2848 32.3286V32.8286V33.3286C19.6621 33.3286 19.9615 33.6324 19.9615 33.9941H20.4615ZM19.2848 32.8286V32.3286C18.3642 32.3286 17.6081 33.0697 17.6081 33.9941H18.1081H18.6081C18.6081 33.6314 18.9071 33.3286 19.2848 33.3286V32.8286ZM18.1081 33.9941H17.6081V34H18.1081H18.6081V33.9941H18.1081ZM18.1081 34V33.5H16.5714V34V34.5H18.1081V34ZM16.5714 34H17.0714V33.9941H16.5714H16.0714V34H16.5714ZM16.5714 33.9941H17.0714C17.0714 33.0716 16.3157 32.3286 15.3947 32.3286V32.8286V33.3286C15.772 33.3286 16.0714 33.6324 16.0714 33.9941H16.5714ZM15.3947 32.8286V32.3286C14.4741 32.3286 13.718 33.0697 13.718 33.9941H14.218H14.718C14.718 33.6314 15.017 33.3286 15.3947 33.3286V32.8286ZM14.218 33.9941H13.718V34H14.218H14.718V33.9941H14.218ZM14.218 34V33.5H12.6814V34V34.5H14.218V34ZM12.6814 34H13.1814V33.9941H12.6814H12.1814V34H12.6814ZM12.6814 33.9941H13.1814C13.1814 33.0716 12.4257 32.3286 11.5046 32.3286V32.8286V33.3286C11.882 33.3286 12.1814 33.6324 12.1814 33.9941H12.6814ZM11.5046 32.8286V32.3286C10.584 32.3286 9.82792 33.0697 9.82792 33.9941H10.3279H10.8279C10.8279 33.6314 11.1269 33.3286 11.5046 33.3286V32.8286ZM10.3279 33.9941H9.82792V34H10.3279H10.8279V33.9941H10.3279ZM10.3279 34V33.5H8.78835V34V34.5H10.3279V34ZM8.78835 34H9.28835V33.9941H8.78835H8.28835V34H8.78835ZM8.78835 33.9941H9.28835C9.28835 33.0716 8.53266 32.3286 7.61163 32.3286V32.8286V33.3286C7.98895 33.3286 8.28835 33.6324 8.28835 33.9941H8.78835ZM7.61163 32.8286V32.3286C6.69102 32.3286 5.93492 33.0697 5.93492 33.9941H6.43492H6.93492C6.93492 33.6314 7.2339 33.3286 7.61163 33.3286V32.8286ZM6.43492 33.9941H5.93492V34H6.43492H6.93492V33.9941H6.43492ZM6.43492 34V33.5H4.9056V34V34.5H6.43492V34ZM4.9056 34H5.4056V33.9941H4.9056H4.4056V34H4.9056ZM4.9056 33.9941H5.4056C5.4056 33.0716 4.64991 32.3286 3.72888 32.3286V32.8286V33.3286C4.1062 33.3286 4.4056 33.6324 4.4056 33.9941H4.9056ZM3.72888 32.8286V32.3286C2.80827 32.3286 2.05217 33.0697 2.05217 33.9941H2.55217H3.05217C3.05217 33.6314 3.35115 33.3286 3.72888 33.3286V32.8286ZM2.55217 33.9941H2.05217V34H2.55217H3.05217V33.9941H2.55217ZM2.55217 34V33.5H0.857259V34V34.5H2.55217V34ZM0.857259 34V33.5C0.653777 33.5 0.5 33.338 0.5 33.1548H0H-0.5C-0.5 33.9028 0.114092 34.5 0.857259 34.5V34ZM0 33.1548H0.5L0.5 31.6147H0H-0.5L-0.5 33.1548H0ZM0 31.6147L0 32.1147H0.007327L0.007327 31.6147L0.007327 31.1147H0L0 31.6147ZM0.007327 31.6147L0.007327 32.1147C0.927942 32.1147 1.68404 31.3736 1.68404 30.4492H1.18404H0.684043C0.684043 30.8119 0.385057 31.1147 0.007327 31.1147L0.007327 31.6147ZM1.18404 30.4492H1.68404C1.68404 29.5268 0.928359 28.7838 0.007327 28.7838L0.007327 29.2838L0.007327 29.7838C0.38464 29.7838 0.684043 30.0876 0.684043 30.4492H1.18404ZM0.007327 29.2838L0.007327 28.7838H0L0 29.2838L0 29.7838H0.007327L0.007327 29.2838ZM0 29.2838H0.5L0.5 27.7589H0H-0.5L-0.5 29.2838H0ZM0 27.7589L0 28.2589H0.007327L0.007327 27.7589L0.007327 27.2589H0L0 27.7589ZM0.007327 27.7589L0.007327 28.2589C0.927942 28.2589 1.68404 27.5178 1.68404 26.5935H1.18404H0.684043C0.684043 26.9562 0.385057 27.2589 0.007327 27.2589L0.007327 27.7589ZM1.18404 26.5935H1.68404C1.68404 25.671 0.928358 24.928 0.007327 24.928L0.007327 25.428L0.007327 25.928C0.38464 25.928 0.684043 26.2318 0.684043 26.5935H1.18404ZM0.007327 25.428L0.007327 24.928H0L0 25.428L0 25.928H0.007327L0.007327 25.428ZM0 25.428H0.5L0.5 23.8972H0H-0.5L-0.5 25.428H0ZM0 23.8972L0 24.3972H0.007327L0.007327 23.8972L0.007327 23.3972H0L0 23.8972ZM0.007327 23.8972L0.007327 24.3972C0.927942 24.3972 1.68404 23.6561 1.68404 22.7318H1.18404H0.684043C0.684043 23.0945 0.385056 23.3972 0.007327 23.3972L0.007327 23.8972ZM1.18404 22.7318H1.68404C1.68404 21.8093 0.928358 21.0663 0.007327 21.0663L0.007327 21.5663L0.007327 22.0663C0.38464 22.0663 0.684043 22.3701 0.684043 22.7318H1.18404ZM0.007327 21.5663L0.007327 21.0663H0L0 21.5663L0 22.0663H0.007327L0.007327 21.5663ZM0 21.5663H0.5L0.5 20.0355H0H-0.5L-0.5 21.5663H0ZM0 20.0355L0 20.5355H0.007327L0.007327 20.0355L0.007327 19.5355H0L0 20.0355ZM0.007327 20.0355L0.007327 20.5355C0.927943 20.5355 1.68404 19.7944 1.68404 18.8701H1.18404H0.684043C0.684043 19.2328 0.385056 19.5355 0.007327 19.5355L0.007327 20.0355ZM1.18404 18.8701H1.68404C1.68404 17.9457 0.927942 17.2046 0.007327 17.2046L0.007327 17.7046L0.007327 18.2046C0.385057 18.2046 0.684043 18.5074 0.684043 18.8701H1.18404ZM0.007327 17.7046L0.007327 17.2046H0L0 17.7046L0 18.2046H0.007327L0.007327 17.7046ZM0 17.7046H0.5L0.5 16.1738H0H-0.5L-0.5 17.7046H0ZM0 16.1738L0 16.6738H0.007327L0.007327 16.1738L0.007327 15.6738H0L0 16.1738ZM0.007327 16.1738L0.007327 16.6738C0.927941 16.6738 1.68404 15.9327 1.68404 15.0084H1.18404H0.684043C0.684043 15.3711 0.385057 15.6738 0.007327 15.6738L0.007327 16.1738ZM1.18404 15.0084H1.68404C1.68404 14.084 0.927942 13.3429 0.007327 13.3429L0.007327 13.8429L0.007327 14.3429C0.385056 14.3429 0.684043 14.6457 0.684043 15.0084H1.18404ZM0.007327 13.8429L0.007327 13.3429H0L0 13.8429L0 14.3429H0.007327L0.007327 13.8429ZM0 13.8429H0.5L0.5 12.3122H0H-0.5L-0.5 13.8429H0ZM0 12.3122L0 12.8122H0.007327L0.007327 12.3122L0.007327 11.8122H0L0 12.3122ZM0.007327 12.3122L0.007327 12.8122C0.927941 12.8122 1.68404 12.071 1.68404 11.1467H1.18404H0.684043C0.684043 11.5094 0.385057 11.8122 0.007327 11.8122L0.007327 12.3122ZM1.18404 11.1467H1.68404C1.68404 10.2224 0.927942 9.48124 0.007327 9.48124L0.007327 9.98124L0.007327 10.4812C0.385056 10.4812 0.684043 10.784 0.684043 11.1467H1.18404ZM0.007327 9.98124L0.007327 9.48124H0L0 9.98124L0 10.4812H0.007327L0.007327 9.98124ZM0 9.98124H0.5L0.5 8.45047H0H-0.5L-0.5 9.98124H0ZM0 8.45047L0 8.95047H0.007327L0.007327 8.45047L0.007327 7.95047H0L0 8.45047ZM0.007327 8.45047L0.007327 8.95047C0.928359 8.95047 1.68404 8.20745 1.68404 7.28501H1.18404H0.684043C0.684043 7.64664 0.38464 7.95047 0.007327 7.95047L0.007327 8.45047ZM1.18404 7.28501H1.68404C1.68404 6.36256 0.928357 5.61955 0.007327 5.61955L0.007327 6.11955L0.007327 6.61955C0.384641 6.61955 0.684043 6.92337 0.684043 7.28501H1.18404ZM0.007327 6.11955L0.007327 5.61955H0L0 6.11955L0 6.61955H0.007327L0.007327 6.11955ZM0 4.60943L0 5.10943H0.007327L0.007327 4.60943L0.007327 4.10943H0L0 4.60943ZM0.007327 4.60943L0.007327 5.10943C0.928359 5.10943 1.68404 4.36642 1.68404 3.44397H1.18404H0.684043C0.684043 3.80561 0.38464 4.10943 0.007327 4.10943L0.007327 4.60943ZM1.18404 3.44397H1.68404C1.68404 2.52152 0.928357 1.77851 0.007327 1.77851L0.007327 2.27851L0.007327 2.77851C0.384641 2.77851 0.684043 3.08234 0.684043 3.44397H1.18404ZM0.007327 2.27851L0.007327 1.77851H0L0 2.27851L0 2.77851H0.007327L0.007327 2.27851ZM0 2.27851H0.5L0.5 0.845181H0H-0.5L-0.5 2.27851H0ZM0 0.845181H0.5C0.5 0.661991 0.653777 0.5 0.857259 0.5L0.857259 0V-0.5C0.114093 -0.5 -0.5 0.097187 -0.5 0.845181H0ZM0.857259 0L0.857259 0.5H2.5507V0V-0.5H0.857259V0ZM2.5507 0H2.0507V0.00593185H2.5507H3.0507V0H2.5507ZM2.5507 0.00593185H2.0507C2.0507 0.928375 2.80638 1.67139 3.72742 1.67139V1.17139L3.72742 0.671394C3.35011 0.671394 3.0507 0.367569 3.0507 0.00593185H2.5507ZM3.72742 1.17139V1.67139C4.64803 1.67139 5.40413 0.930275 5.40413 0.00593185H4.90413H4.40413C4.40413 0.368637 4.10515 0.671394 3.72742 0.671394L3.72742 1.17139ZM4.90413 0.00593185H5.40413V0H4.90413H4.40413V0.00593185H4.90413ZM4.90413 0V0.5H6.43345V0V-0.5H4.90413V0ZM6.43345 0H5.93345V0.00593185H6.43345H6.93345V0H6.43345ZM6.43345 0.00593185H5.93345C5.93345 0.928375 6.68913 1.67139 7.61017 1.67139V1.17139V0.671394C7.23285 0.671394 6.93345 0.367569 6.93345 0.00593185H6.43345ZM7.61017 1.17139V1.67139C8.53078 1.67139 9.28688 0.930275 9.28688 0.00593185H8.78688H8.28688C8.28688 0.368637 7.98789 0.671394 7.61017 0.671394V1.17139ZM8.78688 0.00593185H9.28688V0H8.78688H8.28688V0.00593185H8.78688ZM8.78688 0V0.5H10.3235V0V-0.5H8.78688V0ZM10.3235 0H9.82353V0.00593185H10.3235H10.8235V0H10.3235ZM10.3235 0.00593185H9.82353C9.82353 0.928375 10.5792 1.67139 11.5002 1.67139V1.17139V0.671394C11.1229 0.671394 10.8235 0.367569 10.8235 0.00593185H10.3235ZM11.5002 1.17139V1.67139C12.4209 1.67139 13.177 0.930275 13.177 0.00593185H12.677H12.177C12.177 0.368637 11.878 0.671394 11.5002 0.671394V1.17139ZM12.677 0.00593185H13.177V0H12.677H12.177V0.00593185H12.677ZM12.677 0V0.5H14.2136V0V-0.5H12.677V0ZM14.2136 0H13.7136V0.00593185H14.2136H14.7136V0H14.2136ZM14.2136 0.00593185H13.7136C13.7136 0.928379 14.4693 1.67139 15.3903 1.67139V1.17139V0.671394C15.013 0.671394 14.7136 0.367565 14.7136 0.00593185H14.2136ZM15.3903 1.17139V1.67139C16.3109 1.67139 17.067 0.930275 17.067 0.00593185H16.567H16.067C16.067 0.368637 15.768 0.671394 15.3903 0.671394V1.17139ZM16.567 0.00593185H17.067V0H16.567H16.067V0.00593185H16.567ZM16.567 0V0.5H18.1037V0V-0.5H16.567V0ZM18.1037 0H17.6037V0.00593185H18.1037H18.6037V0H18.1037ZM18.1037 0.00593185H17.6037C17.6037 0.928375 18.3594 1.67139 19.2804 1.67139V1.17139V0.671394C18.9031 0.671394 18.6037 0.367569 18.6037 0.00593185H18.1037ZM19.2804 1.17139V1.67139C20.201 1.67139 20.9571 0.930275 20.9571 0.00593185H20.4571H19.9571C19.9571 0.368637 19.6581 0.671394 19.2804 0.671394V1.17139ZM20.4571 0.00593185H20.9571V0H20.4571H19.9571V0.00593185H20.4571ZM20.4571 0V0.5H21.9938V0V-0.5H20.4571V0ZM21.9938 0H21.4938V0.00593185H21.9938H22.4938V0H21.9938ZM21.9938 0.00593185H21.4938C21.4938 0.928379 22.2494 1.67139 23.1705 1.67139V1.17139V0.671394C22.7932 0.671394 22.4938 0.367565 22.4938 0.00593185H21.9938ZM23.1705 1.17139V1.67139C24.0911 1.67139 24.8472 0.930275 24.8472 0.00593185H24.3472H23.8472C23.8472 0.368637 23.5482 0.671394 23.1705 0.671394V1.17139ZM24.3472 0.00593185H24.8472V0H24.3472H23.8472V0.00593185H24.3472ZM26.1383 0V0.5C26.3418 0.5 26.4956 0.661987 26.4956 0.845181H26.9956H27.4956C27.4956 0.0971909 26.8815 -0.5 26.1383 -0.5V0ZM26.9956 0.845181H26.4956V2.28296H26.9956H27.4956V0.845181H26.9956ZM26.1383 0V-0.5H24.3472V0V0.5H26.1383V0ZM24.3516 34V34.5H26.1427V34V33.5H24.3516V34ZM27 4.61388H26.5V6.12399H27H27.5V4.61388H27ZM0 4.60943H-0.5L-0.5 6.11955H0H0.5L0.5 4.60943H0Z" fill="black" mask="url(#path-1-inside-1_5951_6293)"/>
</g>
<path d="M2.86768 4.12207L2.87451 3.99414C2.93849 3.36379 3.47044 2.87207 4.11768 2.87207H22.8774C23.5678 2.87207 24.1274 3.43171 24.1274 4.12207L24.1274 29.8818C24.1274 30.5722 23.5678 31.1318 22.8774 31.1318H4.11768C3.42732 31.1318 2.86768 30.5722 2.86768 29.8818L2.86768 4.12207Z" stroke="black" stroke-width="0.5"/>
<defs>
<filter id="filter0_i_5951_6293" x="0" y="0" width="27" height="37" filterUnits="userSpaceOnUse" color-interpolation-filters="sRGB">
<feFlood flood-opacity="0" result="BackgroundImageFix"/>
<feBlend mode="normal" in="SourceGraphic" in2="BackgroundImageFix" result="shape"/>
<feColorMatrix in="SourceAlpha" type="matrix" values="0 0 0 0 0 0 0 0 0 0 0 0 0 0 0 0 0 0 127 0" result="hardAlpha"/>
<feOffset dy="3"/>
<feGaussianBlur stdDeviation="2"/>
<feComposite in2="hardAlpha" operator="arithmetic" k2="-1" k3="1"/>
<feColorMatrix type="matrix" values="0 0 0 0 0 0 0 0 0 0 0 0 0 0 0 0 0 0 0.2 0"/>
<feBlend mode="normal" in2="shape" result="effect1_innerShadow_5951_6293"/>
</filter>
</defs>
</svg>
