<svg width="20" height="20" viewBox="0 0 20 20" fill="none" xmlns="http://www.w3.org/2000/svg">
<path d="M8.80954 0.881819C9.51674 0.357971 10.4833 0.357971 11.1905 0.881819L18.1905 6.067C18.6997 6.4442 19 7.04041 19 7.67412V18C19 19.1046 18.1046 20 17 20H15.375C14.2704 20 13.375 19.1046 13.375 18V14.2222C13.375 13.1177 12.4796 12.2222 11.375 12.2222H8.625C7.52043 12.2222 6.625 13.1177 6.625 14.2222V18C6.625 19.1046 5.72957 20 4.625 20H3C1.89543 20 1 19.1046 1 18V7.67412C1 7.04041 1.30033 6.4442 1.80954 6.067L8.80954 0.881819Z" fill="#1C1C1E"/>
</svg>
