<svg width="20" height="20" viewBox="0 0 20 20" fill="none" xmlns="http://www.w3.org/2000/svg">
<path d="M8.80957 2.12598C9.51669 1.60229 10.4833 1.60229 11.1904 2.12598L17.1904 6.57031C17.6996 6.94749 18 7.54407 18 8.17773V17.1875C18 18.1885 17.1885 19 16.1875 19C15.1865 19 14.375 18.1885 14.375 17.1875V15.2227C14.375 13.0135 12.5841 11.2227 10.375 11.2227H9.625C7.41586 11.2227 5.625 13.0135 5.625 15.2227V17.1875C5.625 18.1885 4.81351 19 3.8125 19C2.81148 19 2 18.1885 2 17.1875V8.17773C2.00003 7.54407 2.30038 6.94749 2.80957 6.57031L8.80957 2.12598Z" stroke="#1C1C1E" stroke-opacity="0.4" stroke-width="2"/>
</svg>
