<svg width="20" height="20" viewBox="0 0 20 20" fill="none" xmlns="http://www.w3.org/2000/svg">
<g clip-path="url(#clip0_212_343)">
<path d="M10 11.8525C12.1826 11.8525 15.0491 12.3234 17.1533 12.7393C18.833 13.0712 20 14.5642 20 16.2764C19.9998 18.3332 18.3323 20.001 16.2754 20.001H3.72461C1.66774 20.001 0.000240467 18.3332 0 16.2764C0 14.5642 1.16701 13.0713 2.84668 12.7393C4.95087 12.3234 7.81745 11.8525 10 11.8525ZM9.99902 0C12.9729 0 15.3838 2.32175 15.3838 5.18555C15.3837 8.04925 12.9728 10.3711 9.99902 10.3711C7.02543 10.3709 4.61534 8.04912 4.61523 5.18555C4.61523 2.32189 7.02536 0.000213164 9.99902 0Z" fill="#1C1C1E"/>
</g>
<defs>
<clipPath id="clip0_212_343">
<rect width="20" height="20" fill="white"/>
</clipPath>
</defs>
</svg>
