<svg width="20" height="20" viewBox="0 0 20 20" fill="none" xmlns="http://www.w3.org/2000/svg">
<g clip-path="url(#clip0_283_359)">
<mask id="path-1-inside-1_283_359" fill="white">
<path d="M10 11.8525C12.1826 11.8525 15.0491 12.3234 17.1533 12.7393C18.833 13.0712 20 14.5642 20 16.2764C19.9998 18.3332 18.3323 20.001 16.2754 20.001H3.72461C1.66774 20.001 0.000240467 18.3332 0 16.2764C0 14.5642 1.16701 13.0713 2.84668 12.7393C4.95087 12.3234 7.81745 11.8525 10 11.8525ZM9.99902 0C12.9729 0 15.3838 2.32175 15.3838 5.18555C15.3837 8.04925 12.9728 10.3711 9.99902 10.3711C7.02543 10.3709 4.61534 8.04912 4.61523 5.18555C4.61523 2.32189 7.02536 0.000213164 9.99902 0Z"/>
</mask>
<path d="M10 11.8525V9.85254H10L10 11.8525ZM17.1533 12.7393L17.5411 10.7772L17.541 10.7772L17.1533 12.7393ZM20 16.2764L22 16.2766V16.2764H20ZM0 16.2764H-2V16.2766L0 16.2764ZM2.84668 12.7393L2.45895 10.7772L2.45886 10.7772L2.84668 12.7393ZM9.99902 0V-2H9.99888L9.99902 0ZM15.3838 5.18555L17.3838 5.18562V5.18555H15.3838ZM9.99902 10.3711L9.99888 12.3711H9.99902V10.3711ZM4.61523 5.18555H2.61523V5.18562L4.61523 5.18555ZM10 11.8525V13.8525C11.9718 13.8525 14.673 14.2878 16.7656 14.7013L17.1533 12.7393L17.541 10.7772C15.4252 10.3591 12.3933 9.85254 10 9.85254V11.8525ZM17.1533 12.7393L16.7655 14.7013C17.4601 14.8386 18 15.4693 18 16.2764H20H22C22 13.6591 20.2059 11.3039 17.5411 10.7772L17.1533 12.7393ZM20 16.2764L18 16.2761C17.9999 17.2288 17.2275 18.001 16.2754 18.001V20.001V22.001C19.4371 22.001 21.9996 19.4376 22 16.2766L20 16.2764ZM16.2754 20.001V18.001H3.72461V20.001V22.001H16.2754V20.001ZM3.72461 20.001V18.001C2.77254 18.001 2.00011 17.2288 2 16.2761L0 16.2764L-2 16.2766C-1.99963 19.4376 0.562934 22.001 3.72461 22.001V20.001ZM0 16.2764H2C2 15.4693 2.53988 14.8386 3.2345 14.7013L2.84668 12.7393L2.45886 10.7772C-0.20586 11.3039 -2 13.659 -2 16.2764H0ZM2.84668 12.7393L3.23441 14.7013C5.32696 14.2878 8.0282 13.8525 10 13.8525L10 11.8525L10 9.85254C7.6067 9.85254 4.57478 10.3591 2.45895 10.7772L2.84668 12.7393ZM9.99902 0V2C11.94 2 13.3838 3.49671 13.3838 5.18555H15.3838H17.3838C17.3838 1.1468 14.0057 -2 9.99902 -2V0ZM15.3838 5.18555L13.3838 5.18547C13.3837 6.87435 11.9399 8.37109 9.99902 8.37109V10.3711V12.3711C14.0057 12.3711 17.3836 9.22415 17.3838 5.18562L15.3838 5.18555ZM9.99902 10.3711L9.99917 8.37109C8.05872 8.37095 6.6153 6.87455 6.61523 5.18547L4.61523 5.18555L2.61523 5.18562C2.61539 9.22369 5.99214 12.3708 9.99888 12.3711L9.99902 10.3711ZM4.61523 5.18555H6.61523C6.61523 3.49652 8.05857 2.00014 9.99917 2L9.99902 0L9.99888 -2C5.99215 -1.99971 2.61523 1.14726 2.61523 5.18555H4.61523Z" fill="#1C1C1E" fill-opacity="0.4" mask="url(#path-1-inside-1_283_359)"/>
</g>
<defs>
<clipPath id="clip0_283_359">
<rect width="20" height="20" fill="white"/>
</clipPath>
</defs>
</svg>
